<?xml version="1.0" encoding="utf-8"?>
<!-- Generator: Adobe Illustrator 26.0.0, SVG Export Plug-In . SVG Version: 6.00 Build 0)  -->
<svg version="1.1" id="Capa_1" xmlns="http://www.w3.org/2000/svg" xmlns:xlink="http://www.w3.org/1999/xlink" x="0px" y="0px"
	 viewBox="0 0 1224 792" style="enable-background:new 0 0 1224 792;" xml:space="preserve">
<style type="text/css">
	.st0{fill:#F8F7F7;}
	.st1{fill:#020203;}
	.st2{fill:#E52421;}
	.st3{fill:#FFFFFF;}
	.st4{display:none;}
	.st5{display:inline;}
	.st6{fill:#E52920;}
</style>
<g id="Capa_3">
	<rect y="-0.6" class="st0" width="1224.7" height="791.6"/>
	<g>
		<g>
			<path class="st0" d="M497.3,262.5c1.7,1.7,3.5,3.4,5.2,5.1c1.3,1.3,3.7,0.8,4.2-1.1c1.3-5.6,2.6-11.2,3.9-16.8
				c0.3-1.3-0.4-2.7-1.7-3.1c-1.3-0.3-2.8,0.4-3.1,1.7c-1.3,5.6-2.6,11.2-3.9,16.8c1.4-0.4,2.8-0.7,4.2-1.1
				c-1.7-1.7-3.5-3.4-5.2-5.1c-1-0.9-2.6-1-3.5,0C496.3,259.9,496.3,261.5,497.3,262.5L497.3,262.5z"/>
		</g>
	</g>
	<g>
		<g>
			<path class="st0" d="M496.1,264.7c0.1,0.1,0.2,0.3,0.3,0.4c-0.1-0.2-0.1-0.1,0.1,0.1c0.2,0.3,0.4,0.6,0.6,0.9
				c0.4,0.5,0.7,1.1,1.1,1.7c0.7,1.2,1.3,2.4,1.8,3.6c0.4,0.9,1.6,1.3,2.5,1.2c0.9-0.1,1.9-0.8,2.1-1.8c0.8-5,1.8-9.9,3.1-14.8
				c0.3-1.3-0.4-2.8-1.7-3.1c-1.3-0.3-2.7,0.4-3.1,1.7c-1.3,4.9-2.3,9.8-3.1,14.8c1.5-0.2,3-0.4,4.6-0.6c-1.2-2.8-2.8-5.3-4.7-7.7
				c-0.8-1-2.7-0.9-3.5,0C495.1,262.3,495.2,263.6,496.1,264.7L496.1,264.7z"/>
		</g>
	</g>
	<g>
		<g>
			<path class="st0" d="M505.2,268.6c-0.9-1.1-1.7-2.1-2.6-3.4s-1.8-2.6-2.6-3.9c-1.7-2.6-3.2-5.4-4.5-8.2c-0.6-1.2-2.3-1.6-3.4-0.9
				c-1.2,0.8-1.5,2.2-0.9,3.4c2.8,5.9,6.4,11.4,10.5,16.5c0.8,1,2.7,0.9,3.5,0C506.2,271,506.1,269.7,505.2,268.6L505.2,268.6z"/>
		</g>
	</g>
	<rect x="-0.4" y="-1.1" class="st0" width="1224.7" height="791.6"/>
	<g>
		<g>
			<path class="st0" d="M514.1,272.4c0,0-0.6-0.1-0.4-0.1h0.1c0.3,0.1-0.6-0.3-0.2-0.1c0.3,0.2-0.3-0.3-0.2-0.2
				c0.1,0.1,0.2,0.2,0.3,0.3c0.1,0.1,0.3,0.4,0,0s0,0,0,0.1c0.1,0.2,0.3,0.4,0.4,0.6c0.6,1.1,1.3,2.2,2.3,2.9c1.5,1,3.7,0.7,5-0.6
				c1.3-1.4,1.5-3.3,1.8-5.1c0.4-2.1,0.8-4.3,1.3-6.4c0.3-1.3-0.4-2.8-1.7-3.1c-1.2-0.3-2.8,0.4-3.1,1.7c-0.4,2.2-0.9,4.5-1.3,6.7
				c-0.1,0.6-0.2,1.1-0.3,1.7c0,0.2-0.1,0.4-0.1,0.6s-0.2,0.4-0.2,0.6c0.2-0.4,0.2-0.4,0.1-0.2c0,0.1-0.1,0.2-0.1,0.2
				c0.3-0.3,0.3-0.4,0.1-0.2c-0.2,0.2-0.1,0.1,0.2-0.1c-0.2,0.1-0.1,0.1,0.2-0.1c-0.3,0.1-0.2,0.1,0.3,0c-0.5,0,0.6,0.1,0.2,0.1
				c-0.5-0.1,0.6,0.3,0.2,0.1c-0.5-0.2,0.4,0.4,0.2,0.1c-0.1-0.1-0.2-0.2-0.2-0.3c0.3,0.4,0.4,0.5,0.2,0.3c0-0.1-0.1-0.1-0.1-0.2
				c-0.3-0.5-0.6-1-0.9-1.5c-0.4-0.6-0.8-1.2-1.3-1.7c-0.8-0.8-1.7-1.1-2.8-1.2c-1.3-0.1-2.6,1.2-2.5,2.5
				C511.6,271.4,512.7,272.3,514.1,272.4L514.1,272.4z"/>
		</g>
	</g>
</g>
<g id="Capa_1_00000023966956394170237720000011283837051380299395_">
	<g>
		<g transform="translate(0.000000,1256.000000) scale(0.100000,-0.100000)">
			<path class="st1" d="M1705.8,11112c-2.3-5.2-4.1-10.5-4.1-12s5.2-14,11.6-28.3c54.3-120.5,124.6-288.5,162.8-388.1
				c1.2-2.9-1.2-4.3-13.8-8c-8.3-2.5-15.3-4.7-15.5-5c-0.4-0.2,0.4-6,1.7-12.8l2.3-12.6l20.2-2.5l20.2-2.5l4.7-10.7
				c7.8-18.4,12.2-32.6,12.2-40.4v-7.4l-15.5-3.7l-15.5-3.7v-12.2c0-14-0.4-13.8,22.1-9.9c9.5,1.7,13,3.1,12.2,5
				c-0.6,1.7-1.7,6.4-2.3,10.7l-1.2,7.8l5.2-6.2c5.8-6.6,25.2-50.8,39.8-90.4c6.4-17.5,8.5-25.2,7-27c-1.2-1.4-8.9-5.4-17.1-8.5
				c-19.6-7.6-20.2-8.3-20.2-18.6c0-4.7,1.2-9.7,2.7-10.9c5.4-4.3,25.4-8.7,40.7-8.7h15.7l8.5-27.2c4.7-15.1,10.7-34.9,13.2-44
				l4.3-16.3l-5.2-4.5c-2.9-2.5-11.3-6.6-18.8-9.3l-13.6-5v-11.8v-12h15.5c8.5,0,15.5,0.2,15.5,0.6c0,0.2-1.9,5.4-4.1,11.6
				c-2.5,6-4.1,11.1-3.7,11.3s6.4-0.8,13.6-2.5c12.6-2.9,12.8-2.9,12.8-9.9c0-3.9,2.3-11.8,5.2-17.3c10.5-20.8,36.1-89.4,36.1-97
				c0-3.1-2.5-3.7-17.1-4.5c-12.4-0.6-19.6-2.1-26.8-5.8c-5.6-2.7-10.3-5.6-10.7-6.2c-0.4-0.8,1-6.6,3.5-13l4.3-11.6l23.7-0.6
				l23.7-0.6l3.9-11.3c2.3-6.2,5.6-22.9,7.8-37.1c4.1-28.7,9.5-98.4,7.6-100.5c-7.6-7.4-105-12.4-381.1-19.2
				c-232.8-5.8-243.5-6.2-335.3-17.3c-75.7-9.3-181-23.7-202.2-28.1c-10.1-1.9-10.3-1.9-16.7,5.2c-7.8,8.7-58.6,82.5-142,206.1
				l-61.1,90.6l-20.2,9.7l-20.2,9.7l-35.1,1.4l-34.9,1.4l-7.8-7.8l-7.6-8l11.6-38.2c10.7-35.9,23.1-76.4,66.7-218.9
				c23.5-77,27.4-91,25.4-92.7c-0.8-0.8-24.6-8.5-53-16.9c-74.9-22.5-71.6-20.4-57.2-35.9c9.3-9.9,10.3-10.5,26.2-12.8
				c26.6-4.1,84-16.3,85.8-18.2c2.3-2.3-21.9-85.8-78.6-272c-19.6-63.8-19-61.1-16.7-77.6c1-8,2.5-15.1,2.9-15.5
				c2.5-2.7,86.3,5.4,103.2,9.7c8.7,2.3,1.4-8.3,151.9,221.2l60.7,92.2h7.4c12.6,0,101.3-11.1,246.8-31l59.8-8.3l110.4-2.1
				c60.7-1,167.1-2.9,236.3-4.1c69.3-1,142.2-2.5,162-3.1s60-1,89.4-1.2c38.2,0,53-0.6,53-2.5c0-9.3-14.4-44.4-38-92.9
				c-29.9-61.5-26.8-57.4-47-60.3l-9.9-1.4V9527v-14.9l22.1-4.3c12-2.5,22.3-4.7,22.5-5.2c0.4-0.4-2.1-8-5.4-16.9
				c-3.3-9.1-10.7-30.5-16.5-47.7l-10.5-31.2l-28.9-5l-28.7-4.7v-11.6v-11.3l16.1-5.6c8.7-2.9,18.4-6.4,21.5-7.6l5.6-2.1l-9.1-25.4
				c-4.7-14-12.4-34.3-16.5-45s-9.7-25.4-12.4-32.6c-2.5-7.2-5.2-13.4-5.8-14c-0.6-0.6-9.5,2.1-19.8,6l-18.8,7v-15.1v-15.1l7.8-2.1
				c4.1-1,10.5-2.7,13.8-3.5c3.5-0.8,6.8-1.7,7.4-2.1c0.8-0.4-6.8-22.3-16.7-48.7l-18-48.1l-8-1.4c-4.3-0.6-11.6-1.9-15.7-2.7
				l-7.8-1.2v-14.2v-14.4h7.8c4.3,0,8.5-0.6,9.1-1.2c1.7-1.4-6-20.4-16.9-42.5l-9.1-18l-15.3-0.6l-15.3-0.6l-4.7-11.8l-4.7-12
				l13.2-9.7c7.2-5.4,13.2-10.7,13.2-12c0-5.8-96.4-241-157.2-383.8l-19.4-45.4l3.5-9.3l3.5-9.3l20.8-0.6l20.8-0.6l24.8,16.9
				c13.6,9.1,24.8,18,24.8,19.4c0,1.7-1,5.4-2.5,8.3c-3.1,7-1.7,7.8,7.4,4.1l7.4-3.1l23.9,14.9l24.1,15.1l55.7,88.7
				c30.5,48.9,103.6,165.3,162.4,259c58.6,93.7,146.3,233.6,194.8,311.2l88.3,140.9l9.5-7.8l9.3-7.6l78.6-3.9l78.6-4.1l17.1,8.9
				l16.9,8.9v52.8v52.8l-9.7,6c-9.5,6.2-9.9,6.2-65.4,9.9c-30.7,1.9-57.2,3.9-58.6,4.1c-1.4,0.4,17.5,33.2,46.4,80.5l49.1,79.9
				l22.1,9.3l22.1,9.5h225.5h225.5l85.8,8l85.6,8.3l70.2,17.7c68.3,17.3,70.6,18.2,96.8,31.8c35.1,18.2,54.9,31.4,69.5,46.4l12,12.2
				v13c0,12.8,0,13-9.7,21.7c-16.9,15.1-39.4,28.5-82.1,49.3l-41.3,20l-75.3,16.1l-75.3,15.9l-291,3.5l-291,3.3l-26.4,11.3
				l-26.4,11.3l-50.8,81.1c-27.9,44.6-50.4,81.3-49.9,81.7c0.4,0.4,28.3,2.5,61.7,4.5l60.7,3.5l9.9,6.2l9.9,6.2v52.2v52.2l-9.3,6.4
				l-9.5,6.4l-83-1.4l-83-1.4l-14-12.4c-7.6-6.8-14.2-12-14.4-11.6c-2.1,2.7-27.7,43.7-70.6,113.3
				c-87.1,140.9-151.9,244.7-270.9,434.4c-132.1,210.5-140.5,223.7-150.4,235.9c-8.9,10.9-32.8,27-76.4,51.8l-33.2,18.8h-19.8h-20
				L1705.8,11112z"/>
		</g>
		<circle class="st2" cx="73.4" cy="137.4" r="38.2"/>
		<ellipse class="st3" cx="73" cy="137.1" rx="34.2" ry="34.8"/>
		<g>
			<g>
				<path d="M75.8,142.4h-4.2v-12.3l-4.8,2.1c-0.4-0.2-0.7-0.4-1-0.7s-0.4-0.7-0.4-1.3c0-1,0.6-1.7,1.8-2.2l5.3-2.2h1
					c0.7,0,1.2,0.2,1.6,0.6c0.4,0.4,0.6,1,0.6,1.6L75.8,142.4L75.8,142.4z M71.7,139.9h4.2v10.5c-0.2,0.1-0.5,0.2-0.8,0.2
					c-0.3,0.1-0.7,0.1-1.1,0.1c-0.7,0-1.3-0.1-1.7-0.4c-0.4-0.3-0.6-0.8-0.6-1.5V139.9z"/>
			</g>
		</g>
	</g>
	<g>
		<g transform="translate(0.000000,1256.000000) scale(0.100000,-0.100000)">
			<path class="st1" d="M5621.3,11063.9c-2.3-5.2-4.1-10.5-4.1-12s5.2-14,11.6-28.3c54.3-120.5,124.6-288.5,162.8-388.2
				c1.2-2.9-1.2-4.3-13.8-8c-8.3-2.5-15.3-4.7-15.5-5c-0.4-0.2,0.4-6,1.7-12.8l2.3-12.6l20.2-2.5l20.2-2.5l4.7-10.7
				c7.8-18.4,12.2-32.6,12.2-40.4v-7.4l-15.5-3.7l-15.5-3.7v-12.2c0-14-0.4-13.8,22.1-9.9c9.5,1.7,13,3.1,12.2,5
				c-0.6,1.7-1.7,6.4-2.3,10.7l-1.2,7.8l5.2-6.2c5.8-6.6,25.2-50.8,39.8-90.4c6.4-17.5,8.5-25.2,7-27c-1.2-1.4-8.9-5.4-17.1-8.5
				c-19.6-7.6-20.2-8.3-20.2-18.6c0-4.7,1.2-9.7,2.7-10.9c5.4-4.3,25.4-8.7,40.7-8.7h15.7l8.5-27.2c4.7-15.1,10.7-34.9,13.2-44
				l4.3-16.3l-5.2-4.5c-2.9-2.5-11.3-6.6-18.8-9.3l-13.6-5v-11.8v-12h15.5c8.5,0,15.5,0.2,15.5,0.6c0,0.2-1.9,5.4-4.1,11.6
				c-2.5,6-4.1,11.1-3.7,11.3s6.4-0.8,13.6-2.5c12.6-2.9,12.8-2.9,12.8-9.9c0-3.9,2.3-11.8,5.2-17.3c10.5-20.8,36.1-89.4,36.1-97
				c0-3.1-2.5-3.7-17.1-4.5c-12.4-0.6-19.6-2.1-26.8-5.8c-5.6-2.7-10.3-5.6-10.7-6.2c-0.4-0.8,1-6.6,3.5-13l4.3-11.6l23.7-0.6
				l23.7-0.6l3.9-11.3c2.3-6.2,5.6-22.9,7.8-37.1c4.1-28.7,9.5-98.4,7.6-100.5c-7.6-7.4-105-12.4-381.1-19.2
				c-232.8-5.8-243.5-6.2-335.3-17.3c-75.7-9.3-181-23.7-202.2-28.1c-10.1-1.9-10.3-1.9-16.7,5.2c-7.8,8.7-58.6,82.5-142,206.1
				l-61.1,90.6l-20.2,9.7l-20.2,9.7l-35.1,1.4l-34.9,1.4l-7.8-7.8l-7.6-8l11.6-38.2c10.7-35.9,23.1-76.4,66.7-218.9
				c23.5-77,27.4-91,25.4-92.7c-0.8-0.8-24.6-8.5-53-16.9c-74.9-22.5-71.6-20.4-57.2-35.9c9.3-9.9,10.3-10.5,26.2-12.8
				c26.6-4.1,84-16.3,85.8-18.2c2.3-2.3-21.9-85.8-78.6-272c-19.6-63.8-19-61.1-16.7-77.6c1-8,2.5-15.1,2.9-15.5
				c2.5-2.7,86.3,5.4,103.2,9.7c8.7,2.3,1.4-8.3,151.9,221.2l60.7,92.2h7.4c12.6,0,101.3-11.1,246.8-31l59.8-8.3l110.4-2.1
				c60.7-1,167.1-2.9,236.3-4.1c69.3-1,142.2-2.5,162-3.1s60-1,89.4-1.2c38.2,0,53-0.6,53-2.5c0-9.3-14.4-44.4-38-92.9
				c-29.9-61.5-26.8-57.4-47-60.3l-9.9-1.4v-15.1v-14.9l22.1-4.3c12-2.5,22.3-4.7,22.5-5.2c0.4-0.4-2.1-8-5.4-16.9
				c-3.3-9.1-10.7-30.5-16.5-47.7l-10.5-31.2l-28.9-5l-28.7-4.7V9338v-11.3l16.1-5.6c8.7-2.9,18.4-6.4,21.5-7.6l5.6-2.1l-9.1-25.4
				c-4.7-14-12.4-34.3-16.5-45s-9.7-25.4-12.4-32.6c-2.5-7.2-5.2-13.4-5.8-14s-9.5,2.1-19.8,6l-18.8,7v-15.1v-15.1l7.8-2.1
				c4.1-1,10.5-2.7,13.8-3.5c3.5-0.8,6.8-1.7,7.4-2.1c0.8-0.4-6.8-22.3-16.7-48.7l-18-48.1l-8-1.4c-4.3-0.6-11.6-1.9-15.7-2.7
				l-7.8-1.2v-14.2v-14.4h7.8c4.3,0,8.5-0.6,9.1-1.2c1.7-1.4-6-20.4-16.9-42.5l-9.1-18l-15.3-0.6l-15.3-0.6l-4.7-11.8l-4.7-12
				l13.2-9.7c7.2-5.4,13.2-10.7,13.2-12c0-5.8-96.4-241-157.2-383.8l-19.4-45.4l3.5-9.3l3.5-9.3l20.8-0.6l20.8-0.6l24.8,16.9
				c13.6,9.1,24.8,18,24.8,19.4c0,1.7-1,5.4-2.5,8.3c-3.1,7-1.7,7.8,7.4,4.1l7.4-3.1l23.9,14.9l24.1,15.1l55.7,88.7
				c30.5,48.9,103.6,165.3,162.4,259c58.6,93.7,146.3,233.6,194.8,311.2l88.3,140.9l9.5-7.8l9.3-7.6l78.6-3.9l78.6-4.1l17.1,8.9
				l16.9,8.9v52.8v52.8l-9.7,6c-9.5,6.2-9.9,6.2-65.4,9.9c-30.7,1.9-57.2,3.9-58.6,4.1c-1.4,0.4,17.5,33.2,46.4,80.5l49.1,79.9
				l22.1,9.3l22.1,9.5h225.5h225.5l85.8,8l85.6,8.3l70.2,17.7c68.3,17.3,70.6,18.2,96.8,31.8c35.1,18.2,54.9,31.4,69.5,46.4l12,12.2
				v13c0,12.8,0,13-9.7,21.7c-16.9,15.1-39.4,28.5-82.1,49.3l-41.3,20l-75.3,16.1l-75.3,15.9l-291,3.5l-291,3.3l-26.4,11.3
				l-26.4,11.3l-50.8,81.1c-27.9,44.6-50.4,81.3-49.9,81.7c0.4,0.4,28.3,2.5,61.7,4.5l60.7,3.5l9.9,6.2l9.9,6.2v52.2v52.2l-9.3,6.4
				l-9.5,6.4l-83-1.4l-83-1.4l-14-12.4c-7.6-6.8-14.2-12-14.4-11.6c-2.1,2.7-27.7,43.7-70.6,113.3
				c-87.1,140.9-151.9,244.7-270.9,434.4c-132.1,210.5-140.5,223.7-150.4,235.9c-8.9,10.9-32.8,27-76.4,51.8l-33.2,18.8h-19.8h-20
				L5621.3,11063.9z"/>
		</g>
		<circle class="st2" cx="464.9" cy="142.2" r="38.2"/>
		<ellipse class="st3" cx="464.6" cy="142" rx="34.2" ry="34.8"/>
		<g>
			<g>
				<path d="M458.8,133.7c0-0.6,0.3-1.1,0.9-1.6s1.4-0.9,2.5-1.2c1-0.3,2.2-0.4,3.5-0.4c1.8,0,3.3,0.3,4.6,0.9
					c1.3,0.6,2.3,1.4,2.9,2.5c0.7,1.1,1,2.3,1,3.7c0,1.5-0.4,2.9-1.2,4.3c-0.8,1.4-2.2,2.9-4,4.6l-6.2,5.6h11.3
					c0.1,0.2,0.2,0.4,0.3,0.7c0.1,0.3,0.1,0.6,0.1,1c0,0.6-0.1,1-0.4,1.3s-0.6,0.4-1.1,0.4h-14.1c-0.3-0.2-0.6-0.5-0.8-0.9
					c-0.2-0.4-0.3-0.8-0.3-1.2c0-0.5,0.1-1,0.3-1.4c0.2-0.4,0.5-0.8,0.9-1.1l6.8-6.4c1.6-1.4,2.7-2.6,3.2-3.6c0.6-1,0.9-2,0.9-2.9
					c0-1.1-0.4-2.1-1.2-2.8c-0.8-0.7-2-1.1-3.5-1.1c-1.1,0-2.2,0.2-3.1,0.6c-0.9,0.4-1.7,0.8-2.2,1.2c-0.3-0.2-0.6-0.4-0.9-0.7
					C458.9,134.6,458.8,134.2,458.8,133.7z"/>
			</g>
		</g>
	</g>
	<g>
		<g>
			<path class="st0" d="M509.5,264.2c0.7,2.4,1.7,4.6,3.2,6.6c0.8,1.1,1.7,2.3,2.9,3c1.6,0.9,3.5,0.7,4.7-0.7c0.9-1,1.4-2.3,2-3.4
				c0.6-1.3,1.2-2.5,1.7-3.9c0.9-2.4,1.6-4.8,2-7.3c0.2-1.3-0.3-2.8-1.7-3.1c-1.2-0.3-2.8,0.4-3.1,1.7c-0.4,2.1-0.9,4.1-1.6,6.1
				c-0.7,2.1-1.3,3.4-2.4,5.4c-0.2,0.4-0.4,0.8-0.7,1.2c0.2-0.2,0.2-0.3,0-0.1c0.2-0.1,0.4-0.3,0.6-0.4c-0.5,0.2,1.3-0.1,1.2,0.2
				c0,0-1-1-1-1.1c-0.2-0.2-0.3-0.4-0.4-0.5c-0.1-0.1-0.1-0.1,0,0c-0.1-0.1-0.2-0.2-0.3-0.4c-0.5-0.8-1-1.6-1.4-2.4
				c-0.1-0.2-0.2-0.4-0.3-0.6c0.2,0.5-0.1-0.2-0.1-0.3c-0.2-0.5-0.4-1-0.5-1.5c-0.3-1.3-1.8-2.2-3.1-1.7
				C509.9,261.6,509.1,262.9,509.5,264.2L509.5,264.2z"/>
		</g>
	</g>
	<g>
		<g>
			<path class="st0" d="M514.9,268.2c0.5,0.4,0.9,0.9,1.4,1.3c0.2,0.1,0.3,0.3,0.5,0.4c0.3,0.2,0.6,0.3,0.9,0.3
				c0.2,0.1,0.4,0.1,0.7,0c0.3,0,0.6-0.1,0.9-0.3c0.4-0.2,0.7-0.5,0.9-0.9c0.2-0.3,0.3-0.6,0.3-0.9c0.1-0.3,0.1-0.7,0-1
				c-0.2-0.5-0.3-1-0.4-1.5c0,0.2,0.1,0.4,0.1,0.7c-0.1-0.5-0.1-1.1,0-1.6c0,0.2-0.1,0.4-0.1,0.7c0,0,0,0,0-0.1c0.1-0.3,0.1-0.7,0-1
				c0-0.3-0.1-0.6-0.3-0.9s-0.4-0.5-0.6-0.7c-0.2-0.2-0.5-0.4-0.9-0.4c-0.6-0.1-1.4-0.1-1.9,0.3c-0.2,0.1-0.3,0.3-0.5,0.4
				c-0.3,0.3-0.5,0.7-0.6,1.1c-0.1,0.8-0.2,1.5-0.1,2.3c0.1,0.8,0.2,1.5,0.5,2.2c1.4-0.8,2.8-1.6,4.2-2.4c-0.5-0.4-0.9-0.9-1.4-1.3
				s-1.1-0.7-1.8-0.7c-0.3,0-0.7,0.1-1,0.2s-0.6,0.3-0.8,0.5c-0.4,0.5-0.8,1.1-0.7,1.8C514.2,267.1,514.5,267.7,514.9,268.2
				L514.9,268.2z"/>
		</g>
	</g>
	<g>
		<g>
			<path class="st0" d="M519.8,291.2c0.1-0.1,0.2-0.2,0.2-0.3c0.1-0.2,0.1-0.2,0,0c0.2-0.2,0.4-0.5,0.6-0.7c0.4-0.4,0.8-0.8,1.3-1.2
				c0.2-0.2,0.2-0.1,0,0c0.1-0.1,0.2-0.2,0.3-0.2c0.2-0.2,0.5-0.3,0.7-0.5c0.5-0.3,1.1-0.6,1.7-0.9c-1.1-0.3-2.3-0.6-3.4-0.9
				c2.5,3.3,5,6.6,7.5,9.9c0.8,1,2.2,1.7,3.4,0.9c1-0.7,1.7-2.3,0.9-3.4c-2.5-3.3-5-6.6-7.5-9.9c-0.9-1.2-2.1-1.5-3.4-0.9
				c-2.7,1.2-4.9,3.2-6.6,5.6c-0.7,1.1-0.2,2.8,0.9,3.4C517.6,292.7,519,292.3,519.8,291.2L519.8,291.2z"/>
		</g>
	</g>
	<g>
		<g>
			<path class="st0" d="M509.6,287.3c0-0.2,0.1-0.4,0.2-0.6C509.7,286.9,509.6,287.1,509.6,287.3c0-0.1,0.1-0.2,0.1-0.3
				c0-0.1,0.1-0.1,0.1-0.2c0.1-0.2,0-0.1-0.2,0.3c0.1-0.1,0.2-0.2,0.3-0.3c0.1-0.1,0.5-0.4-0.1,0.1c-1.2-0.5-2.4-1-3.7-1.5
				c1.1,2.7,2.2,5.5,3.3,8.2c0.3,0.6,0.5,1.1,1.1,1.5c0.5,0.3,1.3,0.4,1.9,0.3c0.6-0.2,1.2-0.6,1.5-1.1c0.3-0.6,0.5-1.3,0.3-1.9
				c-1.1-2.7-2.2-5.5-3.3-8.2c-0.3-0.8-0.7-1.3-1.4-1.6c-0.7-0.3-1.6-0.3-2.2,0.1c-1.2,0.8-2.1,2-2.4,3.4c-0.3,1.3,0.4,2.8,1.7,3.1
				C507.8,289.3,509.3,288.6,509.6,287.3L509.6,287.3z"/>
		</g>
	</g>
	<g transform="translate(0.000000,1256.000000) scale(0.100000,-0.100000)">
		<path class="st1" d="M9374.5,9049.4c17,25.7,32,47.5,32.9,48.7c0.9,0.9,14.5-22.4,34.6-58.8c1,1.1,2,2.1,3,3.2
			c43.8,46.5,86.6,95,124.4,146.5c24.6,33.7,81.4,99.7,70.3,145.4c-4.3,17.7,0.4,32.5,9.6,43.1c-32,47.2-29.8,44-22.6,61.9l3.7,9.3
			l-25.9,15l-14.8-17c-8.1-9.1-15.3-16.9-15.7-16.9c-0.6-0.2-5.9,5.8-12,13.1c-6.2,7.4-21.1,24.6-33,38.1l-21.7,24.7l10.2,27.5
			l10.2,27.2l-19.8,11.5l-12.9-11.2c-6.8-6.1-14.7-12.7-17.3-14.8l-4.6-3.8l-17.4,20.6c-9.8,11.1-23.5,27.9-30.7,36.8
			c-7.2,8.9-17.1,21.1-22,27c-5,5.8-9,11.2-9.3,12c-0.2,0.8,6.5,7.2,15.1,14.2l15.5,12.8l-26.1,15.1l-5.7-5.8
			c-3-3.1-7.6-7.8-10-10.2c-2.5-2.6-4.8-5.1-5.5-5.4c-0.8-0.5-15.9,17-33.8,38.8l-32.7,39.6l2.8,7.7c1.6,4.1,4.2,10.9,5.5,14.9
			l2.8,7.4l-24.8,14.3l-3.9-6.8c-2.2-3.8-4.8-7-5.6-7.2c-2.1-0.7-14.7,15.4-28.4,35.9l-11,16.8l7.1,13.5l7.1,13.5l-7.8,10l-8,10.1
			l-15-6.6c-8.3-3.6-15.9-6.1-17-5.5c-5,2.9-160.5,204-253.8,328.1l-29.6,39.5l-9.8,1.6l-9.8,1.6l-11-17.7l-11-17.7l2.3-29.9
			c1.1-16.3,3.2-30.4,4.4-31.1c1.4-0.8,5.2-1.8,8.4-2c7.6-0.8,7.6-2.5-0.1-8.5l-6.4-4.9l0.9-28.2l1-28.4l49-92.6
			c27.1-50.9,91.3-172.4,143.1-270.1c51.8-97.6,129.1-243.5,172.1-324.3l77.9-147l-11.5-4.3l-11.3-4.2l-42.7-66.1l-42.9-66
			l-0.9-19.3l-0.8-19.1l91.5-52.8l10,5.4C9343.4,9002.8,9343.6,9003.2,9374.5,9049.4z"/>
		<path class="st1" d="M8769.8,9737.3c-25.8,37.1-43.3,79-63.9,119c-62.9-41.7-144.9-97.7-161.4-110.5c-8.2-6.2-8.4-6.3-17.3-2.8
			c-10.9,4.3-89.2,47.8-219,121.3l-95,53.9l-44.9-0.7l-32-14.3l-31.9-14.2l-3.5-10.5l-3.2-10.6l27.4-29
			c25.6-27.4,54.7-58.1,157.2-166.3c55.4-58.4,65.1-69.2,64-71.6c-0.4-1.1-18.2-18.5-39.9-38.8c-57-53.5-55-50.2-35.2-57.6
			c12.7-4.7,13.9-4.8,29.2,0.2c25.7,8.2,82.5,22.8,84.9,22c3-1,18.7-86.6,50.8-278.5c10.9-65.8,10.2-63.1,19.6-76.9
			c4.5-6.7,8.9-12.4,9.5-12.6c3.4-1.3,74.8,43.2,88,54.7c6.7,5.9,5-6.7,37.4,265.7l13.2,109.6l6.7,3.3
			c11.1,5.5,92.9,34.2,227.6,79.9C8812.1,9687.9,8789.2,9709.4,8769.8,9737.3z"/>
		<path class="st1" d="M11377,9827.7c-16.9,15.1-39.4,28.5-82.1,49.3l-41.3,20l-75.3,16.1l-75.3,15.9l-291,3.5l-291,3.3l-26.4,11.3
			l-26.4,11.3l-50.8,81.1c-27.9,44.6-50.3,81.3-49.9,81.7c0.4,0.4,28.3,2.5,61.7,4.5l60.7,3.5l19.8,12.4v104.4l-9.3,6.4l-9.5,6.4
			l-83-1.4l-83-1.4l-14-12.4c-7.6-6.8-14.2-12-14.4-11.6c-2.1,2.7-27.7,43.7-70.6,113.3c-87.1,140.9-151.9,244.7-270.9,434.4
			c-132.1,210.5-140.5,223.7-150.4,235.9c-8.9,10.9-32.8,27-76.4,51.8l-33.2,18.8h-39.8l-3.9-9.5c-2.3-5.2-4.1-10.5-4.1-12
			c0-1.4,5.2-14,11.6-28.3c54.3-120.5,124.6-288.5,162.8-388.2c1.2-2.9-1.2-4.3-13.8-8c-8.3-2.5-15.3-4.7-15.5-5
			c-0.4-0.2,0.4-6,1.7-12.8l2.3-12.6l40.4-5l4.7-10.7c7.8-18.4,12.2-32.6,12.2-40.4v-7.4l-15.5-3.7l-15.5-3.7v-12.2
			c0-14-0.4-13.8,22.1-9.9c9.5,1.7,13,3.1,12.2,5c-0.6,1.7-1.7,6.4-2.3,10.7l-1.2,7.8l5.2-6.2c5.8-6.6,25.2-50.8,39.8-90.4
			c6.4-17.5,8.5-25.2,7-27c-1.2-1.4-8.9-5.4-17.1-8.5c-19.6-7.6-20.2-8.3-20.2-18.6c0-4.7,1.2-9.7,2.7-10.9
			c5.4-4.3,25.4-8.7,40.7-8.7h15.7l8.5-27.2c4.7-15.1,10.7-34.9,13.2-44l4.3-16.3l-5.2-4.5c-2.9-2.5-11.3-6.6-18.8-9.3l-13.6-5
			v-23.7h15.5c8.5,0,15.5,0.2,15.5,0.6c0,0.2-1.9,5.4-4.1,11.6c-2.5,6-4.1,11.1-3.7,11.3c0.4,0.2,6.4-0.8,13.6-2.5
			c12.6-2.9,12.8-2.9,12.8-9.9c0-3.9,2.3-11.8,5.2-17.3c10.5-20.8,36.1-89.4,36.1-97c0-3.1-2.5-3.7-17.1-4.5
			c-12.4-0.6-19.6-2.1-26.8-5.8c-5.6-2.7-10.3-5.6-10.7-6.2c-0.4-0.8,1-6.6,3.5-13l4.3-11.6l23.7-0.6l23.7-0.6l3.9-11.3
			c2.3-6.2,5.6-22.9,7.8-37.1c4.1-28.7,9.5-98.4,7.6-100.5c-7.6-7.4-105-12.4-381.1-19.2c-108.3-2.7-168.5-4.2-211.2-6.2
			c-3.8-12.8-6.9-25.7-7.3-38.9c-0.7-21.9-12.7-36.3-28.2-43.3c3.6-59.1,17.7-113.6,70.6-148.7c7-4.6,12.2-10.1,15.8-16.1l30.2-0.6
			c60.7-1,167.1-2.9,236.3-4.1c69.3-1,142.2-2.5,162-3.1s60-1,89.4-1.2c3.5,0,6.6,0,9.7,0c96.2,57,252.9,16.1,350.9-3.2
			c34.1-6.7,67.7-14.7,101.1-23l7.2,11.7l22.1,9.3l22.1,9.5h451.1l85.8,8l85.6,8.3l70.2,17.7c68.3,17.3,70.6,18.2,96.8,31.8
			c35.1,18.2,54.9,31.4,69.5,46.4l12,12.2v13C11386.7,9818.8,11386.7,9819,11377,9827.7z"/>
		<path class="st1" d="M4281.2,5953.3c-16.9,15.1-39.4,28.5-82.1,49.3l-41.3,20l-75.3,16.1l-75.3,15.9l-291,3.5l-291,3.3l-26.4,11.3
			l-26.4,11.3l-50.8,81.1c-27.9,44.6-50.3,81.3-49.9,81.7s28.3,2.5,61.7,4.5l60.7,3.5l19.8,12.4v104.4l-9.3,6.4l-9.5,6.4l-83-1.4
			l-83-1.4l-14-12.4c-7.6-6.8-14.2-12-14.4-11.6c-2.1,2.7-27.7,43.7-70.6,113.3c-87.1,140.9-151.9,244.7-270.9,434.4
			c-132.1,210.5-140.5,223.7-150.4,235.9c-8.9,10.9-32.8,27-76.4,51.8l-33.2,18.8h-39.8l-3.9-9.5c-2.3-5.2-4.1-10.5-4.1-12
			c0-1.4,5.2-14,11.6-28.3c54.3-120.5,124.6-288.5,162.8-388.1c1.2-2.9-1.2-4.3-13.8-8c-8.3-2.5-15.3-4.7-15.5-5
			c-0.4-0.2,0.4-6,1.7-12.8l2.3-12.6l40.4-5l4.7-10.7c7.8-18.4,12.2-32.6,12.2-40.4v-7.4l-15.5-3.7l-15.5-3.7v-12.2
			c0-14-0.4-13.8,22.1-9.9c9.5,1.7,13,3.1,12.2,5c-0.6,1.7-1.7,6.4-2.3,10.7l-1.2,7.8l5.2-6.2c5.8-6.6,25.2-50.8,39.8-90.4
			c6.4-17.5,8.5-25.2,7-27c-1.2-1.4-8.9-5.4-17.1-8.5c-19.6-7.6-20.2-8.3-20.2-18.6c0-4.7,1.2-9.7,2.7-10.9
			c5.4-4.3,25.4-8.7,40.7-8.7h15.7l8.5-27.2c4.7-15.1,10.7-34.9,13.2-44l4.3-16.3l-5.2-4.5c-2.9-2.5-11.3-6.6-18.8-9.3l-13.6-5
			v-23.7h15.5c8.5,0,15.5,0.2,15.5,0.6c0,0.2-1.9,5.4-4.1,11.6c-2.5,6-4.1,11.1-3.7,11.3c0.4,0.2,6.4-0.8,13.6-2.5
			c12.6-2.9,12.8-2.9,12.8-9.9c0-3.9,2.3-11.8,5.2-17.3c10.5-20.8,36.1-89.4,36.1-97c0-3.1-2.5-3.7-17.1-4.5
			c-12.4-0.6-19.6-2.1-26.8-5.8c-5.6-2.7-10.3-5.6-10.7-6.2c-0.4-0.8,1-6.6,3.5-13l4.3-11.6l23.7-0.6l23.7-0.6l3.9-11.3
			c2.3-6.2,5.6-22.9,7.8-37.1c4.1-28.7,9.5-98.4,7.6-100.5c-7.6-7.4-105-12.4-381.1-19.2c-108.3-2.7-168.5-4.2-211.2-6.2
			c-3.8-12.8-6.9-25.7-7.3-38.9c-0.7-21.9-12.7-36.3-28.2-43.3c3.6-59.1,17.7-113.6,70.6-148.7c7-4.6,12.2-10.1,15.8-16.1l30.2-0.6
			c60.7-1,167.1-2.9,236.3-4.1c69.3-1,142.2-2.5,162-3.1s60-1,89.4-1.2c3.5,0,6.6,0,9.7,0c96.2,57,252.9,16.1,350.9-3.2
			c34.1-6.7,67.7-14.7,101.1-23l7.2,11.7l22.1,9.3l22.1,9.5H3871l85.8,8l85.6,8.3l70.2,17.7c68.3,17.3,70.6,18.2,96.8,31.8
			c35.1,18.2,54.9,31.4,69.5,46.4l12,12.2v13C4290.9,5944.4,4290.9,5944.6,4281.2,5953.3z"/>
	</g>
	<circle class="st2" cx="867.9" cy="140.9" r="38.2"/>
	<circle class="st2" cx="182.9" cy="507" r="38.2"/>
	<ellipse class="st3" cx="867.6" cy="140.7" rx="34.2" ry="34.8"/>
	<g>
		<g>
			<path d="M868.3,129.1c2.7,0,4.8,0.6,6.4,1.7c1.6,1.2,2.4,2.8,2.4,5c0,1-0.2,1.9-0.6,2.6c-0.4,0.7-0.9,1.3-1.5,1.8
				s-1.1,0.8-1.7,0.9c0.7,0.2,1.5,0.6,2.1,1.1c0.7,0.5,1.2,1.2,1.7,2c0.4,0.8,0.7,1.8,0.7,2.9c0,1.6-0.4,2.9-1.2,4s-1.9,1.9-3.3,2.4
				c-1.4,0.5-3,0.8-4.8,0.8c-1.6,0-2.9-0.2-4.1-0.5c-1.2-0.3-2.1-0.7-2.7-1.2c-0.6-0.5-1-1.1-1-1.7c0-0.5,0.1-0.8,0.4-1.2
				c0.2-0.3,0.5-0.6,0.9-0.8c0.6,0.5,1.4,0.9,2.4,1.4c1,0.4,2.2,0.6,3.8,0.6c1.7,0,3-0.3,4-1s1.5-1.7,1.5-3c0-1.2-0.4-2.2-1.3-2.9
				c-0.9-0.7-2.2-1.1-4-1.1H865c-0.1-0.2-0.2-0.4-0.3-0.7s-0.1-0.6-0.1-1s0-0.7,0.1-1s0.2-0.5,0.3-0.7h3.2c1.7,0,2.9-0.3,3.7-1
				c0.7-0.6,1.1-1.5,1.1-2.6s-0.4-2-1.3-2.7c-0.9-0.6-2.1-0.9-3.6-0.9c-1.2,0-2.3,0.2-3.2,0.5s-1.7,0.8-2.3,1.2
				c-0.3-0.2-0.6-0.4-0.8-0.8c-0.2-0.3-0.4-0.7-0.4-1.1c0-0.6,0.3-1.1,0.9-1.6s1.5-0.9,2.5-1.2C865.8,129.2,867,129.1,868.3,129.1z"
				/>
		</g>
	</g>
	<ellipse class="st3" cx="182.5" cy="507.1" rx="34.2" ry="34.8"/>
	<g>
		<g>
			<path d="M174.3,511.3l11.5-14.3c0.3-0.1,0.6-0.1,1-0.2c0.4,0,0.8-0.1,1.1,0c0.5,0,0.9,0.1,1.4,0.2c0.4,0.1,0.8,0.4,1,0.8
				c0.3,0.4,0.4,0.9,0.4,1.5l-0.4,13.2l3.8,0.1c0.1,0.2,0.2,0.4,0.3,0.7s0.1,0.6,0.1,1c0,0.6-0.2,1-0.5,1.3s-0.7,0.4-1.1,0.4
				l-2.7-0.1l-0.2,5.7c-0.2,0-0.4,0.1-0.8,0.1c-0.4,0.1-0.7,0.1-1,0.1c-0.7,0-1.3-0.2-1.6-0.4c-0.4-0.3-0.5-0.7-0.5-1.4l0.1-4.2
				l-11-0.4c-0.3-0.2-0.6-0.5-0.9-0.9c-0.3-0.4-0.4-0.9-0.4-1.5c0-0.3,0.1-0.6,0.1-0.9C174.1,511.7,174.1,511.5,174.3,511.3z
				 M186.4,512.3l0.4-11.3h-0.1l-8.3,11.1L186.4,512.3z"/>
		</g>
	</g>
</g>
<g id="Capa_2_00000059267580965490452550000017831081953289023366_">
</g>
<g id="Capa_4">
	<g transform="translate(0.000000,1256.000000) scale(0.100000,-0.100000)">
		<path class="st1" d="M8565.9,6514.2l-24.7-7l-90.5,31.1c-49.7,17.1-90.3,31.5-90.2,32.1s20.4,19.7,45.1,42.4l44.9,40.9l7.6,22.1
			l-65.7,81.2l-11.2-0.9l-11.4-1l-63.6-53.3l-63.6-53.3l-3.1-18.5c-1.6-10.1-3.5-18.3-4-18.1c-3.3,0.8-49,16.6-126.1,43.6
			c-156.4,54.7-272,94.6-483.9,167.1c-235.1,80.5-250,85.4-265.3,88.7c-13.8,2.9-42.5,0.4-91.9-7.8l-37.6-6.3l-31-25.1l2.9-9.8
			c1.5-5.4,3.4-10.8,4.3-11.9s12.8-7.7,26.8-14.7c118-59.5,278.4-145.8,370.8-199.2c2.8-1.5,1.8-4.1-5.7-15
			c-4.9-7.1-8.9-13.3-8.9-13.6c-0.2-0.4,4.1-4.4,9.3-8.9l9.7-8.4l34.6,21.6l10.4-5.4c17.7-9.3,30-17.7,34.9-23.8l4.7-5.8l-9.7-12.6
			l-9.7-12.6l7.7-9.5c8.8-10.9,8.4-11,23.4,6.2c6.3,7.3,8.2,10.6,6.3,11.5c-1.5,0.9-5.3,3.9-8.5,6.9l-5.9,5.3l7.9-1.6
			c8.6-1.5,51.5-23.6,87.8-45.2c16-9.6,22.4-14.2,22.5-16.6c-0.1-1.9-3.5-9.8-8-17.4c-10.4-18.3-10.5-19.1-4-27.2
			c3-3.7,7.1-6.8,9-6.8c6.9,0,25.2,9.2,37,18.8l12.2,9.9l23.7-15.8c13.2-8.7,30.3-20.4,37.9-25.9l13.6-9.9l-1.2-6.8
			c-0.7-3.7-4.7-12.3-8.8-19l-7.5-12.4l14.9-18.4l12,9.7c6.6,5.3,11.9,9.9,11.6,10.2c-0.1,0.2-4.8,3-10.5,6.4
			c-5.7,3.1-10.2,6.1-10,6.5s5.5,3.4,12.1,6.6c11.6,5.7,11.8,5.8,16.2,0.4c2.5-3,9.2-7.7,14.9-10.2c21.3-9.6,84.3-46.7,89.1-52.7
			c1.9-2.4,0.4-4.4-10.5-14.3c-9.2-8.3-13.9-13.9-17.2-21.4c-2.6-5.6-4.5-10.8-4.4-11.6c0.2-0.9,5-4.5,10.9-7.9l10.6-6.3l18.8,14.5
			l18.8,14.5l10.2-6.4c5.7-3.4,18.7-14.3,29.5-23.9c10-9.3,26-25.5,40.1-40.3C8344.8,6278.4,8462.5,6387.5,8565.9,6514.2z"/>
		<path class="st1" d="M9981.8,5964.9c-16.9,15.1-39.4,28.5-82.1,49.3l-41.3,20l-75.3,16.1l-75.3,15.9l-291,3.5l-291,3.3l-26.4,11.3
			l-2.9,1.2c-160.1-33.5-320.2-44.2-467.4,41.2c1.8-22.8,2.8-42.8,1.9-43.9c-7.6-7.4-105-12.4-381.1-19.2
			c-108.3-2.7-168.5-4.2-211.2-6.2c-3.8-12.8-6.9-25.7-7.3-38.9c-0.7-21.9-12.7-36.3-28.2-43.3c3.6-59.1,17.7-113.6,70.6-148.7
			c7-4.6,12.2-10.1,15.8-16.1l30.2-0.6c60.7-1,167.1-2.9,236.3-4.1c69.3-1,142.2-2.5,162-3.1s60-1,89.4-1.2c3.5,0,6.6,0,9.7,0
			c96.2,57,252.9,16.1,350.9-3.2c34.1-6.7,67.7-14.7,101.1-23l7.2,11.7l22.1,9.3l22.1,9.5h451.1l85.8,8l85.6,8.3l70.2,17.7
			c68.3,17.3,70.6,18.2,96.8,31.8c35.1,18.2,54.9,31.4,69.5,46.4l12,12.2v13C9991.5,5956.1,9991.5,5956.3,9981.8,5964.9z"/>
	</g>
	<circle class="st2" cx="752.9" cy="505.8" r="38.2"/>
	<ellipse class="st3" cx="752.5" cy="505.9" rx="34.2" ry="34.8"/>
	<g>
		<g>
			<path d="M752.4,495.5l-1,2.8l-0.6,7c0.5-0.2,1.1-0.4,1.8-0.6s1.5-0.3,2.4-0.3c1.7,0,3.1,0.3,4.4,0.9c1.3,0.6,2.2,1.5,3,2.7
				c0.7,1.2,1.1,2.6,1.1,4.2c0,1.5-0.4,2.9-1.1,4.2c-0.7,1.2-1.7,2.2-3.1,2.9c-1.4,0.7-3.1,1.1-5.1,1.1c-1.5,0-2.9-0.2-4.1-0.5
				c-1.2-0.3-2.1-0.8-2.7-1.3c-0.7-0.5-1-1.1-1-1.7c0-0.5,0.2-0.9,0.5-1.3c0.3-0.4,0.7-0.6,1-0.8c0.6,0.5,1.5,1.1,2.5,1.6
				s2.3,0.8,3.7,0.8c1.7,0,3-0.5,3.9-1.4s1.4-2.1,1.4-3.4c0-1.4-0.5-2.5-1.4-3.3s-2.1-1.2-3.7-1.2c-0.9,0-1.7,0.1-2.4,0.4
				s-1.4,0.6-2,0.9c-0.9-0.1-1.5-0.3-2.1-0.8c-0.5-0.5-0.8-1.1-0.8-1.9c0-0.2,0-0.4,0-0.6s0-0.5,0-0.8l0.6-7.2
				c0.1-0.7,0.3-1.3,0.7-1.7c0.4-0.4,0.9-0.6,1.7-0.6L752.4,495.5L752.4,495.5z M750.4,498.9v-3.4H762c0.1,0.2,0.2,0.4,0.3,0.7
				c0.1,0.3,0.1,0.6,0.1,1c0,0.6-0.1,1-0.4,1.3s-0.6,0.5-1.1,0.5h-10.5V498.9z"/>
		</g>
	</g>
</g>
<g id="Capa_5">
</g>
<g id="Capa_6" class="st4">
	<g class="st5">
		<g>
			<g>
				<path class="st0" d="M507.9,267.6c1.6,1.4,3,2.9,4.4,4.5c0.2,0.2,0.4,0.4,0.5,0.6c0.1,0.1,0.5,0.6,0.2,0.2
					c0.3,0.4,0.6,0.8,0.9,1.2c0.6,0.9,1.2,1.8,1.8,2.7c1.1,1.9,4,1.5,4.6-0.6c1.4-4.7,1.8-9.6,1.2-14.5c-0.2-1.3-1-2.6-2.5-2.5
					c-1.2,0.1-2.7,1.1-2.5,2.5c0.3,2.3,0.4,4.6,0.2,6.8c0,0.6-0.1,1.1-0.2,1.7c0.1-0.4-0.1,0.4-0.1,0.4c0,0.3-0.1,0.6-0.2,0.9
					c-0.2,1.1-0.5,2.3-0.8,3.4c1.5-0.2,3-0.4,4.6-0.6c-2.3-3.9-5.2-7.4-8.6-10.4c-1-0.9-2.6-1-3.5,0
					C507.1,265,506.9,266.6,507.9,267.6L507.9,267.6z"/>
			</g>
		</g>
	</g>
	<g class="st5">
		<g>
			<path class="st0" d="M521.4,308.7c-1.1,1.3-2.2,2.6-3.3,3.9c-0.2,0.2-0.4,0.5-0.5,0.8c-0.2,0.3-0.2,0.6-0.2,1
				c0,0.6,0.3,1.3,0.7,1.8c0.5,0.4,1.1,0.8,1.8,0.7c0.6,0,1.3-0.2,1.8-0.7c1.1-1.3,2.2-2.6,3.3-3.9c0.2-0.2,0.4-0.5,0.5-0.8
				c0.2-0.3,0.2-0.6,0.2-1c0-0.6-0.3-1.3-0.7-1.8c-0.5-0.4-1.1-0.8-1.8-0.7C522.5,308,521.8,308.2,521.4,308.7L521.4,308.7z"/>
		</g>
	</g>
	<g class="st5">
		<g>
			<path class="st0" d="M516.5,268.9c0.1,0,0.2,0.1,0.2,0.2c-0.2-0.1-0.3-0.3-0.5-0.4C516.4,268.7,516.5,268.8,516.5,268.9
				c-0.1-0.2-0.3-0.3-0.4-0.5c0.1,0.1,0.1,0.2,0.2,0.4c-0.1-0.2-0.2-0.4-0.3-0.6c0.1,0.1,0.1,0.3,0.1,0.5c0-0.2-0.1-0.4-0.1-0.7
				c0,0.2,0,0.4,0,0.6c0-0.2,0.1-0.4,0.1-0.7c0,0.2-0.1,0.3-0.1,0.5c0.1-0.2,0.2-0.4,0.3-0.6c-0.1,0.1-0.1,0.3-0.2,0.4
				c0.1-0.2,0.3-0.3,0.4-0.5c-0.1,0.1-0.2,0.2-0.2,0.2c0.2-0.1,0.3-0.3,0.5-0.4c-0.1,0.1-0.2,0.1-0.3,0.2c0.2-0.1,0.4-0.2,0.6-0.3
				c0,0,0,0-0.1,0c-0.3,0.1-0.6,0.2-0.9,0.4c-0.3,0.2-0.5,0.4-0.6,0.7c-0.2,0.3-0.3,0.6-0.3,0.9c-0.1,0.3-0.1,0.7,0,1
				c0.2,0.6,0.6,1.2,1.1,1.5c0.2,0.1,0.4,0.2,0.6,0.3c0.4,0.1,0.9,0.1,1.3,0c0.7-0.3,1-0.4,1.5-0.9c0.3-0.2,0.5-0.6,0.7-0.9
				c0.4-0.6,0.6-1.4,0.6-2.2c0-0.8-0.2-1.5-0.5-2.2c-0.2-0.3-0.4-0.6-0.7-0.9s-0.6-0.5-0.9-0.7c-0.3-0.2-0.6-0.3-0.9-0.3
				c-0.3-0.1-0.7-0.1-1,0s-0.6,0.2-0.9,0.4c-0.3,0.2-0.5,0.4-0.6,0.7c-0.3,0.6-0.5,1.3-0.3,1.9C515.6,268,516,268.6,516.5,268.9
				L516.5,268.9z"/>
		</g>
	</g>
	<g class="st5">
		<g>
			<g>
				<path class="st0" d="M519.5,266.8c0.1,1.6,0,3.2-0.2,4.8c0-0.2,0.1-0.4,0.1-0.7c0,0.3-0.1,0.7-0.2,1c-0.1,0.7-0.1,1.3,0.3,1.9
					c0.3,0.5,0.9,1,1.5,1.1s1.4,0.1,1.9-0.3c0.5-0.3,1-0.9,1.1-1.5c0.4-2.1,0.5-4.3,0.5-6.5c0-0.7-0.3-1.3-0.7-1.8
					c-0.4-0.4-1.1-0.8-1.8-0.7c-0.6,0-1.3,0.2-1.8,0.7C519.8,265.5,519.5,266.1,519.5,266.8L519.5,266.8z"/>
			</g>
		</g>
	</g>
	<g class="st5">
		<g>
			<g>
				<path class="st0" d="M512.4,292.4c-0.1-0.2-0.2-0.5-0.2-0.7c-0.1-0.3,0-0.1,0,0.1c0-0.1,0-0.3,0-0.4s0-0.3,0-0.4
					c0,0.2-0.1,0.4,0,0.1c0-0.1,0.1-0.3,0.1-0.4s0.2-0.6,0.1-0.3c-0.1,0.3,0-0.1,0.1-0.1c0.1-0.1,0.1-0.2,0.2-0.3
					c0-0.1,0.3-0.4,0.1-0.1s0.1-0.1,0.1-0.1c0.1-0.1,0.2-0.2,0.3-0.3c0.2-0.2-0.3,0.2,0,0c0.3-0.1,0.5-0.3,0.8-0.4
					c-1-0.1-2-0.3-3-0.4c0.1,0.1,0.6,0.8,0.4,0.5c0.2,0.3,0.4,0.6,0.6,0.8c0.4,0.6,0.8,1.1,1.2,1.7c0.8,1.1,1.5,2.3,2.1,3.5
					c0.7,1.2,1.3,2.4,1.8,3.7c0.1,0.2,0.1,0.3,0.2,0.5c-0.1-0.2-0.1-0.2,0,0.1c0.1,0.3,0.3,0.6,0.4,1c0.2,0.6,0.5,1.3,0.7,1.9
					c0.4,1.2,1.7,2.2,3.1,1.7c1.2-0.4,2.2-1.7,1.7-3.1c-2-5.8-5-11.2-8.8-16c-0.7-0.9-2.1-0.8-3-0.4c-3.2,1.5-5,5.7-3.7,9
					c0.5,1.2,1.7,2.2,3.1,1.7C511.8,295.1,512.9,293.7,512.4,292.4L512.4,292.4z"/>
			</g>
		</g>
	</g>
</g>
<g id="Capa_7">
</g>
<g id="Capa_8">
	<g>
		<g>
			<path class="st0" d="M895.7,643.3c2.5,4.1,6.3,7.2,10.8,8.8c1.4,0.5,2.6-0.6,3.1-1.7c0.2-0.4,0.3-0.8,0.5-1.2
				c0.1-0.2,0.2-0.4,0.4-0.9c0.4-0.8,0.8-1.7,1.2-2.5c0.8-1.6,1.6-3.2,2.6-4.7c0.7-1.1,0.3-2.8-0.9-3.4c-1.2-0.6-2.7-0.3-3.4,0.9
				c-2,3.4-3.7,6.9-5.1,10.5c1-0.6,2.1-1.2,3.1-1.7c-0.2-0.1-0.5-0.2-0.7-0.3s-0.1-0.1,0.1,0c-0.1-0.1-0.3-0.1-0.4-0.2
				c-0.4-0.2-0.8-0.4-1.2-0.6c-0.4-0.3-0.9-0.5-1.3-0.8c-0.2-0.1-0.4-0.3-0.5-0.4c-0.2-0.2-0.2-0.2,0,0c-0.1-0.1-0.2-0.1-0.3-0.2
				c-0.7-0.6-1.4-1.3-2-2c-0.2-0.2-0.3-0.4-0.5-0.6c0.3,0.3-0.1-0.1-0.1-0.2c-0.3-0.4-0.6-0.8-0.8-1.3c-0.7-1.1-2.3-1.6-3.4-0.9
				C895.4,640.6,894.9,642.1,895.7,643.3L895.7,643.3z"/>
		</g>
	</g>
	<g>
		<g>
			<path class="st0" d="M893.9,644.9c0,1.1,0.1,2.2,0.1,3.4c0,0.5,0.1,0.9,0.3,1.3c0.2,0.3,0.4,0.5,0.6,0.7c0.2,0.2,0.5,0.4,0.9,0.4
				c0.4,0.1,0.9,0.1,1.3,0c0.6-0.1,1.2-0.5,1.7-0.9l0.1-0.1c0.2-0.2,0.3-0.4,0.5-0.6l0.1-0.1c0.1-0.2,0.2-0.5,0.3-0.7
				c0.1-0.3,0.1-0.7,0.2-1c0-0.3,0-0.7-0.1-1c-0.1-0.6-0.5-1.2-0.9-1.7s-1.1-0.7-1.8-0.7c-0.3,0-0.7,0.1-1,0.2
				c-0.3,0.1-0.6,0.3-0.8,0.5c-0.4,0.5-0.8,1.1-0.7,1.8c0,0.7,0.3,1.3,0.7,1.8l0.1,0.1c-0.1-0.2-0.3-0.3-0.4-0.5
				c0.1,0.1,0.1,0.1,0.1,0.2c-0.1-0.2-0.2-0.4-0.3-0.6c0,0.1,0.1,0.2,0.1,0.3c0-0.2-0.1-0.4-0.1-0.7c0,0.1,0,0.2,0,0.3
				c0-0.2,0.1-0.4,0.1-0.7c0,0.1-0.1,0.2-0.1,0.4c0.1-0.2,0.2-0.4,0.3-0.6c0,0.1-0.1,0.2-0.2,0.3c0.1-0.2,0.3-0.3,0.4-0.5
				c-0.1,0.1-0.1,0.1-0.2,0.2c0.2-0.1,0.3-0.3,0.5-0.4c-0.1,0.1-0.1,0.1-0.2,0.1c0.2-0.1,0.4-0.2,0.6-0.3c-0.1,0-0.2,0.1-0.2,0.1
				c1.1,0.8,2.1,1.6,3.2,2.4c0-1.1-0.1-2.2-0.1-3.4c0-0.7-0.3-1.3-0.7-1.8c-0.2-0.2-0.5-0.4-0.8-0.5c-0.3-0.2-0.6-0.2-1-0.2
				c-0.6,0-1.3,0.2-1.8,0.7C894.2,643.6,893.9,644.2,893.9,644.9L893.9,644.9z"/>
		</g>
	</g>
	<g>
		<g>
			<path class="st0" d="M881.6,680.5c0.7-0.7,1.3-1.5,1.8-2.4c0.1-0.2,0.3-0.4,0.4-0.6c0.2-0.4-0.1,0.1,0.1-0.1
				c0.1-0.1,0.3-0.3,0.4-0.4c0.4-0.5-0.3,0.2,0.2-0.2c0.1,0,0.1-0.1,0.2-0.1c-0.2,0.1-0.2,0.1,0,0s0.5-0.1,0.1-0.1
				c0.1,0,0.8,0.1,0.3,0c0.2,0,0.4,0.1,0.6,0.2c0.2,0.1-0.2-0.1,0.2,0.1c0.2,0.1,0.4,0.2,0.7,0.4c0.1,0,0.5,0.4,0.4,0.3
				c-0.1,0,0.4,0.3,0.4,0.4c1.3,1.2,2.2,2.8,3.5,4c1.5,1.5,3.4,2.5,5.6,2.7c1.3,0.1,2.6-1.2,2.5-2.5c-0.1-1.4-1.1-2.4-2.5-2.5
				c-0.6,0,0.3,0.1-0.2,0c-0.1,0-0.7-0.3-0.2-0.1c-0.2-0.1-0.4-0.2-0.6-0.3c-0.1-0.1-0.6-0.4-0.2-0.2c-0.7-0.6-1.3-1.2-1.8-1.9
				c-1.4-1.6-2.6-3.3-4.5-4.4c-2.1-1.2-4.7-1.6-6.8-0.2c-1,0.6-1.7,1.5-2.4,2.5c-0.3,0.4-0.5,0.8-0.8,1.2c0,0-0.4,0.5-0.2,0.3
				c0.1-0.1,0.1-0.1-0.1,0.1c-0.1,0.1-0.2,0.2-0.3,0.3c-1,1-1,2.6,0,3.5C879,681.5,880.6,681.5,881.6,680.5L881.6,680.5z"/>
		</g>
	</g>
	<g>
		<g>
			<path class="st0" d="M892.5,677c5,3.7,10,7.4,14.9,11.1c1.1,0.8,2.8,0.2,3.4-0.9c0.7-1.3,0.2-2.6-0.9-3.4
				c-5-3.7-10-7.4-14.9-11.1c-1.1-0.8-2.8-0.2-3.4,0.9C890.9,674.9,891.3,676.2,892.5,677L892.5,677z"/>
		</g>
	</g>
</g>
<g>
	<g transform="translate(0.000000,1188.000000) scale(0.100000,-0.100000)">
		<path class="st6" d="M1236.6,9599.6l-4.4-11.2l0.9-18.7c1-20.6,1.1-33.9,0.3-28.9c-0.5,2.7-3.4,36.9-3.4,39.7
			c0,0.7-0.2,1.1-0.4,0.9c-0.2-0.2-20.2-42.7-44.5-94.5c-24.2-51.8-44.3-94.2-44.7-94.4c-0.3-0.1-20.4,19.3-44.5,43.2
			c-24.1,23.9-43.9,43.4-44,43.3c-0.2-0.1,0-24.2,0.3-53.5c0.7-73.1,0.7-73.4-0.2-73.8c-0.5-0.2-45.1,14.8-99.3,33.2
			c-54.2,18.4-98.6,33.3-98.8,33.1c-0.2-0.1,0.2-0.6,0.9-1.1c4.1-3.1,142.3-125.2,142.3-125.8c0-0.4-18.4-9.8-41.4-21.2
			c-22.8-11.3-41.8-20.8-42.3-21.1c-0.8-0.6,6.8-3.1,47.4-15.8c26.6-8.3,48.5-15.4,48.6-15.7c0.2-0.6-141.8-79.1-143.3-79.1
			c-1.2,0-31.3-14.8-30.6-15c0.3-0.1,47,1.1,103.8,2.7c113.8,3.2,113.9,3.2,114.2,2.2c0.1-0.4,1.1-22.2,2.2-48.5
			c1.7-41.2,1.9-48,1.2-48.9c-0.7-1-0.6-3.5,0.6-18.2c0.7-9.4,1.4-17.1,1.5-17.3c0.1-0.1,20.8,23.2,45.9,51.8
			c25.2,28.5,46.1,52,46.6,52c0.5,0,9.3-6.8,19.6-15.2c33.5-27.2,36.8-29.8,37-29.6c0.2,0.2-0.5,1.5-1.5,3c-3,4.5-8,14-8,14.9
			c0,0.8,0.1,0.8,1.1-0.1c0.6-0.5,1.2-0.8,1.4-0.7c0.2,0.1,2.7,5.4,5.7,11.7c5.3,11.1,7.2,14.4,6.4,11c-0.2-0.8-2.6-7.2-5.2-14
			l-4.9-12.4l2.9-6.2c1.6-3.4,2.9-6.6,2.9-7.1c0-1.2,1.1-1.7,1.8-0.8c0.2,0.4,4.9,10.6,10.3,22.5c6.8,15.2,10.1,21.8,10.7,21.8
			c0.5,0,25.5-13.6,55.6-30.3s54.9-30.3,55.2-30.3c0.3,0,0.4,1.3,0.2,2.8c-0.1,1.5-0.7,11.9-1.4,23.1c-0.7,11.2-1.4,23.9-1.7,28.2
			c-0.3,4.8-0.3,8,0,8.3c0.3,0.3,35.7-12.7,90.4-33.1c115.8-43.3,126.1-47.1,126.3-46.9c0.1,0.1-34.1,34-76.1,75.4
			c-41.9,41.3-76.3,75.5-76.4,76c-0.1,0.6,17,11.4,55.8,35.5c30.7,19.1,55.8,34.9,55.7,35.1c-0.1,0.2-3.1,0.9-6.6,1.6
			c-5.1,1-6.6,1.1-8,0.6c-1.4-0.5-7.8,0.3-40.2,4.9c-21.1,3-45.7,6.5-54.5,7.8c-8.9,1.3-16.4,2.6-16.8,2.9
			c-0.4,0.4,17.1,16.8,60.2,56.5l60.8,55.9l-7.7-0.4c-6.5-0.3-8-0.5-9.9-1.5c-1.8-1-7.5-2-28.7-5.2c-14.5-2.2-51.1-7.7-81.2-12.3
			c-30.1-4.5-55.3-8.3-56.1-8.3s-1.4,0.3-1.4,0.6c0,0.3,7.2,25.5,16,56c23.5,81.8,24.4,84.7,24.2,84.8c-0.1,0.1-2.7-1.7-5.9-4
			l-5.7-4.1l-3.7-10.1c-2-5.5-5.4-14.5-7.4-20c-2-5.4-11.8-31.5-21.6-57.9c-9.8-26.4-18-48.2-18.2-48.5c-0.4-0.6-2-0.7-2-0.1
			c0,0.2,4.9,13.6,11,29.7c6,16,17.2,45.6,24.8,65.7c7.6,20.1,13.6,36.6,13.5,36.7c-0.1,0.1-19.9-13.7-44-30.7
			c-24-17-44.1-31.1-44.7-31.4c-0.7-0.4-1.1-0.3-1.2,0.2c-0.2,0.7-0.9,7-4,40.8c-0.8,8.5-2,22.4-2.8,30.8
			c-0.8,8.4-2.2,23.5-3.1,33.6c-4.4,48.5-6.4,69.5-7.4,80.4c-0.6,6.6-1.1,12.4-1.1,13C1241.9,9612.3,1240.7,9610,1236.6,9599.6z
			 M1437,9210.5c-0.6-0.5-21.6-12-36.7-20.1c-9.1-4.9-10.7-5.6-10.7-4.6c0,0.3,9,5.2,20.1,10.9C1437,9211,1438.6,9211.8,1437,9210.5
			z M1386.5,9183.2c-0.3-0.4-15.9-8.9-16.4-8.9c-0.2,0-0.3,0.3-0.3,0.7c0,0.8,15.8,9.4,16.6,8.9
			C1386.6,9183.8,1386.7,9183.5,1386.5,9183.2z M1378.8,9168.4c0.7-0.4,1.6-1.3,2-2c0.3-0.7,32.4-30.3,71.2-65.8
			c38.8-35.5,70.6-64.7,70.6-64.9c0-0.6-1-0.5-2.7,0.3c-0.9,0.4-12.5,10.9-26,23.4c-13.4,12.4-45.4,42-71.1,65.8
			c-25.7,23.7-46.8,43.3-46.8,43.5C1376,9169.3,1377.2,9169.2,1378.8,9168.4z M1146,9126.7c7-7.1,10.4-10.9,9.7-10.9
			c-0.6,0-15.6,14.3-15.9,15.2c-0.1,0.3,0.2,0.5,0.6,0.5C1140.8,9131.5,1143.4,9129.3,1146,9126.7z"/>
	</g>
</g>
<g>
	<g transform="translate(0.000000,1188.000000) scale(0.100000,-0.100000)">
		<path class="st6" d="M6284.9,9179.2l-4.4-11.2l0.9-18.7c1-20.6,1.1-33.9,0.3-28.9c-0.5,2.7-3.4,36.9-3.4,39.7
			c0,0.7-0.2,1.1-0.4,0.9c-0.2-0.2-20.2-42.7-44.5-94.5c-24.2-51.8-44.3-94.2-44.7-94.4c-0.3-0.1-20.4,19.3-44.5,43.2
			s-43.9,43.4-44,43.3c-0.2-0.1,0-24.2,0.3-53.5c0.7-73.1,0.7-73.4-0.2-73.8c-0.5-0.2-45.1,14.8-99.3,33.2
			c-54.2,18.4-98.6,33.3-98.8,33.1c-0.2-0.1,0.2-0.6,0.9-1.1c4.1-3.1,142.3-125.2,142.3-125.8c0-0.4-18.4-9.8-41.4-21.2
			c-22.8-11.3-41.8-20.8-42.3-21.1c-0.8-0.6,6.8-3.1,47.4-15.8c26.6-8.3,48.5-15.4,48.6-15.7c0.2-0.6-141.8-79.1-143.3-79.1
			c-1.2,0-31.3-14.8-30.6-15c0.3-0.1,47,1.1,103.8,2.7c113.8,3.2,113.9,3.2,114.2,2.2c0.1-0.4,1.1-22.2,2.2-48.5
			c1.7-41.2,1.9-48,1.2-48.9c-0.7-1-0.6-3.5,0.6-18.2c0.7-9.4,1.4-17.1,1.5-17.2s20.8,23.2,45.9,51.8c25.2,28.5,46.1,52,46.6,52
			c0.5,0,9.3-6.8,19.6-15.2c33.5-27.2,36.8-29.8,37-29.6c0.2,0.2-0.5,1.5-1.5,3c-3,4.5-8,14-8,14.9c0,0.8,0.1,0.8,1.1-0.1
			c0.6-0.5,1.2-0.8,1.4-0.7c0.2,0.1,2.7,5.4,5.7,11.7c5.3,11.1,7.2,14.4,6.4,11c-0.2-0.8-2.6-7.2-5.2-14l-4.9-12.4l2.9-6.2
			c1.6-3.4,2.9-6.6,2.9-7.1c0-1.2,1.1-1.7,1.8-0.8c0.2,0.4,4.9,10.6,10.3,22.5c6.8,15.2,10.1,21.8,10.7,21.8
			c0.5,0,25.5-13.6,55.6-30.3c30.1-16.7,54.9-30.3,55.2-30.3c0.3,0,0.4,1.3,0.2,2.8c-0.1,1.5-0.7,11.9-1.4,23.1
			c-0.7,11.2-1.4,23.9-1.7,28.2c-0.3,4.8-0.3,8,0,8.3s35.7-12.7,90.4-33.1c115.8-43.3,126.1-47.1,126.3-46.9
			c0.1,0.1-34.1,34-76.1,75.4c-41.9,41.3-76.3,75.5-76.4,76c-0.1,0.6,17,11.4,55.8,35.5c30.7,19.1,55.8,34.9,55.7,35.1
			c-0.1,0.2-3.1,0.9-6.6,1.6c-5.1,1-6.6,1.1-8,0.6c-1.4-0.5-7.8,0.3-40.2,4.9c-21.1,3-45.7,6.5-54.5,7.8c-8.9,1.3-16.4,2.6-16.8,2.9
			c-0.4,0.4,17.1,16.8,60.2,56.5l60.8,55.9l-7.7-0.4c-6.5-0.3-8-0.5-9.9-1.5c-1.8-1-7.5-2-28.7-5.2c-14.5-2.2-51.1-7.7-81.2-12.3
			c-30.1-4.5-55.3-8.3-56.1-8.3c-0.7,0-1.4,0.3-1.4,0.6c0,0.3,7.2,25.5,16,56c23.5,81.8,24.4,84.7,24.2,84.8c-0.1,0.1-2.7-1.7-5.9-4
			l-5.7-4.1l-3.7-10.1c-2-5.5-5.4-14.5-7.4-20c-2-5.4-11.8-31.5-21.6-57.9c-9.8-26.4-18-48.2-18.2-48.5c-0.4-0.6-2-0.7-2-0.1
			c0,0.2,4.9,13.6,11,29.7c6,16,17.2,45.6,24.8,65.7c7.6,20.1,13.6,36.6,13.5,36.7c-0.1,0.1-19.9-13.7-44-30.7
			c-24-17-44.1-31.1-44.7-31.4c-0.7-0.4-1.1-0.3-1.2,0.2c-0.2,0.7-0.9,7-4,40.8c-0.8,8.5-2,22.4-2.8,30.8
			c-0.8,8.4-2.2,23.5-3.1,33.6c-4.4,48.5-6.4,69.5-7.4,80.4c-0.6,6.6-1.1,12.4-1.1,13C6290.2,9192,6289,9189.6,6284.9,9179.2z
			 M6485.4,8790.1c-0.6-0.5-21.6-12-36.7-20.1c-9.1-4.9-10.7-5.6-10.7-4.6c0,0.3,9,5.2,20.1,10.9
			C6485.4,8790.7,6486.9,8791.4,6485.4,8790.1z M6434.8,8762.9c-0.3-0.4-15.9-8.9-16.4-8.9c-0.2,0-0.3,0.3-0.3,0.7
			c0,0.8,15.8,9.4,16.6,8.9C6434.9,8763.4,6435,8763.1,6434.8,8762.9z M6427.1,8748c0.7-0.4,1.6-1.3,2-2
			c0.3-0.7,32.4-30.3,71.2-65.8c38.8-35.5,70.6-64.7,70.6-64.9c0-0.6-1-0.5-2.7,0.3c-0.9,0.4-12.5,10.9-26,23.4
			c-13.4,12.4-45.4,42-71.1,65.8c-25.7,23.7-46.8,43.3-46.8,43.5C6424.3,8748.9,6425.6,8748.8,6427.1,8748z M6194.3,8706.3
			c7-7.1,10.4-10.9,9.7-10.9c-0.6,0-15.6,14.3-15.9,15.2c-0.1,0.3,0.2,0.5,0.6,0.5C6189.1,8711.1,6191.7,8708.9,6194.3,8706.3z"/>
	</g>
</g>
<g>
	<g transform="translate(0.000000,1188.000000) scale(0.100000,-0.100000)">
		<path class="st6" d="M3254.2,5937.6l-4.4-11.2l0.9-18.7c1-20.6,1.1-33.9,0.3-28.9c-0.5,2.7-3.4,36.9-3.4,39.7
			c0,0.7-0.2,1.1-0.4,0.9s-20.2-42.7-44.5-94.5c-24.2-51.8-44.3-94.2-44.7-94.4c-0.3-0.1-20.4,19.3-44.5,43.2
			c-24.1,23.9-43.9,43.4-44,43.3c-0.2-0.1,0-24.2,0.3-53.5c0.7-73.1,0.7-73.4-0.2-73.8c-0.5-0.2-45.1,14.8-99.3,33.2
			c-54.2,18.4-98.6,33.3-98.8,33.1c-0.2-0.1,0.2-0.6,0.9-1.1c4.1-3.1,142.3-125.2,142.3-125.8c0-0.4-18.4-9.8-41.4-21.2
			c-22.8-11.3-41.8-20.8-42.3-21.1c-0.8-0.6,6.8-3.1,47.4-15.8c26.6-8.3,48.5-15.4,48.6-15.7c0.2-0.6-141.8-79.1-143.3-79.1
			c-1.2,0-31.3-14.8-30.6-15c0.3-0.1,47,1.1,103.8,2.7c113.8,3.2,113.9,3.2,114.2,2.2c0.1-0.4,1.1-22.2,2.2-48.5
			c1.7-41.2,1.9-48,1.2-48.9c-0.7-1-0.6-3.5,0.6-18.2c0.7-9.4,1.4-17.1,1.5-17.2c0.1-0.1,20.8,23.2,45.9,51.8
			c25.2,28.5,46.1,52,46.6,52c0.5,0,9.3-6.8,19.6-15.2c33.5-27.2,36.8-29.8,37-29.6c0.2,0.2-0.5,1.5-1.5,3c-3,4.5-8,14-8,14.9
			c0,0.8,0.1,0.8,1.1-0.1c0.6-0.5,1.2-0.8,1.4-0.7c0.2,0.1,2.7,5.4,5.7,11.7c5.3,11.1,7.2,14.4,6.4,11c-0.2-0.8-2.6-7.2-5.2-14
			l-4.9-12.4l2.9-6.2c1.6-3.4,2.9-6.6,2.9-7.1c0-1.1,1.1-1.7,1.8-0.8c0.2,0.4,4.9,10.6,10.3,22.5c6.8,15.2,10.1,21.9,10.7,21.9
			c0.5,0,25.5-13.6,55.6-30.3c30.1-16.7,54.9-30.3,55.2-30.3c0.3,0,0.4,1.3,0.2,2.8c-0.1,1.5-0.7,11.9-1.4,23.1
			c-0.7,11.2-1.4,23.9-1.7,28.2c-0.3,4.8-0.3,8,0,8.3c0.3,0.3,35.7-12.7,90.4-33.1c115.8-43.3,126.1-47.1,126.3-46.9
			c0.1,0.1-34.1,34-76.1,75.4c-41.9,41.3-76.3,75.5-76.4,76c-0.1,0.6,17,11.4,55.8,35.5c30.7,19.1,55.8,34.9,55.7,35.1
			c-0.1,0.2-3.1,0.9-6.6,1.6c-5.1,1-6.6,1.1-8,0.6c-1.4-0.5-7.8,0.3-40.2,4.9c-21.1,3-45.7,6.5-54.5,7.8s-16.4,2.6-16.8,2.9
			c-0.4,0.4,17.1,16.8,60.2,56.5l60.8,55.9l-7.7-0.4c-6.5-0.3-8-0.5-9.9-1.5c-1.8-1-7.5-2-28.7-5.2c-14.5-2.2-51.1-7.7-81.2-12.3
			c-30.1-4.5-55.3-8.3-56.1-8.3c-0.7,0-1.4,0.3-1.4,0.6c0,0.3,7.2,25.5,16,56c23.5,81.8,24.4,84.7,24.2,84.8c-0.1,0.1-2.7-1.7-5.9-4
			l-5.7-4.1l-3.7-10.1c-2-5.5-5.4-14.5-7.4-20c-2-5.4-11.8-31.5-21.6-57.9c-9.8-26.4-18-48.2-18.2-48.5c-0.4-0.6-2-0.7-2-0.1
			c0,0.2,4.9,13.6,11,29.7c6,16,17.2,45.6,24.8,65.7s13.6,36.6,13.5,36.7c-0.1,0.1-19.9-13.7-44-30.7c-24-17-44.1-31.1-44.7-31.4
			c-0.7-0.4-1.1-0.3-1.2,0.2c-0.2,0.7-0.9,7-4,40.8c-0.8,8.5-2,22.4-2.8,30.8c-0.8,8.4-2.2,23.5-3.1,33.6
			c-4.4,48.5-6.4,69.5-7.4,80.4c-0.6,6.6-1.1,12.4-1.1,13C3259.5,5950.4,3258.3,5948,3254.2,5937.6z M3454.6,5548.5
			c-0.6-0.5-21.6-12-36.7-20.1c-9.1-4.9-10.7-5.6-10.7-4.6c0,0.3,9,5.2,20.1,10.9C3454.6,5549.1,3456.2,5549.8,3454.6,5548.5z
			 M3404.1,5521.3c-0.3-0.4-15.9-8.9-16.4-8.9c-0.2,0-0.3,0.3-0.3,0.7c0,0.8,15.8,9.4,16.6,8.9
			C3404.2,5521.8,3404.2,5521.5,3404.1,5521.3z M3396.4,5506.4c0.7-0.4,1.6-1.3,2-2c0.3-0.7,32.4-30.3,71.2-65.8
			c38.8-35.5,70.6-64.7,70.6-64.9c0-0.6-1-0.5-2.7,0.3c-0.9,0.4-12.5,10.9-26,23.4c-13.4,12.4-45.4,42-71.1,65.8
			c-25.7,23.7-46.8,43.3-46.8,43.5C3393.6,5507.4,3394.8,5507.2,3396.4,5506.4z M3163.6,5464.7c7-7.1,10.4-10.9,9.7-10.9
			c-0.6,0-15.6,14.3-15.9,15.2c-0.1,0.3,0.2,0.5,0.6,0.5C3158.4,5469.5,3160.9,5467.3,3163.6,5464.7z"/>
	</g>
</g>
</svg>
