<?xml version="1.0" encoding="utf-8"?>
<!-- Generator: Adobe Illustrator 26.0.0, SVG Export Plug-In . SVG Version: 6.00 Build 0)  -->
<svg version="1.1" id="Capa_1" xmlns="http://www.w3.org/2000/svg" xmlns:xlink="http://www.w3.org/1999/xlink" x="0px" y="0px"
	 viewBox="0 0 1218.9 793.7" style="enable-background:new 0 0 1218.9 793.7;" xml:space="preserve">
<style type="text/css">
	.st0{fill:#EE7275;}
	.st1{fill:none;stroke:#000000;stroke-width:6;stroke-miterlimit:10;}
	.st2{fill:none;stroke:#D41116;stroke-width:6;stroke-miterlimit:10;}
	.st3{fill:none;stroke:#D41116;stroke-width:6;stroke-miterlimit:10;stroke-dasharray:12.0687,12.0687;}
	.st4{fill:#A21C18;}
	.st5{font-family:'MyriadPro-Regular';}
	.st6{font-size:14.7545px;}
</style>
<image style="overflow:visible;enable-background:new    ;" width="5079" height="3307" xlink:href="../../../Documentos/Taller 3/sdasdasd.jpg"  transform="matrix(0.2414 0 0 0.2413 -2.6057 -4.1886)">
</image>
<path class="st0" d="M192.8,130.1H33.2c-6.6,0-12-5.4-12-12V26.9c0-6.6,5.4-12,12-12h159.6c6.6,0,12,5.4,12,12v91.2
	C204.8,124.7,199.4,130.1,192.8,130.1z"/>
<line class="st1" x1="145" y1="37.9" x2="194" y2="37.9"/>
<g>
	<g>
		<line class="st2" x1="97.5" y1="69.6" x2="103.5" y2="69.6"/>
		<line class="st3" x1="115.6" y1="69.7" x2="182" y2="70"/>
		<line class="st2" x1="188" y1="70" x2="194" y2="70.1"/>
	</g>
</g>
<g>
	<path class="st4" d="M178.4,87.3c-7,0-12.7,5.7-12.7,12.7c0,6.8,11.6,22.6,12.1,23.2l0.5,0.6c0.1,0.1,0.1,0.1,0.2,0.1
		c0.1,0,0.2,0,0.2-0.1l0.5-0.6c0.5-0.7,12.1-16.5,12.1-23.2C191.1,93,185.4,87.3,178.4,87.3z M178.4,95.4c2.5,0,4.6,2,4.6,4.6
		c0,2.5-2,4.6-4.6,4.6c-2.5,0-4.6-2-4.6-4.6C173.8,97.5,175.9,95.4,178.4,95.4z"/>
</g>
<g id="Capa_2_00000119090133240828653560000005753810327803956612_">
</g>
<text transform="matrix(1 0 0 1 34.1772 42.0359)"><tspan x="0" y="0" class="st5 st6">PLAN DE RUTA</tspan><tspan x="0" y="35.4" class="st5 st6">DESVÍO</tspan><tspan x="0" y="70.8" class="st5 st6">ACCIDENTE</tspan></text>
</svg>
