<?xml version="1.0" encoding="utf-8"?>
<!-- Generator: Adobe Illustrator 26.0.0, SVG Export Plug-In . SVG Version: 6.00 Build 0)  -->
<svg version="1.1" xmlns="http://www.w3.org/2000/svg" xmlns:xlink="http://www.w3.org/1999/xlink" x="0px" y="0px"
	 viewBox="0 0 1218.9 793.7" style="enable-background:new 0 0 1218.9 793.7;" xml:space="preserve">
<style type="text/css">
	.st0{fill:#F9F8F7;}
	.st1{fill:#91181E;}
	.st2{fill:#A11B23;}
	.st3{fill:#E94748;}
	.st4{fill:#81171A;}
	.st5{fill:#E83D40;}
	.st6{fill:#B12127;}
	.st7{fill:#681414;}
	.st8{fill:#5B110F;}
	.st9{fill:none;stroke:#020203;}
	.st10{enable-background:new    ;}
	.st11{fill:#020203;}
	.st12{fill:#7C7C7C;}
	.st13{font-family:'Arial-BoldMT';}
	.st14{font-size:15.7143px;}
	.st15{font-family:'ArialMT';}
	.st16{font-size:13.0952px;}
	.st17{fill:#FFFFFF;}
	.st18{fill:#FDE9E9;}
</style>
<g id="Capa_2">
	<rect x="-31.3" y="-12.2" class="st0" width="1270.8" height="822.4"/>
</g>
<g id="Capa_1">
	
		<rect id="backgorund_00000019659303363553765370000015095437296750826938_" x="63.4" y="0.1" class="st0" width="1054.2" height="785.7"/>
	<g id="viz_00000011023193628727064890000007354431635147866545_">
		<g transform="translate(0,0)">
			<g transform="translate(50,20)">
				<g>
					
						<rect id="undefined_-_agosto_10_x2C__1968_00000008144699871608349070000010111271038608886442_" x="80.2" y="169.3" class="st1" width="106.9" height="570.4"/>
					
						<rect id="undefined_-_octubre_25_x2C__1968_00000083767950022811766110000013259488376686422924_" x="188.4" y="218.2" class="st2" width="106.9" height="521.5"/>
					
						<rect id="undefined_-_noviembre_19_x2C__1969_00000025401794489330024750000000903150579120702865_" x="296.7" y="511.5" class="st3" width="106.9" height="228.1"/>
					
						<rect id="undefined_-_marzo_14_x2C__1970_00000125590682800829967230000008382797770384496039_" x="404.9" y="120.4" class="st4" width="106.9" height="619.3"/>
					
						<rect id="undefined_-_marzo_3_x2C__1972_00000038410464713655234010000017483892819239575208_" x="513.2" y="462.6" class="st5" width="106.9" height="277"/>
					
						<rect id="undefined_-_octubre_13_x2C__1972_00000021116853075137805670000015165154807154258358_" x="621.5" y="267.1" class="st6" width="106.9" height="472.6"/>
					
						<rect id="undefined_-_julio_23_x2C__1973_00000051347647289988336370000012707227732653948582_" x="729.7" y="120.4" class="st4" width="106.9" height="619.3"/>
					
						<rect id="undefined_-_junio_24_x2C__1980_00000033345340454164448080000003262896667608299681_" x="838" y="38.9" class="st7" width="106.9" height="700.7"/>
					
						<rect id="undefined_-_junio_12_x2C__1988_00000006676455563851152990000014785221747005083529_" x="946.2" y="26.8" class="st8" width="106.9" height="712.9"/>
				</g>
				<g id="xAxis_00000048497382191044007050000016237990391827111570_" transform="translate(0,560)">
					<path class="st9" d="M79.5,180.3h975.6"/>
					<g transform="translate(41.832737563300526,0)">
						<line class="st9" x1="91.8" y1="179.7" x2="91.8" y2="187.5"/>
						<g>
							<g class="st10">
								<path class="st11" d="M48.8,193.9L48.8,193.9c-0.2,0.3-0.3,0.7-0.5,1.2s-0.3,0.9-0.5,1.4c-0.2,0.5-0.3,0.9-0.5,1.4l-0.1,0.5
									c-0.1,0.2-0.1,0.4-0.2,0.6c-0.1,0.2-0.1,0.4-0.2,0.7c-0.1,0.2-0.1,0.4-0.2,0.6c-0.1,0.2-0.1,0.4-0.2,0.5
									c-0.1,0-0.2,0.1-0.2,0.1s-0.2,0-0.3,0c-0.2,0-0.4,0-0.5-0.1s-0.2-0.2-0.2-0.4c0-0.1,0-0.2,0-0.3c0-0.1,0.1-0.2,0.1-0.3
									c0.1-0.3,0.2-0.7,0.4-1.1c0.1-0.4,0.3-0.9,0.5-1.4c0.2-0.5,0.4-1,0.6-1.5s0.4-1,0.6-1.5c0.2-0.5,0.3-0.9,0.5-1.3
									c0.1,0,0.2-0.1,0.4-0.1c0.2,0,0.4-0.1,0.6-0.1c0.2,0,0.5,0,0.7,0.1s0.3,0.2,0.4,0.3c0.2,0.5,0.4,1,0.6,1.7s0.4,1.3,0.7,2
									s0.5,1.3,0.7,2c0.2,0.6,0.4,1.2,0.6,1.8c-0.1,0.1-0.2,0.2-0.3,0.2c-0.1,0.1-0.3,0.1-0.4,0.1c-0.2,0-0.4,0-0.5-0.1
									c-0.1-0.1-0.2-0.2-0.3-0.4l-0.6-1.9l-0.1-0.6c-0.1-0.5-0.3-1-0.5-1.5s-0.3-0.9-0.5-1.3C49.1,194.5,48.9,194.2,48.8,193.9z
									 M46.7,198.7l0.5-1.1h3.5l0.2,1.1H46.7z"/>
								<path class="st11" d="M56.2,200.5c-0.5,0-1-0.1-1.4-0.3s-0.8-0.5-1-1c-0.3-0.4-0.4-1-0.4-1.8c0-0.7,0.1-1.2,0.4-1.7
									c0.3-0.5,0.6-0.8,1.1-1c0.5-0.2,1-0.3,1.6-0.3c0.4,0,0.8,0.1,1.2,0.2c0.4,0.1,0.6,0.2,0.9,0.4c0.1,0.1,0.3,0.2,0.3,0.3
									c0.1,0.1,0.1,0.3,0.1,0.4v4.1h-1.3v-4c-0.1-0.1-0.3-0.2-0.5-0.2c-0.2-0.1-0.4-0.1-0.7-0.1c-0.5,0-1,0.2-1.3,0.5
									c-0.3,0.3-0.5,0.8-0.5,1.5c0,0.7,0.2,1.2,0.5,1.5c0.3,0.3,0.7,0.4,1.2,0.4c0.4,0,0.6-0.1,0.9-0.2c0.2-0.1,0.4-0.3,0.5-0.4
									l0.1,1.1c-0.1,0.1-0.4,0.2-0.6,0.4C56.9,200.5,56.6,200.5,56.2,200.5z M57.7,200.8v-1.3H59v1.4c0,0.6-0.1,1.1-0.4,1.4
									c-0.3,0.4-0.6,0.6-1.1,0.8c-0.5,0.2-1,0.2-1.5,0.2c-0.4,0-0.8,0-1.2-0.1c-0.3-0.1-0.6-0.2-0.7-0.3c-0.3-0.2-0.4-0.4-0.4-0.6
									c0-0.1,0-0.3,0.1-0.4c0.1-0.1,0.1-0.2,0.2-0.2c0.2,0.1,0.5,0.3,0.8,0.4c0.3,0.1,0.7,0.2,1.1,0.2c0.6,0,1-0.1,1.3-0.3
									C57.5,201.7,57.7,201.3,57.7,200.8z"/>
								<path class="st11" d="M66.6,197.7c0,0.7-0.1,1.2-0.4,1.7c-0.3,0.5-0.6,0.9-1.1,1.1c-0.5,0.3-1,0.4-1.6,0.4
									c-0.6,0-1.2-0.1-1.6-0.4c-0.5-0.3-0.8-0.6-1.1-1.1c-0.3-0.5-0.4-1.1-0.4-1.7c0-0.7,0.1-1.2,0.4-1.7c0.3-0.5,0.6-0.9,1.1-1.1
									c0.5-0.3,1-0.4,1.6-0.4c0.6,0,1.1,0.1,1.6,0.4c0.5,0.3,0.8,0.6,1.1,1.1S66.6,197,66.6,197.7z M63.5,195.5
									c-0.5,0-0.9,0.2-1.3,0.6c-0.3,0.4-0.5,0.9-0.5,1.6c0,0.7,0.2,1.2,0.5,1.6c0.3,0.4,0.7,0.6,1.3,0.6c0.5,0,1-0.2,1.3-0.6
									c0.3-0.4,0.5-0.9,0.5-1.6c0-0.7-0.2-1.2-0.5-1.6C64.5,195.7,64.1,195.5,63.5,195.5z"/>
								<path class="st11" d="M72.6,199c0,0.6-0.2,1-0.6,1.4c-0.4,0.3-1.1,0.5-1.9,0.5c-0.7,0-1.2-0.1-1.7-0.3s-0.7-0.5-0.7-0.8
									c0-0.1,0-0.3,0.1-0.4c0.1-0.1,0.2-0.2,0.3-0.3c0.2,0.2,0.5,0.3,0.8,0.4c0.3,0.1,0.7,0.2,1.1,0.2c0.8,0,1.2-0.3,1.2-0.8
									c0-0.2-0.1-0.4-0.2-0.5c-0.1-0.1-0.4-0.2-0.6-0.3l-0.9-0.2c-0.6-0.1-1-0.4-1.3-0.6s-0.4-0.7-0.4-1.1c0-0.5,0.2-0.9,0.6-1.3
									c0.4-0.3,1-0.5,1.8-0.5c0.4,0,0.8,0,1.1,0.1c0.3,0.1,0.6,0.2,0.7,0.3c0.2,0.1,0.3,0.3,0.3,0.5c0,0.1,0,0.3-0.1,0.4
									c-0.1,0.1-0.1,0.2-0.2,0.2c-0.1-0.1-0.2-0.1-0.4-0.2c-0.2-0.1-0.4-0.1-0.6-0.2c-0.2-0.1-0.5-0.1-0.7-0.1
									c-0.4,0-0.7,0.1-0.9,0.2c-0.2,0.1-0.3,0.3-0.3,0.5c0,0.2,0.1,0.3,0.2,0.4c0.1,0.1,0.3,0.2,0.6,0.3l0.8,0.2
									c0.7,0.1,1.1,0.4,1.4,0.7C72.5,198.1,72.6,198.6,72.6,199z"/>
								<path class="st11" d="M75.5,197.6h-1.3v-4.7c0.1,0,0.1,0,0.3-0.1c0.1,0,0.2,0,0.4,0c0.2,0,0.4,0,0.5,0.1
									c0.1,0.1,0.2,0.3,0.2,0.5V197.6z M74.1,197.3h1.3v1.7c0,0.3,0.1,0.5,0.3,0.7c0.2,0.1,0.4,0.2,0.8,0.2c0.1,0,0.3,0,0.5-0.1
									c0.2,0,0.3-0.1,0.4-0.2c0.1,0.1,0.1,0.1,0.2,0.2c0,0.1,0.1,0.2,0.1,0.3c0,0.2-0.1,0.4-0.3,0.6c-0.2,0.1-0.6,0.2-1,0.2
									c-0.7,0-1.2-0.1-1.6-0.4c-0.4-0.3-0.6-0.8-0.6-1.4V197.3z M74.9,195.8v-1.1h2.6c0,0.1,0.1,0.1,0.1,0.2c0,0.1,0,0.2,0,0.3
									c0,0.2,0,0.3-0.1,0.4s-0.2,0.1-0.3,0.1H74.9z"/>
								<path class="st11" d="M84.9,197.7c0,0.7-0.1,1.2-0.4,1.7c-0.3,0.5-0.6,0.9-1.1,1.1c-0.5,0.3-1,0.4-1.6,0.4
									c-0.6,0-1.2-0.1-1.6-0.4c-0.5-0.3-0.8-0.6-1.1-1.1c-0.3-0.5-0.4-1.1-0.4-1.7c0-0.7,0.1-1.2,0.4-1.7c0.3-0.5,0.6-0.9,1.1-1.1
									c0.5-0.3,1-0.4,1.6-0.4c0.6,0,1.1,0.1,1.6,0.4c0.5,0.3,0.8,0.6,1.1,1.1S84.9,197,84.9,197.7z M81.8,195.5
									c-0.5,0-0.9,0.2-1.3,0.6c-0.3,0.4-0.5,0.9-0.5,1.6c0,0.7,0.2,1.2,0.5,1.6c0.3,0.4,0.7,0.6,1.3,0.6c0.5,0,1-0.2,1.3-0.6
									c0.3-0.4,0.5-0.9,0.5-1.6c0-0.7-0.2-1.2-0.5-1.6C82.8,195.7,82.4,195.5,81.8,195.5z"/>
								<path class="st11" d="M91.7,198.1h-1.4v-4l-1.6,0.7c-0.1-0.1-0.2-0.1-0.3-0.2c-0.1-0.1-0.1-0.2-0.1-0.4
									c0-0.3,0.2-0.6,0.6-0.7l1.7-0.7h0.3c0.2,0,0.4,0.1,0.5,0.2s0.2,0.3,0.2,0.5V198.1z M90.3,197.3h1.4v3.5
									c-0.1,0-0.1,0-0.3,0.1c-0.1,0-0.2,0-0.4,0c-0.2,0-0.4,0-0.5-0.1c-0.1-0.1-0.2-0.3-0.2-0.5V197.3z"/>
								<path class="st11" d="M96.8,200.9c-0.6,0-1.2-0.2-1.7-0.5c-0.5-0.3-0.9-0.8-1.1-1.4c-0.3-0.6-0.4-1.4-0.4-2.3
									c0-1,0.1-1.8,0.4-2.4c0.3-0.6,0.7-1.1,1.2-1.3c0.5-0.3,1-0.4,1.6-0.4s1.1,0.1,1.6,0.4c0.5,0.3,0.9,0.7,1.2,1.4
									s0.4,1.4,0.4,2.4c0,0.9-0.1,1.7-0.4,2.3c-0.3,0.6-0.7,1.1-1.1,1.4C98,200.8,97.4,200.9,96.8,200.9z M98.6,196.8
									c0-0.7-0.1-1.3-0.2-1.7c-0.2-0.5-0.4-0.8-0.7-1c-0.3-0.2-0.6-0.3-0.9-0.3c-0.3,0-0.7,0.1-0.9,0.3c-0.3,0.2-0.5,0.5-0.7,1
									c-0.2,0.5-0.2,1-0.2,1.7c0,1,0.2,1.7,0.5,2.3c0.3,0.5,0.8,0.8,1.3,0.8c0.6,0,1-0.3,1.4-0.8
									C98.4,198.5,98.6,197.7,98.6,196.8z"/>
								<path class="st11" d="M101.8,201.9c-0.2,0.3-0.4,0.4-0.7,0.4c-0.2,0-0.4-0.1-0.6-0.2c0.1-0.3,0.2-0.5,0.3-0.9
									c0.1-0.3,0.2-0.7,0.3-1s0.2-0.6,0.2-0.9c0.1,0,0.2-0.1,0.3-0.1c0.1,0,0.2,0,0.4,0c0.2,0,0.3,0,0.5,0.1
									c0.1,0.1,0.2,0.2,0.2,0.4c0,0.2,0,0.4-0.1,0.7c-0.1,0.3-0.2,0.6-0.3,0.8C102,201.6,101.9,201.8,101.8,201.9z"/>
								<path class="st11" d="M109,198.1h-1.4v-4l-1.6,0.7c-0.1-0.1-0.2-0.1-0.3-0.2c-0.1-0.1-0.1-0.2-0.1-0.4
									c0-0.3,0.2-0.6,0.6-0.7l1.7-0.7h0.3c0.2,0,0.4,0.1,0.5,0.2s0.2,0.3,0.2,0.5V198.1z M107.7,197.3h1.4v3.5
									c-0.1,0-0.1,0-0.3,0.1c-0.1,0-0.2,0-0.4,0c-0.2,0-0.4,0-0.5-0.1c-0.1-0.1-0.2-0.3-0.2-0.5V197.3z"/>
								<path class="st11" d="M111.3,200c0-0.1,0-0.2,0.1-0.4c0.1-0.1,0.1-0.2,0.2-0.3c0.2,0.1,0.4,0.2,0.7,0.3
									c0.3,0.1,0.6,0.1,0.9,0.1c0.4,0,0.8-0.1,1.2-0.3c0.3-0.2,0.6-0.5,0.8-0.9c0.2-0.4,0.3-0.9,0.3-1.5c-0.1,0.1-0.2,0.2-0.4,0.3
									c-0.2,0.1-0.4,0.2-0.6,0.3c-0.2,0.1-0.5,0.1-0.9,0.1c-0.5,0-1-0.1-1.4-0.3c-0.4-0.2-0.8-0.5-1-0.8c-0.3-0.4-0.4-0.9-0.4-1.5
									c0-0.5,0.1-1,0.4-1.4c0.2-0.4,0.6-0.7,1-0.9c0.4-0.2,0.9-0.3,1.5-0.3c0.6,0,1.2,0.1,1.6,0.4c0.5,0.3,0.8,0.7,1.1,1.3
									c0.3,0.6,0.4,1.3,0.4,2.2c0,1-0.2,1.9-0.5,2.5c-0.3,0.6-0.7,1.1-1.3,1.4c-0.5,0.3-1.2,0.5-1.9,0.5c-0.6,0-1-0.1-1.4-0.2
									C111.5,200.5,111.3,200.3,111.3,200z M113.9,196.8c0.4,0,0.7-0.1,1-0.3c0.3-0.2,0.5-0.4,0.6-0.6l0,0.1
									c0-0.7-0.2-1.2-0.5-1.6c-0.3-0.4-0.7-0.6-1.3-0.6c-0.4,0-0.8,0.1-1.1,0.4c-0.3,0.3-0.4,0.7-0.4,1.1c0,0.5,0.2,0.9,0.5,1.2
									C113,196.7,113.4,196.8,113.9,196.8z"/>
								<path class="st11" d="M123.6,193.5c0,0.1,0,0.2-0.1,0.4c-0.1,0.1-0.1,0.2-0.2,0.2c-0.2-0.1-0.4-0.2-0.7-0.2
									c-0.2-0.1-0.5-0.1-0.8-0.1c-0.6,0-1.2,0.2-1.6,0.6c-0.4,0.4-0.7,1.1-0.7,2c0.2-0.2,0.4-0.3,0.8-0.5c0.3-0.2,0.8-0.3,1.2-0.3
									c0.8,0,1.4,0.2,1.9,0.7s0.7,1.1,0.7,2c0,0.5-0.1,1-0.3,1.4c-0.2,0.4-0.6,0.7-1,0.9s-0.9,0.3-1.5,0.3c-0.6,0-1.2-0.1-1.6-0.4
									c-0.5-0.3-0.8-0.7-1.1-1.3c-0.3-0.6-0.4-1.3-0.4-2.2c0-0.8,0.1-1.5,0.3-2c0.2-0.6,0.5-1,0.8-1.4c0.3-0.3,0.7-0.6,1.1-0.8
									c0.4-0.2,0.9-0.2,1.3-0.2c0.3,0,0.7,0,0.9,0.1c0.3,0.1,0.5,0.2,0.7,0.3C123.5,193.1,123.6,193.3,123.6,193.5z M121.3,199.8
									c0.5,0,0.8-0.1,1.1-0.4c0.3-0.3,0.4-0.7,0.4-1.2c0-0.5-0.1-0.9-0.4-1.1s-0.6-0.4-1.1-0.4c-0.4,0-0.8,0.1-1.1,0.3
									s-0.5,0.4-0.7,0.6l0,0c0,0.7,0.2,1.2,0.5,1.6C120.3,199.6,120.7,199.8,121.3,199.8z"/>
								<path class="st11" d="M127.5,196.4l0.8-0.2c0.6-0.1,1-0.3,1.3-0.5c0.3-0.2,0.4-0.5,0.4-0.9c0-0.4-0.1-0.7-0.4-0.9
									c-0.3-0.2-0.6-0.3-1.1-0.3c-0.5,0-0.8,0.1-1.1,0.3c-0.3,0.2-0.4,0.5-0.4,0.9c0,0.3,0.1,0.5,0.2,0.7s0.4,0.3,0.6,0.4
									c0.3,0.1,0.6,0.2,0.9,0.2l0.8,0.3c0.3,0.1,0.7,0.2,1,0.4c0.3,0.2,0.6,0.4,0.8,0.7c0.2,0.3,0.3,0.7,0.3,1.1
									c0,0.5-0.1,0.9-0.4,1.2c-0.3,0.3-0.6,0.6-1.1,0.8c-0.5,0.2-1,0.3-1.6,0.3c-0.6,0-1.1-0.1-1.6-0.3c-0.5-0.2-0.8-0.4-1.1-0.8
									c-0.3-0.3-0.4-0.8-0.4-1.3c0-0.4,0.1-0.8,0.3-1.1c0.2-0.3,0.5-0.5,0.8-0.7C126.8,196.6,127.1,196.5,127.5,196.4z
									 M129.5,196.7l-1,0.3c-0.6,0.1-1,0.3-1.3,0.5c-0.3,0.3-0.5,0.6-0.5,1c0,0.4,0.2,0.7,0.5,0.9c0.3,0.2,0.7,0.3,1.2,0.3
									c0.5,0,0.9-0.1,1.2-0.3c0.3-0.2,0.5-0.5,0.5-1c0-0.5-0.2-0.8-0.6-1.1c-0.4-0.3-0.9-0.4-1.6-0.5l-0.6-0.2
									c-0.5-0.1-0.9-0.4-1.2-0.7c-0.3-0.3-0.5-0.7-0.5-1.2c0-0.5,0.1-0.8,0.4-1.2c0.2-0.3,0.6-0.6,1-0.8c0.4-0.2,0.9-0.3,1.5-0.3
									c0.9,0,1.6,0.2,2.1,0.6s0.8,0.9,0.8,1.6c0,0.5-0.2,1-0.5,1.3S130,196.6,129.5,196.7z"/>
							</g>
						</g>
					</g>
					<g transform="translate(124.49955317247539,0)">
						<line class="st9" x1="117.4" y1="179.7" x2="117.4" y2="187.5"/>
						<g>
							<g class="st10">
								<path class="st11" d="M76.8,196.8c0,0.9-0.2,1.7-0.5,2.3c-0.3,0.6-0.8,1.1-1.4,1.4c-0.6,0.3-1.3,0.5-2,0.5
									c-0.8,0-1.4-0.2-2-0.5c-0.6-0.3-1.1-0.8-1.4-1.4c-0.3-0.6-0.5-1.4-0.5-2.3c0-0.9,0.2-1.7,0.5-2.3s0.8-1.1,1.4-1.4
									c0.6-0.3,1.3-0.5,2-0.5c0.8,0,1.4,0.2,2,0.5c0.6,0.3,1.1,0.8,1.4,1.4C76.6,195.1,76.8,195.9,76.8,196.8z M75.1,196.8
									c0-0.9-0.2-1.6-0.6-2.1c-0.4-0.5-1-0.7-1.7-0.7c-0.7,0-1.2,0.2-1.6,0.7s-0.6,1.2-0.6,2.1c0,0.9,0.2,1.6,0.6,2.1
									c0.4,0.5,1,0.7,1.6,0.7c0.7,0,1.2-0.2,1.6-0.7C74.9,198.4,75.1,197.7,75.1,196.8z"/>
								<path class="st11" d="M81.4,195.7c-0.5,0-1,0.2-1.3,0.5s-0.5,0.8-0.5,1.5c0,0.6,0.2,1.1,0.5,1.5c0.3,0.3,0.8,0.5,1.3,0.5
									c0.3,0,0.6,0,0.8-0.1s0.4-0.2,0.6-0.3c0.1,0.1,0.2,0.2,0.3,0.3c0.1,0.1,0.1,0.2,0.1,0.4c0,0.3-0.2,0.5-0.5,0.7
									c-0.4,0.2-0.8,0.3-1.4,0.3c-0.7,0-1.2-0.1-1.7-0.4s-0.9-0.6-1.2-1.1c-0.3-0.5-0.4-1.1-0.4-1.8c0-0.7,0.2-1.4,0.5-1.8
									s0.7-0.9,1.2-1.1c0.5-0.2,1.1-0.4,1.7-0.4c0.6,0,1,0.1,1.4,0.3c0.3,0.2,0.5,0.5,0.5,0.7c0,0.1,0,0.3-0.1,0.4
									s-0.2,0.2-0.2,0.3c-0.2-0.1-0.4-0.2-0.6-0.3C82,195.7,81.7,195.7,81.4,195.7z"/>
								<path class="st11" d="M86.2,197.6h-1.6v-4.7c0.1,0,0.2-0.1,0.3-0.1s0.3,0,0.4,0c0.3,0,0.5,0.1,0.7,0.2
									c0.1,0.1,0.2,0.3,0.2,0.6V197.6z M84.6,197.3h1.6v1.5c0,0.3,0.1,0.5,0.3,0.6c0.2,0.1,0.4,0.2,0.7,0.2c0.1,0,0.3,0,0.5-0.1
									c0.2,0,0.3-0.1,0.4-0.1c0.1,0.1,0.1,0.2,0.2,0.2c0.1,0.1,0.1,0.2,0.1,0.4c0,0.3-0.1,0.5-0.4,0.6c-0.2,0.2-0.6,0.2-1.1,0.2
									c-0.7,0-1.2-0.2-1.6-0.5c-0.4-0.3-0.6-0.8-0.6-1.5V197.3z M85.5,195.9v-1.3h2.6c0,0.1,0.1,0.1,0.1,0.3
									c0,0.1,0.1,0.2,0.1,0.4c0,0.2-0.1,0.4-0.2,0.5c-0.1,0.1-0.2,0.2-0.4,0.2H85.5z"/>
								<path class="st11" d="M91.2,198h-1.6v-3.4c0.1,0,0.2,0,0.3-0.1c0.1,0,0.3,0,0.4,0c0.3,0,0.5,0.1,0.7,0.2
									c0.1,0.1,0.2,0.3,0.2,0.6V198z M89.6,198.4v-1h1.6v1c0,0.5,0.1,0.8,0.4,1c0.2,0.2,0.6,0.3,1,0.3c0.3,0,0.5,0,0.7-0.1
									c0.2-0.1,0.3-0.1,0.4-0.2v-2.1h1.6v2.2c0,0.2,0,0.4-0.1,0.5c-0.1,0.1-0.2,0.3-0.4,0.4c-0.3,0.1-0.6,0.3-1,0.4
									c-0.4,0.1-0.8,0.2-1.3,0.2c-0.6,0-1.1-0.1-1.6-0.3c-0.4-0.2-0.8-0.5-1-0.8C89.7,199.4,89.6,199,89.6,198.4z M95.3,198h-1.6
									v-3.4c0.1,0,0.2,0,0.3-0.1c0.1,0,0.3,0,0.4,0c0.3,0,0.5,0.1,0.7,0.2c0.1,0.1,0.2,0.3,0.2,0.6V198z"/>
								<path class="st11" d="M98.6,195.6H97v-3.3c0.1,0,0.2,0,0.3-0.1s0.3,0,0.4,0c0.3,0,0.5,0.1,0.7,0.2c0.1,0.1,0.2,0.3,0.2,0.6
									V195.6z M100.1,194.4c0.6,0,1.1,0.1,1.5,0.4c0.4,0.2,0.8,0.6,1.1,1.1s0.4,1.1,0.4,1.8c0,0.7-0.1,1.3-0.4,1.8
									c-0.3,0.5-0.7,0.9-1.2,1.1c-0.5,0.2-1.1,0.4-1.7,0.4c-0.5,0-0.9-0.1-1.3-0.2c-0.4-0.1-0.7-0.3-0.9-0.4
									c-0.2-0.1-0.3-0.3-0.4-0.4c-0.1-0.1-0.1-0.3-0.1-0.5v-4.2h1.6v4.1c0.1,0.1,0.3,0.2,0.5,0.2s0.4,0.1,0.7,0.1
									c0.5,0,0.9-0.2,1.2-0.5s0.5-0.8,0.5-1.5c0-0.7-0.1-1.2-0.4-1.5c-0.3-0.3-0.7-0.5-1.2-0.5c-0.3,0-0.6,0.1-0.8,0.2
									c-0.2,0.1-0.4,0.2-0.6,0.4l-0.1-1.3c0.2-0.1,0.5-0.2,0.8-0.4C99.3,194.4,99.7,194.4,100.1,194.4z"/>
								<path class="st11" d="M106,196v1.8h-1.6v-1.9c0-0.2,0.1-0.4,0.2-0.6c0.1-0.2,0.3-0.3,0.4-0.4c0.3-0.2,0.6-0.3,1-0.4
									c0.4-0.1,0.8-0.2,1.3-0.2c0.8,0,1.2,0.3,1.2,0.8c0,0.1,0,0.2-0.1,0.3c0,0.1-0.1,0.2-0.1,0.3c-0.1,0-0.2,0-0.3,0
									c-0.1,0-0.3,0-0.4,0c-0.3,0-0.6,0-0.9,0.1S106.2,195.9,106,196z M104.4,197.3l1.6,0.1v3.4c-0.1,0-0.2,0.1-0.3,0.1
									c-0.1,0-0.3,0-0.4,0c-0.3,0-0.5-0.1-0.7-0.2s-0.2-0.3-0.2-0.6V197.3z"/>
								<path class="st11" d="M110.3,198.5l-0.1-1.1l3.5-0.5c0-0.3-0.2-0.6-0.4-0.9s-0.6-0.4-1-0.4c-0.4,0-0.8,0.2-1.1,0.5
									c-0.3,0.3-0.4,0.8-0.5,1.3l0,0.7c0.1,0.6,0.3,1,0.6,1.2c0.4,0.3,0.8,0.4,1.3,0.4c0.4,0,0.7-0.1,1-0.2
									c0.3-0.1,0.6-0.2,0.7-0.4c0.1,0.1,0.2,0.2,0.3,0.3c0.1,0.1,0.1,0.2,0.1,0.4c0,0.2-0.1,0.4-0.3,0.6c-0.2,0.2-0.5,0.3-0.8,0.4
									c-0.3,0.1-0.7,0.1-1.2,0.1c-0.7,0-1.3-0.1-1.8-0.4c-0.5-0.2-0.9-0.6-1.2-1.1s-0.4-1.1-0.4-1.9c0-0.5,0.1-1,0.2-1.4
									s0.4-0.7,0.7-1c0.3-0.3,0.6-0.5,1-0.6c0.4-0.1,0.8-0.2,1.2-0.2c0.6,0,1.1,0.1,1.5,0.3s0.8,0.6,1,1c0.2,0.4,0.4,0.9,0.4,1.4
									c0,0.2-0.1,0.4-0.2,0.5c-0.1,0.1-0.3,0.2-0.5,0.2L110.3,198.5z"/>
								<path class="st11" d="M119.1,193.8c0-0.2,0.1-0.4,0.3-0.6s0.5-0.3,0.8-0.4c0.3-0.1,0.7-0.1,1.2-0.1c0.6,0,1.1,0.1,1.6,0.3
									c0.4,0.2,0.8,0.5,1,0.8s0.3,0.8,0.3,1.2c0,0.5-0.1,0.9-0.4,1.4c-0.3,0.4-0.7,0.9-1.3,1.4l-1.9,1.7h3.5
									c0,0.1,0.1,0.1,0.1,0.3c0,0.1,0.1,0.2,0.1,0.4c0,0.2-0.1,0.4-0.2,0.5c-0.1,0.1-0.2,0.2-0.4,0.2h-4.6
									c-0.1-0.1-0.2-0.2-0.3-0.4s-0.1-0.3-0.1-0.5c0-0.2,0-0.4,0.1-0.6c0.1-0.2,0.2-0.3,0.3-0.4l2.1-1.9c0.5-0.4,0.9-0.8,1-1.1
									c0.2-0.3,0.3-0.6,0.3-0.9c0-0.3-0.1-0.6-0.4-0.8c-0.2-0.2-0.6-0.3-1.1-0.3c-0.4,0-0.7,0.1-1,0.2c-0.3,0.1-0.5,0.2-0.7,0.4
									c-0.1-0.1-0.2-0.2-0.3-0.3C119.2,194.1,119.1,193.9,119.1,193.8z"/>
								<path class="st11" d="M128,192.8l-0.3,1l-0.2,2.1c0.1-0.1,0.3-0.1,0.6-0.2c0.2-0.1,0.5-0.1,0.8-0.1c0.6,0,1.1,0.1,1.5,0.3
									c0.4,0.2,0.7,0.5,0.9,0.9c0.2,0.4,0.3,0.8,0.3,1.4c0,0.5-0.1,0.9-0.3,1.4c-0.2,0.4-0.6,0.7-1,1c-0.5,0.2-1,0.4-1.7,0.4
									c-0.5,0-1-0.1-1.4-0.2s-0.7-0.3-0.9-0.4c-0.2-0.2-0.3-0.4-0.3-0.6c0-0.2,0.1-0.4,0.2-0.5s0.2-0.2,0.4-0.3
									c0.2,0.2,0.5,0.3,0.8,0.5c0.3,0.2,0.7,0.2,1.2,0.2c0.5,0,0.9-0.1,1.2-0.4s0.4-0.6,0.4-1c0-0.4-0.1-0.7-0.4-1
									c-0.3-0.2-0.6-0.4-1.1-0.4c-0.3,0-0.5,0-0.7,0.1s-0.4,0.2-0.6,0.3c-0.3,0-0.6-0.1-0.8-0.3c-0.2-0.2-0.3-0.4-0.3-0.7
									c0-0.1,0-0.1,0-0.2s0-0.2,0-0.3l0.2-2.2c0-0.3,0.1-0.5,0.3-0.7c0.1-0.2,0.4-0.2,0.6-0.2H128z M127.3,194.1v-1.3h3.7
									c0,0.1,0.1,0.1,0.1,0.3c0,0.1,0.1,0.2,0.1,0.4c0,0.2-0.1,0.4-0.2,0.5c-0.1,0.1-0.2,0.2-0.4,0.2H127.3z"/>
								<path class="st11" d="M133.5,201.8c-0.2,0.3-0.5,0.4-0.8,0.4c-0.3,0-0.5-0.1-0.7-0.3c0.1-0.3,0.2-0.6,0.3-0.9
									c0.1-0.3,0.2-0.7,0.3-1s0.2-0.6,0.2-0.9c0.1-0.1,0.2-0.1,0.4-0.1c0.1,0,0.3-0.1,0.4-0.1c0.2,0,0.4,0,0.5,0.1
									c0.1,0.1,0.2,0.3,0.2,0.5c0,0.2,0,0.5-0.1,0.8c-0.1,0.3-0.2,0.6-0.3,0.9C133.7,201.5,133.6,201.7,133.5,201.8z"/>
								<path class="st11" d="M141,198.4h-1.6v-4.1l-1.5,0.6c-0.1-0.1-0.2-0.2-0.3-0.3c-0.1-0.1-0.2-0.3-0.2-0.5
									c0-0.4,0.2-0.7,0.7-0.8l1.7-0.7h0.4c0.3,0,0.5,0.1,0.6,0.2c0.2,0.2,0.2,0.4,0.2,0.7V198.4z M139.3,197.3h1.6v3.5
									c-0.1,0-0.2,0-0.3,0.1c-0.1,0-0.3,0-0.4,0c-0.3,0-0.5-0.1-0.7-0.2s-0.2-0.3-0.2-0.6V197.3z"/>
								<path class="st11" d="M143.1,199.9c0-0.1,0-0.3,0.1-0.4c0.1-0.1,0.2-0.2,0.2-0.3c0.2,0.1,0.4,0.2,0.7,0.3
									c0.3,0.1,0.5,0.1,0.8,0.1c0.4,0,0.8-0.1,1.1-0.2c0.3-0.2,0.6-0.4,0.8-0.8c0.2-0.3,0.3-0.8,0.3-1.3c-0.1,0.1-0.2,0.2-0.4,0.3
									c-0.2,0.1-0.4,0.2-0.6,0.2c-0.2,0.1-0.5,0.1-0.8,0.1c-0.5,0-1-0.1-1.4-0.3s-0.7-0.5-1-0.9c-0.2-0.4-0.4-0.9-0.4-1.5
									c0-0.5,0.1-1,0.4-1.4c0.2-0.4,0.6-0.7,1-1c0.4-0.2,1-0.3,1.6-0.3c0.6,0,1.2,0.1,1.7,0.4c0.5,0.3,0.8,0.7,1.1,1.3
									c0.3,0.6,0.4,1.3,0.4,2.2c0,1-0.2,1.9-0.5,2.5c-0.3,0.6-0.7,1.1-1.3,1.4c-0.5,0.3-1.2,0.5-1.9,0.5c-0.6,0-1.1-0.1-1.5-0.2
									C143.3,200.5,143.1,200.3,143.1,199.9z M145.7,196.6c0.3,0,0.6-0.1,0.9-0.2c0.3-0.1,0.4-0.3,0.6-0.5h0
									c0-0.6-0.1-1.1-0.4-1.5c-0.3-0.3-0.6-0.5-1.2-0.5c-0.4,0-0.7,0.1-0.9,0.4c-0.2,0.2-0.4,0.6-0.4,1c0,0.5,0.1,0.8,0.4,1
									C144.9,196.5,145.3,196.6,145.7,196.6z"/>
								<path class="st11" d="M155.5,193.6c0,0.1,0,0.3-0.1,0.4s-0.2,0.2-0.3,0.3c-0.2-0.1-0.4-0.2-0.7-0.2
									c-0.2-0.1-0.5-0.1-0.8-0.1c-0.6,0-1.1,0.2-1.5,0.6c-0.4,0.4-0.6,1-0.7,1.8c0.2-0.1,0.4-0.3,0.8-0.4c0.3-0.1,0.7-0.2,1.1-0.2
									c0.8,0,1.4,0.2,1.9,0.7c0.5,0.5,0.7,1.1,0.7,2c0,0.5-0.1,1-0.3,1.4c-0.2,0.4-0.6,0.7-1,1c-0.4,0.2-1,0.3-1.6,0.3
									s-1.2-0.1-1.7-0.4c-0.5-0.3-0.9-0.7-1.1-1.3c-0.3-0.6-0.4-1.3-0.4-2.2c0-0.8,0.1-1.4,0.3-2c0.2-0.6,0.4-1,0.8-1.4
									c0.3-0.3,0.7-0.6,1.1-0.8c0.4-0.2,0.9-0.2,1.4-0.2c0.4,0,0.7,0,1,0.1c0.3,0.1,0.5,0.2,0.7,0.3
									C155.4,193.2,155.5,193.4,155.5,193.6z M153.1,199.6c0.4,0,0.7-0.1,1-0.4c0.2-0.3,0.4-0.6,0.4-1c0-0.4-0.1-0.8-0.4-1
									c-0.2-0.2-0.6-0.3-0.9-0.3c-0.3,0-0.6,0.1-0.9,0.2s-0.5,0.3-0.7,0.5l0,0.1c0,0.6,0.1,1.1,0.4,1.4
									C152.3,199.5,152.7,199.6,153.1,199.6z"/>
								<path class="st11" d="M159.3,196.4l0.8-0.2c0.5-0.1,0.9-0.3,1.2-0.5c0.3-0.2,0.4-0.5,0.4-0.8c0-0.3-0.1-0.6-0.4-0.8
									s-0.6-0.3-1-0.3c-0.4,0-0.7,0.1-0.9,0.3c-0.2,0.2-0.4,0.4-0.4,0.8c0,0.3,0.1,0.5,0.2,0.6c0.1,0.2,0.3,0.3,0.6,0.4
									c0.2,0.1,0.5,0.2,0.8,0.2l0.9,0.3c0.3,0.1,0.6,0.2,0.9,0.4s0.5,0.4,0.7,0.7c0.2,0.3,0.3,0.7,0.3,1.1c0,0.5-0.1,0.9-0.4,1.3
									c-0.3,0.3-0.6,0.6-1.1,0.8c-0.5,0.2-1,0.3-1.6,0.3c-0.6,0-1.2-0.1-1.6-0.3c-0.5-0.2-0.8-0.5-1.1-0.8
									c-0.3-0.3-0.4-0.8-0.4-1.3c0-0.4,0.1-0.8,0.3-1.1c0.2-0.3,0.5-0.6,0.8-0.7S158.9,196.4,159.3,196.4z M161.6,196.7l-1,0.3
									c-0.5,0.1-1,0.2-1.3,0.5c-0.3,0.3-0.4,0.6-0.4,1c0,0.4,0.1,0.7,0.4,0.9c0.3,0.2,0.6,0.3,1.1,0.3c0.5,0,0.8-0.1,1.1-0.3
									c0.3-0.2,0.4-0.5,0.4-0.9c0-0.4-0.2-0.8-0.6-1c-0.4-0.3-0.9-0.4-1.5-0.4l-0.6-0.3c-0.5-0.1-1-0.4-1.3-0.7
									c-0.3-0.3-0.5-0.7-0.5-1.2c0-0.5,0.1-0.9,0.4-1.2c0.2-0.3,0.6-0.6,1-0.8c0.4-0.2,0.9-0.3,1.5-0.3c0.9,0,1.6,0.2,2.1,0.6
									c0.5,0.4,0.8,0.9,0.8,1.6c0,0.5-0.2,1-0.5,1.3C162.4,196.4,162,196.6,161.6,196.7z"/>
							</g>
						</g>
					</g>
					<g transform="translate(207.16636878165025,0)">
						<line class="st9" x1="143" y1="179.7" x2="143" y2="187.5"/>
						<g>
							<g class="st10">
								<path class="st11" d="M114,198.9v1.6c-0.1,0.1-0.2,0.1-0.4,0.2c-0.2,0.1-0.3,0.1-0.5,0.1c-0.2,0-0.4,0-0.6-0.1
									c-0.2-0.1-0.3-0.3-0.5-0.5l-2.2-3.8c-0.1-0.2-0.3-0.5-0.4-0.7c-0.1-0.3-0.3-0.5-0.4-0.7c-0.1-0.2-0.2-0.4-0.3-0.6l-1.3,0.3
									V193c0.1-0.1,0.2-0.2,0.4-0.2c0.2-0.1,0.3-0.1,0.5-0.1c0.2,0,0.4,0,0.6,0.1c0.2,0.1,0.3,0.3,0.5,0.5l2.2,3.8
									c0.1,0.2,0.3,0.5,0.4,0.7c0.1,0.3,0.3,0.5,0.4,0.7c0.1,0.2,0.2,0.4,0.3,0.6L114,198.9z M107.4,194.1l1.2-0.1
									c0,0.3,0.1,0.6,0.1,1c0,0.4,0,0.7,0.1,1.1c0,0.4,0,0.7,0,1.1v3.5c-0.1,0-0.1,0-0.3,0.1c-0.1,0-0.2,0-0.4,0
									c-0.3,0-0.4,0-0.6-0.1c-0.1-0.1-0.2-0.3-0.2-0.5V194.1z M114,199.4l-1.2,0.1c-0.1-0.7-0.1-1.4-0.1-2.1s0-1.4,0-2v-2.5
									c0.1,0,0.1,0,0.3-0.1c0.1,0,0.2,0,0.4,0c0.3,0,0.4,0,0.6,0.1c0.1,0.1,0.2,0.3,0.2,0.5V199.4z"/>
								<path class="st11" d="M121.8,197.7c0,0.7-0.1,1.2-0.4,1.7c-0.3,0.5-0.6,0.9-1.1,1.1c-0.5,0.3-1,0.4-1.6,0.4
									c-0.6,0-1.2-0.1-1.6-0.4c-0.5-0.3-0.8-0.6-1.1-1.1c-0.3-0.5-0.4-1.1-0.4-1.7c0-0.7,0.1-1.2,0.4-1.7c0.3-0.5,0.6-0.9,1.1-1.1
									c0.5-0.3,1-0.4,1.6-0.4c0.6,0,1.1,0.1,1.6,0.4c0.5,0.3,0.8,0.6,1.1,1.1S121.8,197,121.8,197.7z M118.7,195.5
									c-0.5,0-0.9,0.2-1.3,0.6c-0.3,0.4-0.5,0.9-0.5,1.6c0,0.7,0.2,1.2,0.5,1.6c0.3,0.4,0.7,0.6,1.3,0.6c0.5,0,1-0.2,1.3-0.6
									c0.3-0.4,0.5-0.9,0.5-1.6c0-0.7-0.2-1.2-0.5-1.6C119.7,195.7,119.3,195.5,118.7,195.5z"/>
								<path class="st11" d="M128,194.5c0.2,0,0.3,0,0.5,0.1c0.1,0.1,0.2,0.2,0.2,0.4c0,0.1,0,0.3-0.1,0.7
									c-0.1,0.3-0.2,0.7-0.4,1.1c-0.2,0.4-0.3,0.9-0.5,1.4c-0.2,0.5-0.4,0.9-0.6,1.3c-0.2,0.4-0.4,0.8-0.5,1.1
									c-0.1,0.1-0.2,0.1-0.3,0.1s-0.3,0.1-0.5,0.1c-0.2,0-0.4,0-0.5-0.1s-0.3-0.1-0.3-0.3c-0.1-0.2-0.2-0.4-0.4-0.8
									s-0.3-0.7-0.5-1.1c-0.2-0.4-0.3-0.9-0.5-1.3c-0.2-0.5-0.3-0.9-0.5-1.3s-0.3-0.8-0.4-1.1c0.1-0.1,0.2-0.2,0.3-0.2
									c0.1-0.1,0.3-0.1,0.4-0.1c0.2,0,0.3,0,0.5,0.1c0.1,0.1,0.2,0.2,0.3,0.5l0.7,2.3c0.1,0.2,0.2,0.5,0.3,0.7
									c0.1,0.3,0.2,0.6,0.3,0.8s0.2,0.5,0.2,0.7h0.1c0.3-0.8,0.6-1.7,0.9-2.5c0.3-0.8,0.5-1.7,0.7-2.5
									C127.5,194.5,127.7,194.5,128,194.5z"/>
								<path class="st11" d="M135.2,198.1h-1.4v-4l-1.6,0.7c-0.1-0.1-0.2-0.1-0.3-0.2c-0.1-0.1-0.1-0.2-0.1-0.4
									c0-0.3,0.2-0.6,0.6-0.7l1.7-0.7h0.3c0.2,0,0.4,0.1,0.5,0.2s0.2,0.3,0.2,0.5V198.1z M133.9,197.3h1.4v3.5
									c-0.1,0-0.1,0-0.3,0.1c-0.1,0-0.2,0-0.4,0c-0.2,0-0.4,0-0.5-0.1c-0.1-0.1-0.2-0.3-0.2-0.5V197.3z"/>
								<path class="st11" d="M137.5,200c0-0.1,0-0.2,0.1-0.4c0.1-0.1,0.1-0.2,0.2-0.3c0.2,0.1,0.4,0.2,0.7,0.3
									c0.3,0.1,0.6,0.1,0.9,0.1c0.4,0,0.8-0.1,1.2-0.3c0.3-0.2,0.6-0.5,0.8-0.9c0.2-0.4,0.3-0.9,0.3-1.5c-0.1,0.1-0.2,0.2-0.4,0.3
									c-0.2,0.1-0.4,0.2-0.6,0.3c-0.2,0.1-0.5,0.1-0.9,0.1c-0.5,0-1-0.1-1.4-0.3c-0.4-0.2-0.8-0.5-1-0.8c-0.3-0.4-0.4-0.9-0.4-1.5
									c0-0.5,0.1-1,0.4-1.4c0.2-0.4,0.6-0.7,1-0.9c0.4-0.2,0.9-0.3,1.5-0.3c0.6,0,1.2,0.1,1.6,0.4c0.5,0.3,0.8,0.7,1.1,1.3
									c0.3,0.6,0.4,1.3,0.4,2.2c0,1-0.2,1.9-0.5,2.5c-0.3,0.6-0.7,1.1-1.3,1.4c-0.5,0.3-1.2,0.5-1.9,0.5c-0.6,0-1-0.1-1.4-0.2
									C137.7,200.5,137.5,200.3,137.5,200z M140.1,196.8c0.4,0,0.7-0.1,1-0.3c0.3-0.2,0.5-0.4,0.6-0.6l0,0.1
									c0-0.7-0.2-1.2-0.5-1.6c-0.3-0.4-0.7-0.6-1.3-0.6c-0.4,0-0.8,0.1-1.1,0.4c-0.3,0.3-0.4,0.7-0.4,1.1c0,0.5,0.2,0.9,0.5,1.2
									C139.2,196.7,139.6,196.8,140.1,196.8z"/>
								<path class="st11" d="M144.9,201.9c-0.2,0.3-0.4,0.4-0.7,0.4c-0.2,0-0.4-0.1-0.6-0.2c0.1-0.3,0.2-0.5,0.3-0.9
									c0.1-0.3,0.2-0.7,0.3-1s0.2-0.6,0.2-0.9c0.1,0,0.2-0.1,0.3-0.1c0.1,0,0.2,0,0.4,0c0.2,0,0.3,0,0.5,0.1
									c0.1,0.1,0.2,0.2,0.2,0.4c0,0.2,0,0.4-0.1,0.7c-0.1,0.3-0.2,0.6-0.3,0.8C145.1,201.6,145,201.8,144.9,201.9z"/>
								<path class="st11" d="M152.1,198.1h-1.4v-4l-1.6,0.7c-0.1-0.1-0.2-0.1-0.3-0.2c-0.1-0.1-0.1-0.2-0.1-0.4
									c0-0.3,0.2-0.6,0.6-0.7l1.7-0.7h0.3c0.2,0,0.4,0.1,0.5,0.2s0.2,0.3,0.2,0.5V198.1z M150.7,197.3h1.4v3.5
									c-0.1,0-0.1,0-0.3,0.1c-0.1,0-0.2,0-0.4,0c-0.2,0-0.4,0-0.5-0.1c-0.1-0.1-0.2-0.3-0.2-0.5V197.3z"/>
								<path class="st11" d="M154.4,200c0-0.1,0-0.2,0.1-0.4c0.1-0.1,0.1-0.2,0.2-0.3c0.2,0.1,0.4,0.2,0.7,0.3
									c0.3,0.1,0.6,0.1,0.9,0.1c0.4,0,0.8-0.1,1.2-0.3c0.3-0.2,0.6-0.5,0.8-0.9c0.2-0.4,0.3-0.9,0.3-1.5c-0.1,0.1-0.2,0.2-0.4,0.3
									c-0.2,0.1-0.4,0.2-0.6,0.3c-0.2,0.1-0.5,0.1-0.9,0.1c-0.5,0-1-0.1-1.4-0.3c-0.4-0.2-0.8-0.5-1-0.8c-0.3-0.4-0.4-0.9-0.4-1.5
									c0-0.5,0.1-1,0.4-1.4c0.2-0.4,0.6-0.7,1-0.9c0.4-0.2,0.9-0.3,1.5-0.3c0.6,0,1.2,0.1,1.6,0.4c0.5,0.3,0.8,0.7,1.1,1.3
									c0.3,0.6,0.4,1.3,0.4,2.2c0,1-0.2,1.9-0.5,2.5c-0.3,0.6-0.7,1.1-1.3,1.4c-0.5,0.3-1.2,0.5-1.9,0.5c-0.6,0-1-0.1-1.4-0.2
									C154.6,200.5,154.4,200.3,154.4,200z M156.9,196.8c0.4,0,0.7-0.1,1-0.3c0.3-0.2,0.5-0.4,0.6-0.6l0,0.1
									c0-0.7-0.2-1.2-0.5-1.6c-0.3-0.4-0.7-0.6-1.3-0.6c-0.4,0-0.8,0.1-1.1,0.4c-0.3,0.3-0.4,0.7-0.4,1.1c0,0.5,0.2,0.9,0.5,1.2
									C156.1,196.7,156.5,196.8,156.9,196.8z"/>
								<path class="st11" d="M166.6,193.5c0,0.1,0,0.2-0.1,0.4c-0.1,0.1-0.1,0.2-0.2,0.2c-0.2-0.1-0.4-0.2-0.7-0.2
									c-0.2-0.1-0.5-0.1-0.8-0.1c-0.6,0-1.2,0.2-1.6,0.6c-0.4,0.4-0.7,1.1-0.7,2c0.2-0.2,0.4-0.3,0.8-0.5c0.3-0.2,0.8-0.3,1.2-0.3
									c0.8,0,1.4,0.2,1.9,0.7s0.7,1.1,0.7,2c0,0.5-0.1,1-0.3,1.4c-0.2,0.4-0.6,0.7-1,0.9s-0.9,0.3-1.5,0.3c-0.6,0-1.2-0.1-1.6-0.4
									c-0.5-0.3-0.8-0.7-1.1-1.3c-0.3-0.6-0.4-1.3-0.4-2.2c0-0.8,0.1-1.5,0.3-2c0.2-0.6,0.5-1,0.8-1.4c0.3-0.3,0.7-0.6,1.1-0.8
									c0.4-0.2,0.9-0.2,1.3-0.2c0.3,0,0.7,0,0.9,0.1c0.3,0.1,0.5,0.2,0.7,0.3C166.6,193.1,166.6,193.3,166.6,193.5z M164.4,199.8
									c0.5,0,0.8-0.1,1.1-0.4c0.3-0.3,0.4-0.7,0.4-1.2c0-0.5-0.1-0.9-0.4-1.1s-0.6-0.4-1.1-0.4c-0.4,0-0.8,0.1-1.1,0.3
									s-0.5,0.4-0.7,0.6l0,0c0,0.7,0.2,1.2,0.5,1.6C163.4,199.6,163.8,199.8,164.4,199.8z"/>
								<path class="st11" d="M168.9,200c0-0.1,0-0.2,0.1-0.4c0.1-0.1,0.1-0.2,0.2-0.3c0.2,0.1,0.4,0.2,0.7,0.3
									c0.3,0.1,0.6,0.1,0.9,0.1c0.4,0,0.8-0.1,1.2-0.3c0.3-0.2,0.6-0.5,0.8-0.9c0.2-0.4,0.3-0.9,0.3-1.5c-0.1,0.1-0.2,0.2-0.4,0.3
									c-0.2,0.1-0.4,0.2-0.6,0.3c-0.2,0.1-0.5,0.1-0.9,0.1c-0.5,0-1-0.1-1.4-0.3c-0.4-0.2-0.8-0.5-1-0.8c-0.3-0.4-0.4-0.9-0.4-1.5
									c0-0.5,0.1-1,0.4-1.4c0.2-0.4,0.6-0.7,1-0.9c0.4-0.2,0.9-0.3,1.5-0.3c0.6,0,1.2,0.1,1.6,0.4c0.5,0.3,0.8,0.7,1.1,1.3
									c0.3,0.6,0.4,1.3,0.4,2.2c0,1-0.2,1.9-0.5,2.5c-0.3,0.6-0.7,1.1-1.3,1.4c-0.5,0.3-1.2,0.5-1.9,0.5c-0.6,0-1-0.1-1.4-0.2
									C169,200.5,168.9,200.3,168.9,200z M171.4,196.8c0.4,0,0.7-0.1,1-0.3c0.3-0.2,0.5-0.4,0.6-0.6l0,0.1c0-0.7-0.2-1.2-0.5-1.6
									c-0.3-0.4-0.7-0.6-1.3-0.6c-0.4,0-0.8,0.1-1.1,0.4c-0.3,0.3-0.4,0.7-0.4,1.1c0,0.5,0.2,0.9,0.5,1.2
									C170.6,196.7,171,196.8,171.4,196.8z"/>
							</g>
						</g>
					</g>
					<g transform="translate(289.83318439082507,0)">
						<line class="st9" x1="168.6" y1="179.7" x2="168.6" y2="187.5"/>
						<g>
							<g class="st10">
								<path class="st11" d="M128.9,198.7c-0.1,0.1-0.2,0.1-0.3,0.2c-0.1,0-0.3,0.1-0.4,0.1c-0.2,0-0.3,0-0.5-0.1
									c-0.1-0.1-0.2-0.1-0.3-0.3c-0.4-0.9-0.8-1.8-1.1-2.5c-0.3-0.7-0.5-1.3-0.7-1.8h-0.1c0,0.6-0.1,1.2-0.1,1.7
									c0,0.5-0.1,1-0.1,1.5c0,0.5-0.1,1-0.1,1.5c0,0.5-0.1,1.1-0.1,1.7c-0.1,0-0.2,0-0.3,0.1c-0.1,0-0.2,0-0.3,0
									c-0.2,0-0.4,0-0.5-0.1c-0.1-0.1-0.2-0.2-0.2-0.4c0-0.1,0-0.4,0-0.8c0-0.4,0-0.8,0.1-1.4c0-0.5,0.1-1.1,0.1-1.7
									c0-0.6,0.1-1.2,0.1-1.8c0-0.6,0.1-1.1,0.1-1.6c0.1-0.1,0.2-0.1,0.3-0.2s0.4-0.1,0.6-0.1c0.3,0,0.5,0,0.6,0.1
									c0.2,0.1,0.3,0.2,0.4,0.5c0.2,0.4,0.4,0.8,0.6,1.3c0.2,0.5,0.4,1,0.6,1.5c0.2,0.5,0.4,0.9,0.5,1.4h0.1
									c0.3-0.9,0.7-1.7,1-2.5c0.3-0.8,0.6-1.5,0.9-2.1c0.1-0.1,0.2-0.1,0.4-0.1c0.1,0,0.3,0,0.4,0c0.3,0,0.5,0,0.6,0.1
									s0.3,0.2,0.3,0.4c0,0.2,0.1,0.4,0.1,0.8c0,0.4,0.1,0.8,0.1,1.3c0,0.5,0.1,1,0.1,1.5c0,0.5,0.1,1,0.1,1.5
									c0,0.5,0.1,1,0.1,1.4s0,0.7,0.1,1c-0.1,0.1-0.2,0.1-0.3,0.1c-0.1,0-0.2,0-0.4,0c-0.2,0-0.3,0-0.5-0.1
									c-0.1-0.1-0.2-0.2-0.2-0.4c-0.1-0.8-0.1-1.6-0.1-2.3c0-0.8-0.1-1.4-0.1-2.1c0-0.6-0.1-1.2-0.1-1.6h-0.1
									c-0.2,0.4-0.4,1-0.7,1.7S129.4,197.6,128.9,198.7z"/>
								<path class="st11" d="M136.5,194.4c0.8,0,1.5,0.2,1.9,0.5c0.5,0.4,0.7,0.9,0.7,1.7v3.1c0,0.2,0,0.4-0.1,0.5
									c-0.1,0.1-0.2,0.2-0.4,0.3c-0.2,0.1-0.5,0.2-0.9,0.3c-0.4,0.1-0.8,0.1-1.2,0.1c-0.8,0-1.5-0.2-2-0.5
									c-0.5-0.3-0.7-0.8-0.7-1.5c0-0.6,0.2-1,0.6-1.3s0.9-0.5,1.6-0.6l1.8-0.2v-0.3c0-0.4-0.1-0.7-0.4-0.8c-0.2-0.2-0.6-0.3-1-0.3
									c-0.3,0-0.7,0-1,0.1c-0.3,0.1-0.6,0.2-0.9,0.3c-0.1-0.1-0.2-0.1-0.2-0.2s-0.1-0.2-0.1-0.3c0-0.3,0.2-0.5,0.5-0.6
									c0.2-0.1,0.5-0.2,0.8-0.3C135.9,194.5,136.2,194.4,136.5,194.4z M136.6,199.9c0.3,0,0.6,0,0.8-0.1s0.4-0.1,0.5-0.2v-1.7
									l-1.5,0.2c-0.4,0-0.7,0.1-0.9,0.3c-0.2,0.1-0.3,0.4-0.3,0.6c0,0.3,0.1,0.5,0.3,0.7S136.1,199.9,136.6,199.9z"/>
								<path class="st11" d="M142.3,195.9v1.9h-1.3v-2c0-0.2,0-0.4,0.1-0.5s0.2-0.3,0.4-0.4c0.2-0.2,0.6-0.3,1-0.4
									c0.4-0.1,0.8-0.2,1.3-0.2c0.8,0,1.1,0.2,1.1,0.6c0,0.1,0,0.2,0,0.3c0,0.1-0.1,0.2-0.1,0.2c-0.1,0-0.2,0-0.3-0.1
									s-0.3,0-0.4,0c-0.4,0-0.7,0-1,0.1C142.7,195.7,142.5,195.8,142.3,195.9z M140.9,197.3l1.3,0.1v3.3c-0.1,0-0.1,0.1-0.3,0.1
									c-0.1,0-0.2,0-0.4,0c-0.2,0-0.4,0-0.5-0.1c-0.1-0.1-0.2-0.3-0.2-0.5V197.3z"/>
								<path class="st11" d="M146.5,200.7H146c-0.1-0.1-0.1-0.2-0.2-0.3c-0.1-0.1-0.1-0.2-0.1-0.3c0-0.1,0-0.2,0.1-0.4
									c0.1-0.1,0.1-0.2,0.2-0.3l3.9-4.9h0.5c0.1,0.1,0.2,0.2,0.2,0.3c0.1,0.1,0.1,0.2,0.1,0.3s0,0.2-0.1,0.3s-0.1,0.2-0.2,0.3
									L146.5,200.7z M150.2,194.6v1.1h-4.3c0-0.1-0.1-0.1-0.1-0.2s0-0.2,0-0.3c0-0.2,0-0.3,0.1-0.4c0.1-0.1,0.2-0.1,0.4-0.1H150.2
									z M146.2,200.7v-1.1h4.5c0,0.1,0.1,0.1,0.1,0.2c0,0.1,0,0.2,0,0.3c0,0.2,0,0.3-0.1,0.4c-0.1,0.1-0.2,0.1-0.4,0.1H146.2z"/>
								<path class="st11" d="M158.1,197.7c0,0.7-0.1,1.2-0.4,1.7c-0.3,0.5-0.6,0.9-1.1,1.1c-0.5,0.3-1,0.4-1.6,0.4
									c-0.6,0-1.2-0.1-1.6-0.4c-0.5-0.3-0.8-0.6-1.1-1.1c-0.3-0.5-0.4-1.1-0.4-1.7c0-0.7,0.1-1.2,0.4-1.7c0.3-0.5,0.6-0.9,1.1-1.1
									c0.5-0.3,1-0.4,1.6-0.4c0.6,0,1.1,0.1,1.6,0.4c0.5,0.3,0.8,0.6,1.1,1.1S158.1,197,158.1,197.7z M155,195.5
									c-0.5,0-0.9,0.2-1.3,0.6c-0.3,0.4-0.5,0.9-0.5,1.6c0,0.7,0.2,1.2,0.5,1.6c0.3,0.4,0.7,0.6,1.3,0.6c0.5,0,1-0.2,1.3-0.6
									c0.3-0.4,0.5-0.9,0.5-1.6c0-0.7-0.2-1.2-0.5-1.6C156,195.7,155.5,195.5,155,195.5z"/>
								<path class="st11" d="M164.8,198.1h-1.4v-4l-1.6,0.7c-0.1-0.1-0.2-0.1-0.3-0.2c-0.1-0.1-0.1-0.2-0.1-0.4
									c0-0.3,0.2-0.6,0.6-0.7l1.7-0.7h0.3c0.2,0,0.4,0.1,0.5,0.2s0.2,0.3,0.2,0.5V198.1z M163.5,197.3h1.4v3.5
									c-0.1,0-0.1,0-0.3,0.1c-0.1,0-0.2,0-0.4,0c-0.2,0-0.4,0-0.5-0.1c-0.1-0.1-0.2-0.3-0.2-0.5V197.3z"/>
								<path class="st11" d="M166.6,197.6l3.6-4.8c0.1,0,0.2,0,0.3-0.1c0.1,0,0.2,0,0.4,0c0.2,0,0.3,0,0.4,0.1
									c0.1,0,0.3,0.1,0.3,0.2c0.1,0.1,0.1,0.3,0.1,0.5v4.3h1.2c0,0.1,0.1,0.1,0.1,0.2c0,0.1,0.1,0.2,0.1,0.3c0,0.2,0,0.3-0.1,0.4
									c-0.1,0.1-0.2,0.1-0.4,0.1h-0.9v1.9c-0.1,0-0.1,0-0.2,0.1c-0.1,0-0.2,0-0.3,0c-0.2,0-0.4,0-0.5-0.1
									c-0.1-0.1-0.2-0.2-0.2-0.5v-1.4h-3.6c-0.1-0.1-0.2-0.1-0.3-0.3s-0.1-0.3-0.1-0.5c0-0.1,0-0.2,0-0.3
									C166.5,197.7,166.5,197.7,166.6,197.6z M170.5,197.8l0-3.7h0l-2.6,3.7H170.5z"/>
								<path class="st11" d="M174.6,201.9c-0.2,0.3-0.4,0.4-0.7,0.4c-0.2,0-0.4-0.1-0.6-0.2c0.1-0.3,0.2-0.5,0.3-0.9
									c0.1-0.3,0.2-0.7,0.3-1s0.2-0.6,0.2-0.9c0.1,0,0.2-0.1,0.3-0.1c0.1,0,0.2,0,0.4,0c0.2,0,0.3,0,0.5,0.1
									c0.1,0.1,0.2,0.2,0.2,0.4c0,0.2,0,0.4-0.1,0.7c-0.1,0.3-0.2,0.6-0.3,0.8C174.8,201.6,174.7,201.8,174.6,201.9z"/>
								<path class="st11" d="M181.8,198.1h-1.4v-4l-1.6,0.7c-0.1-0.1-0.2-0.1-0.3-0.2c-0.1-0.1-0.1-0.2-0.1-0.4
									c0-0.3,0.2-0.6,0.6-0.7l1.7-0.7h0.3c0.2,0,0.4,0.1,0.5,0.2s0.2,0.3,0.2,0.5V198.1z M180.5,197.3h1.4v3.5
									c-0.1,0-0.1,0-0.3,0.1c-0.1,0-0.2,0-0.4,0c-0.2,0-0.4,0-0.5-0.1c-0.1-0.1-0.2-0.3-0.2-0.5V197.3z"/>
								<path class="st11" d="M184.1,200c0-0.1,0-0.2,0.1-0.4c0.1-0.1,0.1-0.2,0.2-0.3c0.2,0.1,0.4,0.2,0.7,0.3
									c0.3,0.1,0.6,0.1,0.9,0.1c0.4,0,0.8-0.1,1.2-0.3c0.3-0.2,0.6-0.5,0.8-0.9c0.2-0.4,0.3-0.9,0.3-1.5c-0.1,0.1-0.2,0.2-0.4,0.3
									c-0.2,0.1-0.4,0.2-0.6,0.3c-0.2,0.1-0.5,0.1-0.9,0.1c-0.5,0-1-0.1-1.4-0.3c-0.4-0.2-0.8-0.5-1-0.8c-0.3-0.4-0.4-0.9-0.4-1.5
									c0-0.5,0.1-1,0.4-1.4c0.2-0.4,0.6-0.7,1-0.9c0.4-0.2,0.9-0.3,1.5-0.3c0.6,0,1.2,0.1,1.6,0.4c0.5,0.3,0.8,0.7,1.1,1.3
									c0.3,0.6,0.4,1.3,0.4,2.2c0,1-0.2,1.9-0.5,2.5c-0.3,0.6-0.7,1.1-1.3,1.4c-0.5,0.3-1.2,0.5-1.9,0.5c-0.6,0-1-0.1-1.4-0.2
									C184.3,200.5,184.1,200.3,184.1,200z M186.7,196.8c0.4,0,0.7-0.1,1-0.3c0.3-0.2,0.5-0.4,0.6-0.6l0,0.1
									c0-0.7-0.2-1.2-0.5-1.6c-0.3-0.4-0.7-0.6-1.3-0.6c-0.4,0-0.8,0.1-1.1,0.4c-0.3,0.3-0.4,0.7-0.4,1.1c0,0.5,0.2,0.9,0.5,1.2
									C185.8,196.7,186.2,196.8,186.7,196.8z"/>
								<path class="st11" d="M191.1,192.8h4.7c0.1,0.1,0.2,0.1,0.3,0.3c0.1,0.1,0.1,0.2,0.1,0.4c0,0.1,0,0.2,0,0.3
									c0,0.1-0.1,0.2-0.1,0.3l-3.1,6.7c-0.1,0-0.1,0-0.2,0s-0.1,0-0.2,0c-0.2,0-0.4,0-0.6-0.2c-0.2-0.1-0.2-0.3-0.2-0.5
									c0-0.1,0-0.3,0.1-0.4c0.1-0.1,0.1-0.3,0.2-0.5l2.7-5.5h-3.9c0-0.1-0.1-0.1-0.1-0.2c0-0.1-0.1-0.2-0.1-0.3
									c0-0.2,0-0.3,0.1-0.4C190.9,192.8,191,192.8,191.1,192.8z"/>
								<path class="st11" d="M200.2,200.9c-0.6,0-1.2-0.2-1.7-0.5c-0.5-0.3-0.9-0.8-1.1-1.4c-0.3-0.6-0.4-1.4-0.4-2.3
									c0-1,0.1-1.8,0.4-2.4c0.3-0.6,0.7-1.1,1.2-1.3c0.5-0.3,1-0.4,1.6-0.4s1.1,0.1,1.6,0.4c0.5,0.3,0.9,0.7,1.2,1.4
									s0.4,1.4,0.4,2.4c0,0.9-0.1,1.7-0.4,2.3c-0.3,0.6-0.7,1.1-1.1,1.4C201.4,200.8,200.9,200.9,200.2,200.9z M202.1,196.8
									c0-0.7-0.1-1.3-0.2-1.7c-0.2-0.5-0.4-0.8-0.7-1c-0.3-0.2-0.6-0.3-0.9-0.3c-0.3,0-0.7,0.1-0.9,0.3c-0.3,0.2-0.5,0.5-0.7,1
									c-0.2,0.5-0.2,1-0.2,1.7c0,1,0.2,1.7,0.5,2.3c0.3,0.5,0.8,0.8,1.3,0.8c0.6,0,1-0.3,1.4-0.8
									C201.9,198.5,202.1,197.7,202.1,196.8z"/>
							</g>
						</g>
					</g>
					<g transform="translate(372.5,0)">
						<line class="st9" x1="194.2" y1="179.7" x2="194.2" y2="187.5"/>
						<g>
							<g class="st10">
								<path class="st11" d="M158.2,198.7c-0.1,0.1-0.2,0.1-0.3,0.2c-0.1,0-0.3,0.1-0.4,0.1c-0.2,0-0.3,0-0.5-0.1
									c-0.1-0.1-0.2-0.1-0.3-0.3c-0.4-0.9-0.8-1.8-1.1-2.5c-0.3-0.7-0.5-1.3-0.7-1.8h-0.1c0,0.6-0.1,1.2-0.1,1.7
									c0,0.5-0.1,1-0.1,1.5c0,0.5-0.1,1-0.1,1.5c0,0.5-0.1,1.1-0.1,1.7c-0.1,0-0.2,0-0.3,0.1c-0.1,0-0.2,0-0.3,0
									c-0.2,0-0.4,0-0.5-0.1c-0.1-0.1-0.2-0.2-0.2-0.4c0-0.1,0-0.4,0-0.8c0-0.4,0-0.8,0.1-1.4c0-0.5,0.1-1.1,0.1-1.7
									c0-0.6,0.1-1.2,0.1-1.8c0-0.6,0.1-1.1,0.1-1.6c0.1-0.1,0.2-0.1,0.3-0.2s0.4-0.1,0.6-0.1c0.3,0,0.5,0,0.6,0.1
									c0.2,0.1,0.3,0.2,0.4,0.5c0.2,0.4,0.4,0.8,0.6,1.3c0.2,0.5,0.4,1,0.6,1.5c0.2,0.5,0.4,0.9,0.5,1.4h0.1
									c0.3-0.9,0.7-1.7,1-2.5c0.3-0.8,0.6-1.5,0.9-2.1c0.1-0.1,0.2-0.1,0.4-0.1c0.1,0,0.3,0,0.4,0c0.3,0,0.5,0,0.6,0.1
									s0.3,0.2,0.3,0.4c0,0.2,0.1,0.4,0.1,0.8c0,0.4,0.1,0.8,0.1,1.3c0,0.5,0.1,1,0.1,1.5c0,0.5,0.1,1,0.1,1.5
									c0,0.5,0.1,1,0.1,1.4s0,0.7,0.1,1c-0.1,0.1-0.2,0.1-0.3,0.1c-0.1,0-0.2,0-0.4,0c-0.2,0-0.3,0-0.5-0.1
									c-0.1-0.1-0.2-0.2-0.2-0.4c-0.1-0.8-0.1-1.6-0.1-2.3c0-0.8-0.1-1.4-0.1-2.1c0-0.6-0.1-1.2-0.1-1.6H160
									c-0.2,0.4-0.4,1-0.7,1.7S158.6,197.6,158.2,198.7z"/>
								<path class="st11" d="M165.8,194.4c0.8,0,1.5,0.2,1.9,0.5c0.5,0.4,0.7,0.9,0.7,1.7v3.1c0,0.2,0,0.4-0.1,0.5
									c-0.1,0.1-0.2,0.2-0.4,0.3c-0.2,0.1-0.5,0.2-0.9,0.3c-0.4,0.1-0.8,0.1-1.2,0.1c-0.8,0-1.5-0.2-2-0.5
									c-0.5-0.3-0.7-0.8-0.7-1.5c0-0.6,0.2-1,0.6-1.3s0.9-0.5,1.6-0.6l1.8-0.2v-0.3c0-0.4-0.1-0.7-0.4-0.8c-0.2-0.2-0.6-0.3-1-0.3
									c-0.3,0-0.7,0-1,0.1c-0.3,0.1-0.6,0.2-0.9,0.3c-0.1-0.1-0.2-0.1-0.2-0.2s-0.1-0.2-0.1-0.3c0-0.3,0.2-0.5,0.5-0.6
									c0.2-0.1,0.5-0.2,0.8-0.3C165.1,194.5,165.4,194.4,165.8,194.4z M165.8,199.9c0.3,0,0.6,0,0.8-0.1s0.4-0.1,0.5-0.2v-1.7
									l-1.5,0.2c-0.4,0-0.7,0.1-0.9,0.3c-0.2,0.1-0.3,0.4-0.3,0.6c0,0.3,0.1,0.5,0.3,0.7S165.3,199.9,165.8,199.9z"/>
								<path class="st11" d="M171.5,195.9v1.9h-1.3v-2c0-0.2,0-0.4,0.1-0.5s0.2-0.3,0.4-0.4c0.2-0.2,0.6-0.3,1-0.4
									c0.4-0.1,0.8-0.2,1.3-0.2c0.8,0,1.1,0.2,1.1,0.6c0,0.1,0,0.2,0,0.3c0,0.1-0.1,0.2-0.1,0.2c-0.1,0-0.2,0-0.3-0.1
									s-0.3,0-0.4,0c-0.4,0-0.7,0-1,0.1C172,195.7,171.7,195.8,171.5,195.9z M170.2,197.3l1.3,0.1v3.3c-0.1,0-0.1,0.1-0.3,0.1
									c-0.1,0-0.2,0-0.4,0c-0.2,0-0.4,0-0.5-0.1c-0.1-0.1-0.2-0.3-0.2-0.5V197.3z"/>
								<path class="st11" d="M175.7,200.7h-0.5c-0.1-0.1-0.1-0.2-0.2-0.3c-0.1-0.1-0.1-0.2-0.1-0.3c0-0.1,0-0.2,0.1-0.4
									c0.1-0.1,0.1-0.2,0.2-0.3l3.9-4.9h0.5c0.1,0.1,0.2,0.2,0.2,0.3c0.1,0.1,0.1,0.2,0.1,0.3s0,0.2-0.1,0.3s-0.1,0.2-0.2,0.3
									L175.7,200.7z M179.4,194.6v1.1h-4.3c0-0.1-0.1-0.1-0.1-0.2s0-0.2,0-0.3c0-0.2,0-0.3,0.1-0.4c0.1-0.1,0.2-0.1,0.4-0.1H179.4
									z M175.4,200.7v-1.1h4.5c0,0.1,0.1,0.1,0.1,0.2c0,0.1,0,0.2,0,0.3c0,0.2,0,0.3-0.1,0.4c-0.1,0.1-0.2,0.1-0.4,0.1H175.4z"/>
								<path class="st11" d="M187.3,197.7c0,0.7-0.1,1.2-0.4,1.7c-0.3,0.5-0.6,0.9-1.1,1.1c-0.5,0.3-1,0.4-1.6,0.4
									c-0.6,0-1.2-0.1-1.6-0.4c-0.5-0.3-0.8-0.6-1.1-1.1c-0.3-0.5-0.4-1.1-0.4-1.7c0-0.7,0.1-1.2,0.4-1.7c0.3-0.5,0.6-0.9,1.1-1.1
									c0.5-0.3,1-0.4,1.6-0.4c0.6,0,1.1,0.1,1.6,0.4c0.5,0.3,0.8,0.6,1.1,1.1S187.3,197,187.3,197.7z M184.2,195.5
									c-0.5,0-0.9,0.2-1.3,0.6c-0.3,0.4-0.5,0.9-0.5,1.6c0,0.7,0.2,1.2,0.5,1.6c0.3,0.4,0.7,0.6,1.3,0.6c0.5,0,1-0.2,1.3-0.6
									c0.3-0.4,0.5-0.9,0.5-1.6c0-0.7-0.2-1.2-0.5-1.6C185.2,195.7,184.8,195.5,184.2,195.5z"/>
								<path class="st11" d="M194.4,200.9c-0.6,0-1.2-0.2-1.7-0.5c-0.5-0.3-0.9-0.8-1.1-1.4c-0.3-0.6-0.4-1.4-0.4-2.3
									c0-1,0.1-1.8,0.4-2.4c0.3-0.6,0.7-1.1,1.2-1.3s1-0.4,1.6-0.4s1.1,0.1,1.6,0.4s0.9,0.7,1.2,1.4s0.4,1.4,0.4,2.4
									c0,0.9-0.1,1.7-0.4,2.3c-0.3,0.6-0.7,1.1-1.1,1.4C195.6,200.8,195,200.9,194.4,200.9z M196.2,196.8c0-0.7-0.1-1.3-0.2-1.7
									c-0.2-0.5-0.4-0.8-0.7-1c-0.3-0.2-0.6-0.3-0.9-0.3c-0.3,0-0.7,0.1-0.9,0.3s-0.5,0.5-0.7,1c-0.2,0.5-0.2,1-0.2,1.7
									c0,1,0.2,1.7,0.5,2.3c0.3,0.5,0.8,0.8,1.3,0.8c0.6,0,1-0.3,1.4-0.8C196,198.5,196.2,197.7,196.2,196.8z"/>
								<path class="st11" d="M201.1,192.6c0.9,0,1.6,0.2,2.1,0.6c0.5,0.4,0.8,0.9,0.8,1.6c0,0.3-0.1,0.6-0.2,0.9s-0.3,0.4-0.5,0.6
									s-0.4,0.2-0.5,0.3c0.2,0.1,0.5,0.2,0.7,0.4c0.2,0.2,0.4,0.4,0.5,0.6c0.1,0.3,0.2,0.6,0.2,1c0,0.5-0.1,0.9-0.4,1.3
									s-0.6,0.6-1.1,0.8c-0.5,0.2-1,0.3-1.6,0.3c-0.5,0-1-0.1-1.3-0.2c-0.4-0.1-0.7-0.2-0.9-0.4c-0.2-0.2-0.3-0.4-0.3-0.6
									c0-0.1,0-0.3,0.1-0.4c0.1-0.1,0.2-0.2,0.3-0.3c0.2,0.2,0.5,0.3,0.8,0.4c0.3,0.1,0.7,0.2,1.2,0.2c0.5,0,1-0.1,1.3-0.3
									c0.3-0.2,0.5-0.6,0.5-1c0-0.4-0.1-0.7-0.4-0.9c-0.3-0.2-0.7-0.4-1.3-0.4H200c0-0.1-0.1-0.1-0.1-0.2c0-0.1,0-0.2,0-0.3
									c0-0.1,0-0.2,0-0.3c0-0.1,0.1-0.2,0.1-0.2h1.1c0.6,0,1-0.1,1.2-0.3c0.2-0.2,0.4-0.5,0.4-0.8c0-0.4-0.1-0.7-0.4-0.9
									c-0.3-0.2-0.7-0.3-1.2-0.3c-0.4,0-0.8,0.1-1.1,0.2c-0.3,0.1-0.6,0.2-0.8,0.4c-0.1-0.1-0.2-0.1-0.3-0.3
									c-0.1-0.1-0.1-0.2-0.1-0.4c0-0.2,0.1-0.4,0.3-0.5s0.5-0.3,0.8-0.4S200.7,192.6,201.1,192.6z"/>
								<path class="st11" d="M206,201.9c-0.2,0.3-0.4,0.4-0.7,0.4c-0.2,0-0.4-0.1-0.6-0.2c0.1-0.3,0.2-0.5,0.3-0.9
									c0.1-0.3,0.2-0.7,0.3-1s0.2-0.6,0.2-0.9c0.1,0,0.2-0.1,0.3-0.1s0.2,0,0.4,0c0.2,0,0.3,0,0.5,0.1c0.1,0.1,0.2,0.2,0.2,0.4
									c0,0.2,0,0.4-0.1,0.7c-0.1,0.3-0.2,0.6-0.3,0.8C206.2,201.6,206.1,201.8,206,201.9z"/>
								<path class="st11" d="M213.3,198.1h-1.4v-4l-1.6,0.7c-0.1-0.1-0.2-0.1-0.3-0.2c-0.1-0.1-0.1-0.2-0.1-0.4
									c0-0.3,0.2-0.6,0.6-0.7l1.7-0.7h0.3c0.2,0,0.4,0.1,0.5,0.2c0.1,0.1,0.2,0.3,0.2,0.5V198.1z M211.9,197.3h1.4v3.5
									c-0.1,0-0.1,0-0.3,0.1c-0.1,0-0.2,0-0.4,0c-0.2,0-0.4,0-0.5-0.1c-0.1-0.1-0.2-0.3-0.2-0.5V197.3z"/>
								<path class="st11" d="M215.6,200c0-0.1,0-0.2,0.1-0.4c0.1-0.1,0.1-0.2,0.2-0.3c0.2,0.1,0.4,0.2,0.7,0.3s0.6,0.1,0.9,0.1
									c0.4,0,0.8-0.1,1.2-0.3c0.3-0.2,0.6-0.5,0.8-0.9c0.2-0.4,0.3-0.9,0.3-1.5c-0.1,0.1-0.2,0.2-0.4,0.3s-0.4,0.2-0.6,0.3
									c-0.2,0.1-0.5,0.1-0.9,0.1c-0.5,0-1-0.1-1.4-0.3c-0.4-0.2-0.8-0.5-1-0.8c-0.3-0.4-0.4-0.9-0.4-1.5c0-0.5,0.1-1,0.4-1.4
									s0.6-0.7,1-0.9s0.9-0.3,1.5-0.3c0.6,0,1.2,0.1,1.6,0.4c0.5,0.3,0.8,0.7,1.1,1.3c0.3,0.6,0.4,1.3,0.4,2.2
									c0,1-0.2,1.9-0.5,2.5c-0.3,0.6-0.7,1.1-1.3,1.4c-0.5,0.3-1.2,0.5-1.9,0.5c-0.6,0-1-0.1-1.4-0.2S215.6,200.3,215.6,200z
									 M218.1,196.8c0.4,0,0.7-0.1,1-0.3c0.3-0.2,0.5-0.4,0.6-0.6l0,0.1c0-0.7-0.2-1.2-0.5-1.6c-0.3-0.4-0.7-0.6-1.3-0.6
									c-0.4,0-0.8,0.1-1.1,0.4c-0.3,0.3-0.4,0.7-0.4,1.1c0,0.5,0.2,0.9,0.5,1.2S217.7,196.8,218.1,196.8z"/>
								<path class="st11" d="M222.6,192.8h4.7c0.1,0.1,0.2,0.1,0.3,0.3c0.1,0.1,0.1,0.2,0.1,0.4c0,0.1,0,0.2,0,0.3
									s-0.1,0.2-0.1,0.3l-3.1,6.7c-0.1,0-0.1,0-0.2,0s-0.1,0-0.2,0c-0.2,0-0.4,0-0.6-0.2c-0.2-0.1-0.2-0.3-0.2-0.5
									c0-0.1,0-0.3,0.1-0.4c0.1-0.1,0.1-0.3,0.2-0.5l2.7-5.5h-3.9c0-0.1-0.1-0.1-0.1-0.2s-0.1-0.2-0.1-0.3c0-0.2,0-0.3,0.1-0.4
									C222.3,192.8,222.4,192.8,222.6,192.8z"/>
								<path class="st11" d="M228.6,193.7c0-0.2,0.1-0.4,0.3-0.5c0.2-0.2,0.5-0.3,0.8-0.4c0.3-0.1,0.7-0.1,1.2-0.1
									c0.6,0,1.1,0.1,1.5,0.3c0.4,0.2,0.7,0.5,1,0.8s0.3,0.7,0.3,1.2c0,0.5-0.1,0.9-0.4,1.4s-0.7,1-1.3,1.5l-2,1.8h3.7
									c0,0.1,0.1,0.1,0.1,0.2c0,0.1,0,0.2,0,0.3c0,0.2,0,0.3-0.1,0.4c-0.1,0.1-0.2,0.1-0.4,0.1h-4.6c-0.1-0.1-0.2-0.2-0.3-0.3
									c-0.1-0.1-0.1-0.3-0.1-0.4c0-0.2,0-0.3,0.1-0.5s0.2-0.3,0.3-0.3l2.2-2.1c0.5-0.5,0.9-0.9,1.1-1.2c0.2-0.3,0.3-0.6,0.3-1
									c0-0.4-0.1-0.7-0.4-0.9s-0.6-0.3-1.1-0.3c-0.4,0-0.7,0.1-1,0.2s-0.5,0.3-0.7,0.4c-0.1-0.1-0.2-0.1-0.3-0.2
									C228.7,194,228.6,193.8,228.6,193.7z"/>
							</g>
						</g>
					</g>
					<g transform="translate(455.1668156091748,0)">
						<line class="st9" x1="219.8" y1="179.7" x2="219.8" y2="187.5"/>
						<g>
							<g class="st10">
								<path class="st11" d="M179,196.8c0,0.9-0.2,1.7-0.5,2.3c-0.3,0.6-0.8,1.1-1.4,1.4s-1.2,0.5-2,0.5c-0.7,0-1.4-0.2-2-0.5
									s-1-0.8-1.4-1.4c-0.3-0.6-0.5-1.4-0.5-2.3c0-0.9,0.2-1.7,0.5-2.3c0.3-0.6,0.8-1.1,1.4-1.4s1.2-0.5,2-0.5
									c0.7,0,1.4,0.2,2,0.5c0.6,0.3,1,0.8,1.4,1.4C178.9,195.1,179,195.9,179,196.8z M177.6,196.8c0-1-0.2-1.7-0.7-2.2
									c-0.5-0.5-1.1-0.8-1.8-0.8c-0.7,0-1.3,0.3-1.8,0.8c-0.5,0.5-0.7,1.3-0.7,2.2c0,1,0.2,1.7,0.7,2.2c0.4,0.5,1,0.8,1.8,0.8
									c0.8,0,1.4-0.3,1.8-0.8S177.6,197.7,177.6,196.8z"/>
								<path class="st11" d="M183.6,195.5c-0.5,0-1,0.2-1.4,0.6c-0.4,0.4-0.6,0.9-0.6,1.6c0,0.7,0.2,1.2,0.5,1.6
									c0.4,0.4,0.8,0.5,1.4,0.5c0.3,0,0.6,0,0.9-0.1c0.2-0.1,0.4-0.2,0.6-0.3c0.1,0.1,0.2,0.2,0.3,0.2c0.1,0.1,0.1,0.2,0.1,0.3
									c0,0.3-0.2,0.5-0.5,0.7c-0.4,0.2-0.8,0.3-1.4,0.3c-0.6,0-1.2-0.1-1.7-0.4s-0.9-0.6-1.2-1.1c-0.3-0.5-0.4-1.1-0.4-1.8
									c0-0.7,0.1-1.3,0.4-1.8c0.3-0.5,0.7-0.8,1.2-1.1c0.5-0.2,1-0.4,1.6-0.4c0.6,0,1,0.1,1.4,0.3s0.5,0.4,0.5,0.7
									c0,0.1,0,0.2-0.1,0.3c-0.1,0.1-0.1,0.2-0.2,0.2c-0.2-0.1-0.4-0.2-0.6-0.3C184.2,195.6,183.9,195.5,183.6,195.5z"/>
								<path class="st11" d="M188.3,197.6h-1.3v-4.7c0.1,0,0.1,0,0.3-0.1c0.1,0,0.2,0,0.4,0c0.2,0,0.4,0,0.5,0.1
									c0.1,0.1,0.2,0.3,0.2,0.5V197.6z M186.9,197.3h1.3v1.7c0,0.3,0.1,0.5,0.3,0.7c0.2,0.1,0.4,0.2,0.8,0.2c0.1,0,0.3,0,0.5-0.1
									c0.2,0,0.3-0.1,0.4-0.2c0.1,0.1,0.1,0.1,0.2,0.2c0,0.1,0.1,0.2,0.1,0.3c0,0.2-0.1,0.4-0.3,0.6s-0.6,0.2-1,0.2
									c-0.7,0-1.2-0.1-1.6-0.4c-0.4-0.3-0.6-0.8-0.6-1.4V197.3z M187.7,195.8v-1.1h2.6c0,0.1,0.1,0.1,0.1,0.2c0,0.1,0,0.2,0,0.3
									c0,0.2,0,0.3-0.1,0.4s-0.2,0.1-0.3,0.1H187.7z"/>
								<path class="st11" d="M193.2,198h-1.3v-3.4c0.1,0,0.1,0,0.3-0.1c0.1,0,0.2,0,0.4,0c0.2,0,0.4,0,0.5,0.1
									c0.1,0.1,0.2,0.3,0.2,0.5V198z M191.8,198.4v-1.1h1.3v1.1c0,0.5,0.1,0.9,0.4,1.1c0.3,0.2,0.6,0.3,1.1,0.3
									c0.3,0,0.6,0,0.8-0.1s0.4-0.1,0.5-0.2v-2.2h1.3v2.3c0,0.2,0,0.3-0.1,0.5c-0.1,0.1-0.2,0.2-0.4,0.4c-0.2,0.1-0.5,0.2-0.9,0.4
									s-0.8,0.2-1.3,0.2c-0.6,0-1.1-0.1-1.5-0.3c-0.4-0.2-0.8-0.4-1-0.8C192,199.5,191.8,199,191.8,198.4z M197.3,198H196v-3.4
									c0.1,0,0.1,0,0.3-0.1s0.2,0,0.4,0c0.3,0,0.4,0,0.6,0.1c0.1,0.1,0.2,0.3,0.2,0.5V198z"/>
								<path class="st11" d="M200.5,195.5h-1.3v-3.3c0.1,0,0.1,0,0.3-0.1s0.2,0,0.4,0c0.2,0,0.4,0,0.5,0.1c0.1,0.1,0.2,0.3,0.2,0.5
									V195.5z M202.1,194.4c0.5,0,1,0.1,1.5,0.4c0.4,0.2,0.8,0.6,1,1.1c0.3,0.5,0.4,1.1,0.4,1.8c0,0.7-0.1,1.3-0.4,1.8
									c-0.3,0.5-0.6,0.8-1.1,1.1c-0.5,0.2-1,0.4-1.7,0.4c-0.5,0-0.9-0.1-1.2-0.2c-0.4-0.1-0.7-0.2-0.9-0.4
									c-0.2-0.1-0.3-0.3-0.4-0.4c-0.1-0.1-0.1-0.3-0.1-0.5v-4.3h1.3v4.2c0.1,0.1,0.3,0.2,0.5,0.2c0.2,0.1,0.5,0.1,0.8,0.1
									c0.5,0,1-0.2,1.3-0.5s0.5-0.9,0.5-1.6s-0.2-1.3-0.5-1.6c-0.3-0.3-0.8-0.5-1.3-0.5c-0.3,0-0.6,0.1-0.9,0.2
									c-0.3,0.1-0.5,0.3-0.6,0.4l-0.2-1.1c0.2-0.1,0.5-0.3,0.8-0.4C201.3,194.5,201.6,194.4,202.1,194.4z"/>
								<path class="st11" d="M207.8,195.9v1.9h-1.3v-2c0-0.2,0-0.4,0.1-0.5s0.2-0.3,0.4-0.4c0.2-0.2,0.6-0.3,1-0.4s0.8-0.2,1.3-0.2
									c0.8,0,1.1,0.2,1.1,0.6c0,0.1,0,0.2,0,0.3s-0.1,0.2-0.1,0.2c-0.1,0-0.2,0-0.3-0.1s-0.3,0-0.4,0c-0.4,0-0.7,0-1,0.1
									C208.3,195.7,208,195.8,207.8,195.9z M206.5,197.3l1.3,0.1v3.3c-0.1,0-0.1,0.1-0.3,0.1s-0.2,0-0.4,0c-0.2,0-0.4,0-0.5-0.1
									s-0.2-0.3-0.2-0.5V197.3z"/>
								<path class="st11" d="M212.1,198.4l-0.1-1l3.7-0.5c0-0.4-0.2-0.7-0.4-1c-0.3-0.3-0.6-0.4-1.1-0.4c-0.5,0-0.9,0.2-1.2,0.5
									c-0.3,0.3-0.5,0.8-0.5,1.5l0,0.5c0.1,0.6,0.3,1.1,0.7,1.4c0.4,0.3,0.9,0.5,1.5,0.5c0.4,0,0.7-0.1,1-0.2
									c0.3-0.1,0.5-0.2,0.7-0.4c0.1,0.1,0.2,0.1,0.3,0.2s0.1,0.2,0.1,0.3c0,0.2-0.1,0.4-0.3,0.5c-0.2,0.2-0.5,0.3-0.8,0.4
									c-0.3,0.1-0.7,0.1-1.1,0.1c-0.7,0-1.3-0.1-1.8-0.4c-0.5-0.2-0.9-0.6-1.2-1.1s-0.4-1.1-0.4-1.8c0-0.5,0.1-1,0.2-1.4
									c0.2-0.4,0.4-0.7,0.6-1c0.3-0.3,0.6-0.5,1-0.6c0.4-0.1,0.8-0.2,1.2-0.2c0.5,0,1,0.1,1.5,0.3c0.4,0.2,0.8,0.6,1,1
									c0.2,0.4,0.4,0.9,0.4,1.4c0,0.2-0.1,0.4-0.2,0.5c-0.1,0.1-0.3,0.2-0.4,0.2L212.1,198.4z"/>
								<path class="st11" d="M223.7,198.1h-1.4v-4l-1.6,0.7c-0.1-0.1-0.2-0.1-0.3-0.2c-0.1-0.1-0.1-0.2-0.1-0.4
									c0-0.3,0.2-0.6,0.6-0.7l1.7-0.7h0.3c0.2,0,0.4,0.1,0.5,0.2c0.1,0.1,0.2,0.3,0.2,0.5V198.1z M222.4,197.3h1.4v3.5
									c-0.1,0-0.1,0-0.3,0.1c-0.1,0-0.2,0-0.4,0c-0.2,0-0.4,0-0.5-0.1c-0.1-0.1-0.2-0.3-0.2-0.5V197.3z"/>
								<path class="st11" d="M227.9,192.6c0.9,0,1.6,0.2,2.1,0.6c0.5,0.4,0.8,0.9,0.8,1.6c0,0.3-0.1,0.6-0.2,0.9
									c-0.1,0.2-0.3,0.4-0.5,0.6c-0.2,0.1-0.4,0.2-0.5,0.3c0.2,0.1,0.5,0.2,0.7,0.4c0.2,0.2,0.4,0.4,0.5,0.6
									c0.1,0.3,0.2,0.6,0.2,1c0,0.5-0.1,0.9-0.4,1.3s-0.6,0.6-1.1,0.8c-0.5,0.2-1,0.3-1.6,0.3c-0.5,0-1-0.1-1.3-0.2
									c-0.4-0.1-0.7-0.2-0.9-0.4c-0.2-0.2-0.3-0.4-0.3-0.6c0-0.1,0-0.3,0.1-0.4c0.1-0.1,0.2-0.2,0.3-0.3c0.2,0.2,0.5,0.3,0.8,0.4
									c0.3,0.1,0.7,0.2,1.2,0.2c0.5,0,1-0.1,1.3-0.3c0.3-0.2,0.5-0.6,0.5-1c0-0.4-0.1-0.7-0.4-0.9c-0.3-0.2-0.7-0.4-1.3-0.4h-1.1
									c0-0.1-0.1-0.1-0.1-0.2c0-0.1,0-0.2,0-0.3c0-0.1,0-0.2,0-0.3c0-0.1,0.1-0.2,0.1-0.2h1.1c0.6,0,1-0.1,1.2-0.3
									c0.2-0.2,0.4-0.5,0.4-0.8c0-0.4-0.1-0.7-0.4-0.9c-0.3-0.2-0.7-0.3-1.2-0.3c-0.4,0-0.8,0.1-1.1,0.2s-0.6,0.2-0.8,0.4
									c-0.1-0.1-0.2-0.1-0.3-0.3c-0.1-0.1-0.1-0.2-0.1-0.4c0-0.2,0.1-0.4,0.3-0.5c0.2-0.2,0.5-0.3,0.8-0.4
									S227.4,192.6,227.9,192.6z"/>
								<path class="st11" d="M232.8,201.9c-0.2,0.3-0.4,0.4-0.7,0.4c-0.2,0-0.4-0.1-0.6-0.2c0.1-0.3,0.2-0.5,0.3-0.9
									c0.1-0.3,0.2-0.7,0.3-1s0.2-0.6,0.2-0.9c0.1,0,0.2-0.1,0.3-0.1s0.2,0,0.4,0c0.2,0,0.3,0,0.5,0.1c0.1,0.1,0.2,0.2,0.2,0.4
									c0,0.2,0,0.4-0.1,0.7c-0.1,0.3-0.2,0.6-0.3,0.8C233,201.6,232.9,201.8,232.8,201.9z"/>
								<path class="st11" d="M240,198.1h-1.4v-4l-1.6,0.7c-0.1-0.1-0.2-0.1-0.3-0.2c-0.1-0.1-0.1-0.2-0.1-0.4
									c0-0.3,0.2-0.6,0.6-0.7l1.7-0.7h0.3c0.2,0,0.4,0.1,0.5,0.2c0.1,0.1,0.2,0.3,0.2,0.5V198.1z M238.7,197.3h1.4v3.5
									c-0.1,0-0.1,0-0.3,0.1c-0.1,0-0.2,0-0.4,0c-0.2,0-0.4,0-0.5-0.1c-0.1-0.1-0.2-0.3-0.2-0.5V197.3z"/>
								<path class="st11" d="M242.3,200c0-0.1,0-0.2,0.1-0.4c0.1-0.1,0.1-0.2,0.2-0.3c0.2,0.1,0.4,0.2,0.7,0.3s0.6,0.1,0.9,0.1
									c0.4,0,0.8-0.1,1.2-0.3c0.3-0.2,0.6-0.5,0.8-0.9c0.2-0.4,0.3-0.9,0.3-1.5c-0.1,0.1-0.2,0.2-0.4,0.3s-0.4,0.2-0.6,0.3
									c-0.2,0.1-0.5,0.1-0.9,0.1c-0.5,0-1-0.1-1.4-0.3c-0.4-0.2-0.8-0.5-1-0.8c-0.3-0.4-0.4-0.9-0.4-1.5c0-0.5,0.1-1,0.4-1.4
									s0.6-0.7,1-0.9s0.9-0.3,1.5-0.3c0.6,0,1.2,0.1,1.6,0.4c0.5,0.3,0.8,0.7,1.1,1.3c0.3,0.6,0.4,1.3,0.4,2.2
									c0,1-0.2,1.9-0.5,2.5c-0.3,0.6-0.7,1.1-1.3,1.4c-0.5,0.3-1.2,0.5-1.9,0.5c-0.6,0-1-0.1-1.4-0.2S242.3,200.3,242.3,200z
									 M244.9,196.8c0.4,0,0.7-0.1,1-0.3c0.3-0.2,0.5-0.4,0.6-0.6l0,0.1c0-0.7-0.2-1.2-0.5-1.6c-0.3-0.4-0.7-0.6-1.3-0.6
									c-0.4,0-0.8,0.1-1.1,0.4c-0.3,0.3-0.4,0.7-0.4,1.1c0,0.5,0.2,0.9,0.5,1.2S244.4,196.8,244.9,196.8z"/>
								<path class="st11" d="M249.3,192.8h4.7c0.1,0.1,0.2,0.1,0.3,0.3c0.1,0.1,0.1,0.2,0.1,0.4c0,0.1,0,0.2,0,0.3
									s-0.1,0.2-0.1,0.3l-3.1,6.7c-0.1,0-0.1,0-0.2,0s-0.1,0-0.2,0c-0.2,0-0.4,0-0.6-0.2c-0.2-0.1-0.2-0.3-0.2-0.5
									c0-0.1,0-0.3,0.1-0.4c0.1-0.1,0.1-0.3,0.2-0.5l2.7-5.5H249c0-0.1-0.1-0.1-0.1-0.2s-0.1-0.2-0.1-0.3c0-0.2,0-0.3,0.1-0.4
									C249.1,192.8,249.2,192.8,249.3,192.8z"/>
								<path class="st11" d="M255.4,193.7c0-0.2,0.1-0.4,0.3-0.5c0.2-0.2,0.5-0.3,0.8-0.4c0.3-0.1,0.7-0.1,1.2-0.1
									c0.6,0,1.1,0.1,1.5,0.3c0.4,0.2,0.7,0.5,1,0.8s0.3,0.7,0.3,1.2c0,0.5-0.1,0.9-0.4,1.4s-0.7,1-1.3,1.5l-2,1.8h3.7
									c0,0.1,0.1,0.1,0.1,0.2c0,0.1,0,0.2,0,0.3c0,0.2,0,0.3-0.1,0.4c-0.1,0.1-0.2,0.1-0.4,0.1h-4.6c-0.1-0.1-0.2-0.2-0.3-0.3
									c-0.1-0.1-0.1-0.3-0.1-0.4c0-0.2,0-0.3,0.1-0.5s0.2-0.3,0.3-0.3l2.2-2.1c0.5-0.5,0.9-0.9,1.1-1.2c0.2-0.3,0.3-0.6,0.3-1
									c0-0.4-0.1-0.7-0.4-0.9s-0.6-0.3-1.1-0.3c-0.4,0-0.7,0.1-1,0.2s-0.5,0.3-0.7,0.4c-0.1-0.1-0.2-0.1-0.3-0.2
									C255.4,194,255.4,193.8,255.4,193.7z"/>
							</g>
						</g>
					</g>
					<g transform="translate(537.8336312183496,0)">
						<line class="st9" x1="245.3" y1="179.7" x2="245.3" y2="187.5"/>
						<g>
							<g class="st10">
								<path class="st11" d="M209.1,197h1.4v1.7c0,0.5-0.1,0.9-0.3,1.3c-0.2,0.3-0.5,0.6-0.8,0.7s-0.7,0.2-1.1,0.2
									c-0.5,0-0.8-0.1-1.1-0.2c-0.3-0.1-0.4-0.3-0.4-0.6c0-0.1,0-0.3,0.1-0.4c0.1-0.1,0.1-0.2,0.1-0.2c0.1,0.1,0.3,0.1,0.5,0.1
									c0.2,0,0.3,0.1,0.5,0.1c0.4,0,0.7-0.1,0.9-0.3s0.3-0.5,0.3-0.9V197z M210.5,197.4h-1.4v-4.6c0.1,0,0.2,0,0.3-0.1
									s0.2,0,0.4,0c0.3,0,0.4,0,0.6,0.1s0.2,0.3,0.2,0.5V197.4z"/>
								<path class="st11" d="M213.8,198h-1.3v-3.4c0.1,0,0.1,0,0.3-0.1c0.1,0,0.2,0,0.4,0c0.2,0,0.4,0,0.5,0.1
									c0.1,0.1,0.2,0.3,0.2,0.5V198z M212.4,198.4v-1.1h1.3v1.1c0,0.5,0.1,0.9,0.4,1.1c0.3,0.2,0.6,0.3,1.1,0.3
									c0.3,0,0.6,0,0.8-0.1s0.4-0.1,0.5-0.2v-2.2h1.3v2.3c0,0.2,0,0.3-0.1,0.5c-0.1,0.1-0.2,0.2-0.4,0.4c-0.2,0.1-0.5,0.2-0.9,0.4
									s-0.8,0.2-1.3,0.2c-0.6,0-1.1-0.1-1.5-0.3c-0.4-0.2-0.8-0.4-1-0.8C212.5,199.5,212.4,199,212.4,198.4z M217.9,198h-1.3v-3.4
									c0.1,0,0.1,0,0.3-0.1s0.2,0,0.4,0c0.3,0,0.4,0,0.6,0.1c0.1,0.1,0.2,0.3,0.2,0.5V198z"/>
								<path class="st11" d="M221.2,198.1l-1.3-0.1v-5.7c0.1,0,0.1,0,0.3-0.1s0.2,0,0.4,0c0.3,0,0.4,0,0.6,0.1
									c0.1,0.1,0.2,0.3,0.2,0.5V198.1z M219.8,197.3l1.3,0.1v3.3c-0.1,0-0.1,0.1-0.2,0.1c-0.1,0-0.2,0-0.4,0c-0.2,0-0.4,0-0.5-0.1
									s-0.2-0.3-0.2-0.5V197.3z"/>
								<path class="st11" d="M223,192.7c0-0.2,0.1-0.4,0.2-0.6s0.3-0.2,0.6-0.2c0.2,0,0.4,0.1,0.6,0.2s0.2,0.3,0.2,0.6
									c0,0.2-0.1,0.4-0.2,0.6c-0.1,0.2-0.3,0.2-0.6,0.2c-0.2,0-0.4-0.1-0.6-0.2C223.1,193.1,223,193,223,192.7z M224.5,198h-1.3
									v-3.3c0.1,0,0.1,0,0.3-0.1c0.1,0,0.2,0,0.4,0c0.2,0,0.4,0,0.5,0.1c0.1,0.1,0.2,0.3,0.2,0.5V198z M223.2,197.3h1.3v3.4
									c-0.1,0-0.1,0.1-0.3,0.1s-0.2,0-0.4,0c-0.2,0-0.4,0-0.5-0.1s-0.2-0.3-0.2-0.5V197.3z"/>
								<path class="st11" d="M232.2,197.7c0,0.7-0.1,1.2-0.4,1.7c-0.3,0.5-0.6,0.9-1.1,1.1c-0.5,0.3-1,0.4-1.6,0.4
									c-0.6,0-1.2-0.1-1.6-0.4c-0.5-0.3-0.8-0.6-1.1-1.1c-0.3-0.5-0.4-1.1-0.4-1.7c0-0.7,0.1-1.2,0.4-1.7s0.6-0.9,1.1-1.1
									c0.5-0.3,1-0.4,1.6-0.4c0.6,0,1.1,0.1,1.6,0.4c0.5,0.3,0.8,0.6,1.1,1.1S232.2,197,232.2,197.7z M229.2,195.5
									c-0.5,0-0.9,0.2-1.3,0.6c-0.3,0.4-0.5,0.9-0.5,1.6c0,0.7,0.2,1.2,0.5,1.6c0.3,0.4,0.7,0.6,1.3,0.6c0.5,0,1-0.2,1.3-0.6
									c0.3-0.4,0.5-0.9,0.5-1.6c0-0.7-0.2-1.2-0.5-1.6C230.1,195.7,229.7,195.5,229.2,195.5z"/>
								<path class="st11" d="M236.2,193.7c0-0.2,0.1-0.4,0.3-0.5c0.2-0.2,0.5-0.3,0.8-0.4c0.3-0.1,0.7-0.1,1.2-0.1
									c0.6,0,1.1,0.1,1.5,0.3c0.4,0.2,0.7,0.5,1,0.8s0.3,0.7,0.3,1.2c0,0.5-0.1,0.9-0.4,1.4s-0.7,1-1.3,1.5l-2,1.8h3.7
									c0,0.1,0.1,0.1,0.1,0.2c0,0.1,0,0.2,0,0.3c0,0.2,0,0.3-0.1,0.4c-0.1,0.1-0.2,0.1-0.4,0.1h-4.6c-0.1-0.1-0.2-0.2-0.3-0.3
									c-0.1-0.1-0.1-0.3-0.1-0.4c0-0.2,0-0.3,0.1-0.5s0.2-0.3,0.3-0.3l2.2-2.1c0.5-0.5,0.9-0.9,1.1-1.2c0.2-0.3,0.3-0.6,0.3-1
									c0-0.4-0.1-0.7-0.4-0.9s-0.6-0.3-1.1-0.3c-0.4,0-0.7,0.1-1,0.2s-0.5,0.3-0.7,0.4c-0.1-0.1-0.2-0.1-0.3-0.2
									C236.2,194,236.2,193.8,236.2,193.7z"/>
								<path class="st11" d="M245,192.6c0.9,0,1.6,0.2,2.1,0.6c0.5,0.4,0.8,0.9,0.8,1.6c0,0.3-0.1,0.6-0.2,0.9
									c-0.1,0.2-0.3,0.4-0.5,0.6c-0.2,0.1-0.4,0.2-0.5,0.3c0.2,0.1,0.5,0.2,0.7,0.4c0.2,0.2,0.4,0.4,0.5,0.6
									c0.1,0.3,0.2,0.6,0.2,1c0,0.5-0.1,0.9-0.4,1.3s-0.6,0.6-1.1,0.8c-0.5,0.2-1,0.3-1.6,0.3c-0.5,0-1-0.1-1.3-0.2
									c-0.4-0.1-0.7-0.2-0.9-0.4c-0.2-0.2-0.3-0.4-0.3-0.6c0-0.1,0-0.3,0.1-0.4c0.1-0.1,0.2-0.2,0.3-0.3c0.2,0.2,0.5,0.3,0.8,0.4
									c0.3,0.1,0.7,0.2,1.2,0.2c0.5,0,1-0.1,1.3-0.3c0.3-0.2,0.5-0.6,0.5-1c0-0.4-0.1-0.7-0.4-0.9c-0.3-0.2-0.7-0.4-1.3-0.4h-1.1
									c0-0.1-0.1-0.1-0.1-0.2c0-0.1,0-0.2,0-0.3c0-0.1,0-0.2,0-0.3c0-0.1,0.1-0.2,0.1-0.2h1.1c0.6,0,1-0.1,1.2-0.3
									c0.2-0.2,0.4-0.5,0.4-0.8c0-0.4-0.1-0.7-0.4-0.9c-0.3-0.2-0.7-0.3-1.2-0.3c-0.4,0-0.8,0.1-1.1,0.2s-0.6,0.2-0.8,0.4
									c-0.1-0.1-0.2-0.1-0.3-0.3c-0.1-0.1-0.1-0.2-0.1-0.4c0-0.2,0.1-0.4,0.3-0.5c0.2-0.2,0.5-0.3,0.8-0.4S244.6,192.6,245,192.6z
									"/>
								<path class="st11" d="M250,201.9c-0.2,0.3-0.4,0.4-0.7,0.4c-0.2,0-0.4-0.1-0.6-0.2c0.1-0.3,0.2-0.5,0.3-0.9
									c0.1-0.3,0.2-0.7,0.3-1s0.2-0.6,0.2-0.9c0.1,0,0.2-0.1,0.3-0.1s0.2,0,0.4,0c0.2,0,0.3,0,0.5,0.1c0.1,0.1,0.2,0.2,0.2,0.4
									c0,0.2,0,0.4-0.1,0.7c-0.1,0.3-0.2,0.6-0.3,0.8C250.2,201.6,250.1,201.8,250,201.9z"/>
								<path class="st11" d="M257.2,198.1h-1.4v-4l-1.6,0.7c-0.1-0.1-0.2-0.1-0.3-0.2c-0.1-0.1-0.1-0.2-0.1-0.4
									c0-0.3,0.2-0.6,0.6-0.7l1.7-0.7h0.3c0.2,0,0.4,0.1,0.5,0.2c0.1,0.1,0.2,0.3,0.2,0.5V198.1z M255.9,197.3h1.4v3.5
									c-0.1,0-0.1,0-0.3,0.1c-0.1,0-0.2,0-0.4,0c-0.2,0-0.4,0-0.5-0.1c-0.1-0.1-0.2-0.3-0.2-0.5V197.3z"/>
								<path class="st11" d="M259.5,200c0-0.1,0-0.2,0.1-0.4c0.1-0.1,0.1-0.2,0.2-0.3c0.2,0.1,0.4,0.2,0.7,0.3s0.6,0.1,0.9,0.1
									c0.4,0,0.8-0.1,1.2-0.3c0.3-0.2,0.6-0.5,0.8-0.9c0.2-0.4,0.3-0.9,0.3-1.5c-0.1,0.1-0.2,0.2-0.4,0.3s-0.4,0.2-0.6,0.3
									c-0.2,0.1-0.5,0.1-0.9,0.1c-0.5,0-1-0.1-1.4-0.3c-0.4-0.2-0.8-0.5-1-0.8c-0.3-0.4-0.4-0.9-0.4-1.5c0-0.5,0.1-1,0.4-1.4
									s0.6-0.7,1-0.9s0.9-0.3,1.5-0.3c0.6,0,1.2,0.1,1.6,0.4c0.5,0.3,0.8,0.7,1.1,1.3c0.3,0.6,0.4,1.3,0.4,2.2
									c0,1-0.2,1.9-0.5,2.5c-0.3,0.6-0.7,1.1-1.3,1.4c-0.5,0.3-1.2,0.5-1.9,0.5c-0.6,0-1-0.1-1.4-0.2S259.5,200.3,259.5,200z
									 M262.1,196.8c0.4,0,0.7-0.1,1-0.3c0.3-0.2,0.5-0.4,0.6-0.6l0,0.1c0-0.7-0.2-1.2-0.5-1.6c-0.3-0.4-0.7-0.6-1.3-0.6
									c-0.4,0-0.8,0.1-1.1,0.4c-0.3,0.3-0.4,0.7-0.4,1.1c0,0.5,0.2,0.9,0.5,1.2S261.6,196.8,262.1,196.8z"/>
								<path class="st11" d="M266.5,192.8h4.7c0.1,0.1,0.2,0.1,0.3,0.3c0.1,0.1,0.1,0.2,0.1,0.4c0,0.1,0,0.2,0,0.3
									s-0.1,0.2-0.1,0.3l-3.1,6.7c-0.1,0-0.1,0-0.2,0s-0.1,0-0.2,0c-0.2,0-0.4,0-0.6-0.2c-0.2-0.1-0.2-0.3-0.2-0.5
									c0-0.1,0-0.3,0.1-0.4c0.1-0.1,0.1-0.3,0.2-0.5l2.7-5.5h-3.9c0-0.1-0.1-0.1-0.1-0.2s-0.1-0.2-0.1-0.3c0-0.2,0-0.3,0.1-0.4
									C266.2,192.8,266.4,192.8,266.5,192.8z"/>
								<path class="st11" d="M274.7,192.6c0.9,0,1.6,0.2,2.1,0.6c0.5,0.4,0.8,0.9,0.8,1.6c0,0.3-0.1,0.6-0.2,0.9
									c-0.1,0.2-0.3,0.4-0.5,0.6c-0.2,0.1-0.4,0.2-0.5,0.3c0.2,0.1,0.5,0.2,0.7,0.4c0.2,0.2,0.4,0.4,0.5,0.6
									c0.1,0.3,0.2,0.6,0.2,1c0,0.5-0.1,0.9-0.4,1.3s-0.6,0.6-1.1,0.8c-0.5,0.2-1,0.3-1.6,0.3c-0.5,0-1-0.1-1.3-0.2
									c-0.4-0.1-0.7-0.2-0.9-0.4c-0.2-0.2-0.3-0.4-0.3-0.6c0-0.1,0-0.3,0.1-0.4c0.1-0.1,0.2-0.2,0.3-0.3c0.2,0.2,0.5,0.3,0.8,0.4
									c0.3,0.1,0.7,0.2,1.2,0.2c0.5,0,1-0.1,1.3-0.3c0.3-0.2,0.5-0.6,0.5-1c0-0.4-0.1-0.7-0.4-0.9c-0.3-0.2-0.7-0.4-1.3-0.4h-1.1
									c0-0.1-0.1-0.1-0.1-0.2c0-0.1,0-0.2,0-0.3c0-0.1,0-0.2,0-0.3c0-0.1,0.1-0.2,0.1-0.2h1.1c0.6,0,1-0.1,1.2-0.3
									c0.2-0.2,0.4-0.5,0.4-0.8c0-0.4-0.1-0.7-0.4-0.9c-0.3-0.2-0.7-0.3-1.2-0.3c-0.4,0-0.8,0.1-1.1,0.2s-0.6,0.2-0.8,0.4
									c-0.1-0.1-0.2-0.1-0.3-0.3c-0.1-0.1-0.1-0.2-0.1-0.4c0-0.2,0.1-0.4,0.3-0.5c0.2-0.2,0.5-0.3,0.8-0.4
									S274.2,192.6,274.7,192.6z"/>
							</g>
						</g>
					</g>
					<g transform="translate(620.5004468275247,0)">
						<line class="st9" x1="270.9" y1="179.7" x2="270.9" y2="187.5"/>
						<g>
							<g class="st10">
								<path class="st11" d="M232.5,197h1.4v1.7c0,0.5-0.1,0.9-0.3,1.3c-0.2,0.3-0.5,0.6-0.8,0.7s-0.7,0.2-1.1,0.2
									c-0.5,0-0.8-0.1-1.1-0.2c-0.3-0.1-0.4-0.3-0.4-0.6c0-0.1,0-0.3,0.1-0.4c0.1-0.1,0.1-0.2,0.1-0.2c0.1,0.1,0.3,0.1,0.5,0.1
									c0.2,0,0.3,0.1,0.5,0.1c0.4,0,0.7-0.1,0.9-0.3s0.3-0.5,0.3-0.9V197z M233.9,197.4h-1.4v-4.6c0.1,0,0.2,0,0.3-0.1
									s0.2,0,0.4,0c0.3,0,0.4,0,0.6,0.1s0.2,0.3,0.2,0.5V197.4z"/>
								<path class="st11" d="M237.2,198h-1.3v-3.4c0.1,0,0.1,0,0.3-0.1c0.1,0,0.2,0,0.4,0c0.2,0,0.4,0,0.5,0.1
									c0.1,0.1,0.2,0.3,0.2,0.5V198z M235.8,198.4v-1.1h1.3v1.1c0,0.5,0.1,0.9,0.4,1.1c0.3,0.2,0.6,0.3,1.1,0.3
									c0.3,0,0.6,0,0.8-0.1s0.4-0.1,0.5-0.2v-2.2h1.3v2.3c0,0.2,0,0.3-0.1,0.5c-0.1,0.1-0.2,0.2-0.4,0.4c-0.2,0.1-0.5,0.2-0.9,0.4
									s-0.8,0.2-1.3,0.2c-0.6,0-1.1-0.1-1.5-0.3c-0.4-0.2-0.8-0.4-1-0.8C235.9,199.5,235.8,199,235.8,198.4z M241.3,198H240v-3.4
									c0.1,0,0.1,0,0.3-0.1s0.2,0,0.4,0c0.3,0,0.4,0,0.6,0.1c0.1,0.1,0.2,0.3,0.2,0.5V198z"/>
								<path class="st11" d="M248.6,196.7v1.3h-1.3v-1.2c0-0.4-0.1-0.7-0.4-0.9c-0.2-0.2-0.6-0.3-1-0.3c-0.3,0-0.6,0-0.8,0.1
									c-0.2,0.1-0.5,0.2-0.6,0.3v2.1h-1.3v-2.1c0-0.2,0-0.4,0.1-0.5c0.1-0.1,0.2-0.2,0.4-0.4c0.2-0.1,0.6-0.3,1-0.4
									c0.4-0.1,0.8-0.2,1.3-0.2c0.8,0,1.5,0.2,2,0.6C248.4,195.4,248.6,196,248.6,196.7z M243.1,197.3h1.3v3.4
									c-0.1,0-0.1,0.1-0.3,0.1s-0.2,0-0.4,0c-0.2,0-0.4,0-0.5-0.1s-0.2-0.3-0.2-0.5V197.3z M247.3,197.3h1.3v3.4
									c-0.1,0-0.1,0.1-0.3,0.1s-0.2,0-0.4,0c-0.3,0-0.4,0-0.6-0.1s-0.2-0.3-0.2-0.5V197.3z"/>
								<path class="st11" d="M250.4,192.7c0-0.2,0.1-0.4,0.2-0.6s0.3-0.2,0.6-0.2c0.2,0,0.4,0.1,0.6,0.2s0.2,0.3,0.2,0.6
									c0,0.2-0.1,0.4-0.2,0.6c-0.1,0.2-0.3,0.2-0.6,0.2c-0.2,0-0.4-0.1-0.6-0.2C250.4,193.1,250.4,193,250.4,192.7z M251.9,198
									h-1.3v-3.3c0.1,0,0.1,0,0.3-0.1c0.1,0,0.2,0,0.4,0c0.2,0,0.4,0,0.5,0.1c0.1,0.1,0.2,0.3,0.2,0.5V198z M250.5,197.3h1.3v3.4
									c-0.1,0-0.1,0.1-0.3,0.1s-0.2,0-0.4,0c-0.2,0-0.4,0-0.5-0.1s-0.2-0.3-0.2-0.5V197.3z"/>
								<path class="st11" d="M259.6,197.7c0,0.7-0.1,1.2-0.4,1.7c-0.3,0.5-0.6,0.9-1.1,1.1c-0.5,0.3-1,0.4-1.6,0.4
									c-0.6,0-1.2-0.1-1.6-0.4c-0.5-0.3-0.8-0.6-1.1-1.1c-0.3-0.5-0.4-1.1-0.4-1.7c0-0.7,0.1-1.2,0.4-1.7s0.6-0.9,1.1-1.1
									c0.5-0.3,1-0.4,1.6-0.4c0.6,0,1.1,0.1,1.6,0.4c0.5,0.3,0.8,0.6,1.1,1.1S259.6,197,259.6,197.7z M256.5,195.5
									c-0.5,0-0.9,0.2-1.3,0.6c-0.3,0.4-0.5,0.9-0.5,1.6c0,0.7,0.2,1.2,0.5,1.6c0.3,0.4,0.7,0.6,1.3,0.6c0.5,0,1-0.2,1.3-0.6
									c0.3-0.4,0.5-0.9,0.5-1.6c0-0.7-0.2-1.2-0.5-1.6C257.5,195.7,257.1,195.5,256.5,195.5z"/>
								<path class="st11" d="M263.6,193.7c0-0.2,0.1-0.4,0.3-0.5c0.2-0.2,0.5-0.3,0.8-0.4c0.3-0.1,0.7-0.1,1.2-0.1
									c0.6,0,1.1,0.1,1.5,0.3c0.4,0.2,0.7,0.5,1,0.8s0.3,0.7,0.3,1.2c0,0.5-0.1,0.9-0.4,1.4s-0.7,1-1.3,1.5l-2,1.8h3.7
									c0,0.1,0.1,0.1,0.1,0.2c0,0.1,0,0.2,0,0.3c0,0.2,0,0.3-0.1,0.4c-0.1,0.1-0.2,0.1-0.4,0.1h-4.6c-0.1-0.1-0.2-0.2-0.3-0.3
									c-0.1-0.1-0.1-0.3-0.1-0.4c0-0.2,0-0.3,0.1-0.5s0.2-0.3,0.3-0.3l2.2-2.1c0.5-0.5,0.9-0.9,1.1-1.2c0.2-0.3,0.3-0.6,0.3-1
									c0-0.4-0.1-0.7-0.4-0.9s-0.6-0.3-1.1-0.3c-0.4,0-0.7,0.1-1,0.2s-0.5,0.3-0.7,0.4c-0.1-0.1-0.2-0.1-0.3-0.2
									C263.6,194,263.6,193.8,263.6,193.7z"/>
								<path class="st11" d="M270,197.6l3.6-4.8c0.1,0,0.2,0,0.3-0.1c0.1,0,0.2,0,0.4,0c0.2,0,0.3,0,0.4,0.1c0.1,0,0.3,0.1,0.3,0.2
									s0.1,0.3,0.1,0.5v4.3h1.2c0,0.1,0.1,0.1,0.1,0.2c0,0.1,0.1,0.2,0.1,0.3c0,0.2,0,0.3-0.1,0.4c-0.1,0.1-0.2,0.1-0.4,0.1h-0.9
									v1.9c-0.1,0-0.1,0-0.2,0.1s-0.2,0-0.3,0c-0.2,0-0.4,0-0.5-0.1c-0.1-0.1-0.2-0.2-0.2-0.5v-1.4h-3.6c-0.1-0.1-0.2-0.1-0.3-0.3
									c-0.1-0.1-0.1-0.3-0.1-0.5c0-0.1,0-0.2,0-0.3S270,197.7,270,197.6z M274,197.8l0-3.7h0l-2.6,3.7H274z"/>
								<path class="st11" d="M278,201.9c-0.2,0.3-0.4,0.4-0.7,0.4c-0.2,0-0.4-0.1-0.6-0.2c0.1-0.3,0.2-0.5,0.3-0.9
									c0.1-0.3,0.2-0.7,0.3-1s0.2-0.6,0.2-0.9c0.1,0,0.2-0.1,0.3-0.1s0.2,0,0.4,0c0.2,0,0.3,0,0.5,0.1c0.1,0.1,0.2,0.2,0.2,0.4
									c0,0.2,0,0.4-0.1,0.7c-0.1,0.3-0.2,0.6-0.3,0.8C278.2,201.6,278.1,201.8,278,201.9z"/>
								<path class="st11" d="M285.3,198.1h-1.4v-4l-1.6,0.7c-0.1-0.1-0.2-0.1-0.3-0.2c-0.1-0.1-0.1-0.2-0.1-0.4
									c0-0.3,0.2-0.6,0.6-0.7l1.7-0.7h0.3c0.2,0,0.4,0.1,0.5,0.2c0.1,0.1,0.2,0.3,0.2,0.5V198.1z M283.9,197.3h1.4v3.5
									c-0.1,0-0.1,0-0.3,0.1c-0.1,0-0.2,0-0.4,0c-0.2,0-0.4,0-0.5-0.1c-0.1-0.1-0.2-0.3-0.2-0.5V197.3z"/>
								<path class="st11" d="M287.5,200c0-0.1,0-0.2,0.1-0.4c0.1-0.1,0.1-0.2,0.2-0.3c0.2,0.1,0.4,0.2,0.7,0.3s0.6,0.1,0.9,0.1
									c0.4,0,0.8-0.1,1.2-0.3c0.3-0.2,0.6-0.5,0.8-0.9c0.2-0.4,0.3-0.9,0.3-1.5c-0.1,0.1-0.2,0.2-0.4,0.3s-0.4,0.2-0.6,0.3
									c-0.2,0.1-0.5,0.1-0.9,0.1c-0.5,0-1-0.1-1.4-0.3c-0.4-0.2-0.8-0.5-1-0.8c-0.3-0.4-0.4-0.9-0.4-1.5c0-0.5,0.1-1,0.4-1.4
									s0.6-0.7,1-0.9s0.9-0.3,1.5-0.3c0.6,0,1.2,0.1,1.6,0.4c0.5,0.3,0.8,0.7,1.1,1.3c0.3,0.6,0.4,1.3,0.4,2.2
									c0,1-0.2,1.9-0.5,2.5c-0.3,0.6-0.7,1.1-1.3,1.4c-0.5,0.3-1.2,0.5-1.9,0.5c-0.6,0-1-0.1-1.4-0.2S287.5,200.3,287.5,200z
									 M290.1,196.8c0.4,0,0.7-0.1,1-0.3c0.3-0.2,0.5-0.4,0.6-0.6l0,0.1c0-0.7-0.2-1.2-0.5-1.6c-0.3-0.4-0.7-0.6-1.3-0.6
									c-0.4,0-0.8,0.1-1.1,0.4c-0.3,0.3-0.4,0.7-0.4,1.1c0,0.5,0.2,0.9,0.5,1.2S289.6,196.8,290.1,196.8z"/>
								<path class="st11" d="M296.5,196.4l0.8-0.2c0.6-0.1,1-0.3,1.3-0.5c0.3-0.2,0.4-0.5,0.4-0.9c0-0.4-0.1-0.7-0.4-0.9
									c-0.3-0.2-0.6-0.3-1.1-0.3c-0.5,0-0.8,0.1-1.1,0.3c-0.3,0.2-0.4,0.5-0.4,0.9c0,0.3,0.1,0.5,0.2,0.7c0.2,0.2,0.4,0.3,0.6,0.4
									c0.3,0.1,0.6,0.2,0.9,0.2l0.8,0.3c0.3,0.1,0.7,0.2,1,0.4s0.6,0.4,0.8,0.7c0.2,0.3,0.3,0.7,0.3,1.1c0,0.5-0.1,0.9-0.4,1.2
									c-0.3,0.3-0.6,0.6-1.1,0.8s-1,0.3-1.6,0.3s-1.1-0.1-1.6-0.3s-0.8-0.4-1.1-0.8s-0.4-0.8-0.4-1.3c0-0.4,0.1-0.8,0.3-1.1
									c0.2-0.3,0.5-0.5,0.8-0.7C295.8,196.6,296.1,196.5,296.5,196.4z M298.5,196.7l-1,0.3c-0.6,0.1-1,0.3-1.3,0.5s-0.5,0.6-0.5,1
									c0,0.4,0.2,0.7,0.5,0.9c0.3,0.2,0.7,0.3,1.2,0.3c0.5,0,0.9-0.1,1.2-0.3s0.5-0.5,0.5-1c0-0.5-0.2-0.8-0.6-1.1
									c-0.4-0.3-0.9-0.4-1.6-0.5l-0.6-0.2c-0.5-0.1-0.9-0.4-1.2-0.7c-0.3-0.3-0.5-0.7-0.5-1.2c0-0.5,0.1-0.8,0.4-1.2
									c0.2-0.3,0.6-0.6,1-0.8c0.4-0.2,0.9-0.3,1.5-0.3c0.9,0,1.6,0.2,2.1,0.6s0.8,0.9,0.8,1.6c0,0.5-0.2,1-0.5,1.3
									C299.5,196.4,299,196.6,298.5,196.7z"/>
								<path class="st11" d="M305,200.9c-0.6,0-1.2-0.2-1.7-0.5c-0.5-0.3-0.9-0.8-1.1-1.4c-0.3-0.6-0.4-1.4-0.4-2.3
									c0-1,0.1-1.8,0.4-2.4c0.3-0.6,0.7-1.1,1.2-1.3s1-0.4,1.6-0.4s1.1,0.1,1.6,0.4c0.5,0.3,0.9,0.7,1.2,1.4s0.4,1.4,0.4,2.4
									c0,0.9-0.1,1.7-0.4,2.3c-0.3,0.6-0.7,1.1-1.1,1.4C306.2,200.8,305.7,200.9,305,200.9z M306.9,196.8c0-0.7-0.1-1.3-0.2-1.7
									c-0.2-0.5-0.4-0.8-0.7-1c-0.3-0.2-0.6-0.3-0.9-0.3c-0.3,0-0.7,0.1-0.9,0.3s-0.5,0.5-0.7,1c-0.2,0.5-0.2,1-0.2,1.7
									c0,1,0.2,1.7,0.5,2.3c0.3,0.5,0.8,0.8,1.3,0.8c0.6,0,1-0.3,1.4-0.8C306.7,198.5,306.9,197.7,306.9,196.8z"/>
							</g>
						</g>
					</g>
					<g transform="translate(703.1672624366995,0)">
						<line class="st9" x1="296.5" y1="179.7" x2="296.5" y2="187.5"/>
						<g>
							<g class="st10">
								<path class="st11" d="M258.1,197h1.4v1.7c0,0.5-0.1,0.9-0.3,1.3c-0.2,0.3-0.5,0.6-0.8,0.7s-0.7,0.2-1.1,0.2
									c-0.5,0-0.8-0.1-1.1-0.2c-0.3-0.1-0.4-0.3-0.4-0.6c0-0.1,0-0.3,0.1-0.4c0.1-0.1,0.1-0.2,0.1-0.2c0.1,0.1,0.3,0.1,0.5,0.1
									c0.2,0,0.3,0.1,0.5,0.1c0.4,0,0.7-0.1,0.9-0.3s0.3-0.5,0.3-0.9V197z M259.4,197.4h-1.4v-4.6c0.1,0,0.2,0,0.3-0.1
									s0.2,0,0.4,0c0.3,0,0.4,0,0.6,0.1s0.2,0.3,0.2,0.5V197.4z"/>
								<path class="st11" d="M262.8,198h-1.3v-3.4c0.1,0,0.1,0,0.3-0.1c0.1,0,0.2,0,0.4,0c0.2,0,0.4,0,0.5,0.1
									c0.1,0.1,0.2,0.3,0.2,0.5V198z M261.4,198.4v-1.1h1.3v1.1c0,0.5,0.1,0.9,0.4,1.1c0.3,0.2,0.6,0.3,1.1,0.3
									c0.3,0,0.6,0,0.8-0.1s0.4-0.1,0.5-0.2v-2.2h1.3v2.3c0,0.2,0,0.3-0.1,0.5c-0.1,0.1-0.2,0.2-0.4,0.4c-0.2,0.1-0.5,0.2-0.9,0.4
									s-0.8,0.2-1.3,0.2c-0.6,0-1.1-0.1-1.5-0.3c-0.4-0.2-0.8-0.4-1-0.8C261.5,199.5,261.4,199,261.4,198.4z M266.9,198h-1.3v-3.4
									c0.1,0,0.1,0,0.3-0.1s0.2,0,0.4,0c0.3,0,0.4,0,0.6,0.1c0.1,0.1,0.2,0.3,0.2,0.5V198z"/>
								<path class="st11" d="M274.2,196.7v1.3h-1.3v-1.2c0-0.4-0.1-0.7-0.4-0.9c-0.2-0.2-0.6-0.3-1-0.3c-0.3,0-0.6,0-0.8,0.1
									c-0.2,0.1-0.5,0.2-0.6,0.3v2.1h-1.3v-2.1c0-0.2,0-0.4,0.1-0.5c0.1-0.1,0.2-0.2,0.4-0.4c0.2-0.1,0.6-0.3,1-0.4
									c0.4-0.1,0.8-0.2,1.3-0.2c0.8,0,1.5,0.2,2,0.6C274,195.4,274.2,196,274.2,196.7z M268.7,197.3h1.3v3.4
									c-0.1,0-0.1,0.1-0.3,0.1s-0.2,0-0.4,0c-0.2,0-0.4,0-0.5-0.1s-0.2-0.3-0.2-0.5V197.3z M272.9,197.3h1.3v3.4
									c-0.1,0-0.1,0.1-0.3,0.1s-0.2,0-0.4,0c-0.3,0-0.4,0-0.6-0.1s-0.2-0.3-0.2-0.5V197.3z"/>
								<path class="st11" d="M276,192.7c0-0.2,0.1-0.4,0.2-0.6s0.3-0.2,0.6-0.2c0.2,0,0.4,0.1,0.6,0.2s0.2,0.3,0.2,0.6
									c0,0.2-0.1,0.4-0.2,0.6c-0.1,0.2-0.3,0.2-0.6,0.2c-0.2,0-0.4-0.1-0.6-0.2C276,193.1,276,193,276,192.7z M277.4,198h-1.3
									v-3.3c0.1,0,0.1,0,0.3-0.1c0.1,0,0.2,0,0.4,0c0.2,0,0.4,0,0.5,0.1c0.1,0.1,0.2,0.3,0.2,0.5V198z M276.1,197.3h1.3v3.4
									c-0.1,0-0.1,0.1-0.3,0.1s-0.2,0-0.4,0c-0.2,0-0.4,0-0.5-0.1s-0.2-0.3-0.2-0.5V197.3z"/>
								<path class="st11" d="M285.2,197.7c0,0.7-0.1,1.2-0.4,1.7c-0.3,0.5-0.6,0.9-1.1,1.1c-0.5,0.3-1,0.4-1.6,0.4
									c-0.6,0-1.2-0.1-1.6-0.4c-0.5-0.3-0.8-0.6-1.1-1.1c-0.3-0.5-0.4-1.1-0.4-1.7c0-0.7,0.1-1.2,0.4-1.7s0.6-0.9,1.1-1.1
									c0.5-0.3,1-0.4,1.6-0.4c0.6,0,1.1,0.1,1.6,0.4c0.5,0.3,0.8,0.6,1.1,1.1S285.2,197,285.2,197.7z M282.1,195.5
									c-0.5,0-0.9,0.2-1.3,0.6c-0.3,0.4-0.5,0.9-0.5,1.6c0,0.7,0.2,1.2,0.5,1.6c0.3,0.4,0.7,0.6,1.3,0.6c0.5,0,1-0.2,1.3-0.6
									c0.3-0.4,0.5-0.9,0.5-1.6c0-0.7-0.2-1.2-0.5-1.6C283.1,195.7,282.6,195.5,282.1,195.5z"/>
								<path class="st11" d="M291.9,198.1h-1.4v-4l-1.6,0.7c-0.1-0.1-0.2-0.1-0.3-0.2c-0.1-0.1-0.1-0.2-0.1-0.4
									c0-0.3,0.2-0.6,0.6-0.7l1.7-0.7h0.3c0.2,0,0.4,0.1,0.5,0.2c0.1,0.1,0.2,0.3,0.2,0.5V198.1z M290.6,197.3h1.4v3.5
									c-0.1,0-0.1,0-0.3,0.1c-0.1,0-0.2,0-0.4,0c-0.2,0-0.4,0-0.5-0.1c-0.1-0.1-0.2-0.3-0.2-0.5V197.3z"/>
								<path class="st11" d="M293.9,193.7c0-0.2,0.1-0.4,0.3-0.5c0.2-0.2,0.5-0.3,0.8-0.4c0.3-0.1,0.7-0.1,1.2-0.1
									c0.6,0,1.1,0.1,1.5,0.3c0.4,0.2,0.7,0.5,1,0.8s0.3,0.7,0.3,1.2c0,0.5-0.1,0.9-0.4,1.4s-0.7,1-1.3,1.5l-2,1.8h3.7
									c0,0.1,0.1,0.1,0.1,0.2c0,0.1,0,0.2,0,0.3c0,0.2,0,0.3-0.1,0.4c-0.1,0.1-0.2,0.1-0.4,0.1H294c-0.1-0.1-0.2-0.2-0.3-0.3
									c-0.1-0.1-0.1-0.3-0.1-0.4c0-0.2,0-0.3,0.1-0.5s0.2-0.3,0.3-0.3l2.2-2.1c0.5-0.5,0.9-0.9,1.1-1.2c0.2-0.3,0.3-0.6,0.3-1
									c0-0.4-0.1-0.7-0.4-0.9s-0.6-0.3-1.1-0.3c-0.4,0-0.7,0.1-1,0.2s-0.5,0.3-0.7,0.4c-0.1-0.1-0.2-0.1-0.3-0.2
									C294,194,293.9,193.8,293.9,193.7z"/>
								<path class="st11" d="M301,201.9c-0.2,0.3-0.4,0.4-0.7,0.4c-0.2,0-0.4-0.1-0.6-0.2c0.1-0.3,0.2-0.5,0.3-0.9
									c0.1-0.3,0.2-0.7,0.3-1s0.2-0.6,0.2-0.9c0.1,0,0.2-0.1,0.3-0.1s0.2,0,0.4,0c0.2,0,0.3,0,0.5,0.1c0.1,0.1,0.2,0.2,0.2,0.4
									c0,0.2,0,0.4-0.1,0.7c-0.1,0.3-0.2,0.6-0.3,0.8C301.2,201.6,301.1,201.8,301,201.9z"/>
								<path class="st11" d="M308.3,198.1h-1.4v-4l-1.6,0.7c-0.1-0.1-0.2-0.1-0.3-0.2c-0.1-0.1-0.1-0.2-0.1-0.4
									c0-0.3,0.2-0.6,0.6-0.7l1.7-0.7h0.3c0.2,0,0.4,0.1,0.5,0.2c0.1,0.1,0.2,0.3,0.2,0.5V198.1z M306.9,197.3h1.4v3.5
									c-0.1,0-0.1,0-0.3,0.1c-0.1,0-0.2,0-0.4,0c-0.2,0-0.4,0-0.5-0.1c-0.1-0.1-0.2-0.3-0.2-0.5V197.3z"/>
								<path class="st11" d="M310.6,200c0-0.1,0-0.2,0.1-0.4c0.1-0.1,0.1-0.2,0.2-0.3c0.2,0.1,0.4,0.2,0.7,0.3s0.6,0.1,0.9,0.1
									c0.4,0,0.8-0.1,1.2-0.3c0.3-0.2,0.6-0.5,0.8-0.9c0.2-0.4,0.3-0.9,0.3-1.5c-0.1,0.1-0.2,0.2-0.4,0.3s-0.4,0.2-0.6,0.3
									c-0.2,0.1-0.5,0.1-0.9,0.1c-0.5,0-1-0.1-1.4-0.3c-0.4-0.2-0.8-0.5-1-0.8c-0.3-0.4-0.4-0.9-0.4-1.5c0-0.5,0.1-1,0.4-1.4
									s0.6-0.7,1-0.9s0.9-0.3,1.5-0.3c0.6,0,1.2,0.1,1.6,0.4c0.5,0.3,0.8,0.7,1.1,1.3c0.3,0.6,0.4,1.3,0.4,2.2
									c0,1-0.2,1.9-0.5,2.5c-0.3,0.6-0.7,1.1-1.3,1.4c-0.5,0.3-1.2,0.5-1.9,0.5c-0.6,0-1-0.1-1.4-0.2S310.6,200.3,310.6,200z
									 M313.1,196.8c0.4,0,0.7-0.1,1-0.3c0.3-0.2,0.5-0.4,0.6-0.6l0,0.1c0-0.7-0.2-1.2-0.5-1.6c-0.3-0.4-0.7-0.6-1.3-0.6
									c-0.4,0-0.8,0.1-1.1,0.4c-0.3,0.3-0.4,0.7-0.4,1.1c0,0.5,0.2,0.9,0.5,1.2S312.7,196.8,313.1,196.8z"/>
								<path class="st11" d="M319.5,196.4l0.8-0.2c0.6-0.1,1-0.3,1.3-0.5c0.3-0.2,0.4-0.5,0.4-0.9c0-0.4-0.1-0.7-0.4-0.9
									c-0.3-0.2-0.6-0.3-1.1-0.3c-0.5,0-0.8,0.1-1.1,0.3c-0.3,0.2-0.4,0.5-0.4,0.9c0,0.3,0.1,0.5,0.2,0.7c0.2,0.2,0.4,0.3,0.6,0.4
									c0.3,0.1,0.6,0.2,0.9,0.2l0.8,0.3c0.3,0.1,0.7,0.2,1,0.4s0.6,0.4,0.8,0.7c0.2,0.3,0.3,0.7,0.3,1.1c0,0.5-0.1,0.9-0.4,1.2
									c-0.3,0.3-0.6,0.6-1.1,0.8s-1,0.3-1.6,0.3s-1.1-0.1-1.6-0.3s-0.8-0.4-1.1-0.8s-0.4-0.8-0.4-1.3c0-0.4,0.1-0.8,0.3-1.1
									c0.2-0.3,0.5-0.5,0.8-0.7C318.8,196.6,319.2,196.5,319.5,196.4z M321.6,196.7l-1,0.3c-0.6,0.1-1,0.3-1.3,0.5s-0.5,0.6-0.5,1
									c0,0.4,0.2,0.7,0.5,0.9c0.3,0.2,0.7,0.3,1.2,0.3c0.5,0,0.9-0.1,1.2-0.3s0.5-0.5,0.5-1c0-0.5-0.2-0.8-0.6-1.1
									c-0.4-0.3-0.9-0.4-1.6-0.5l-0.6-0.2c-0.5-0.1-0.9-0.4-1.2-0.7c-0.3-0.3-0.5-0.7-0.5-1.2c0-0.5,0.1-0.8,0.4-1.2
									c0.2-0.3,0.6-0.6,1-0.8c0.4-0.2,0.9-0.3,1.5-0.3c0.9,0,1.6,0.2,2.1,0.6s0.8,0.9,0.8,1.6c0,0.5-0.2,1-0.5,1.3
									C322.5,196.4,322.1,196.6,321.6,196.7z"/>
								<path class="st11" d="M326.9,196.4l0.8-0.2c0.6-0.1,1-0.3,1.3-0.5c0.3-0.2,0.4-0.5,0.4-0.9c0-0.4-0.1-0.7-0.4-0.9
									c-0.3-0.2-0.6-0.3-1.1-0.3c-0.5,0-0.8,0.1-1.1,0.3c-0.3,0.2-0.4,0.5-0.4,0.9c0,0.3,0.1,0.5,0.2,0.7c0.2,0.2,0.4,0.3,0.6,0.4
									c0.3,0.1,0.6,0.2,0.9,0.2l0.8,0.3c0.3,0.1,0.7,0.2,1,0.4s0.6,0.4,0.8,0.7c0.2,0.3,0.3,0.7,0.3,1.1c0,0.5-0.1,0.9-0.4,1.2
									c-0.3,0.3-0.6,0.6-1.1,0.8s-1,0.3-1.6,0.3s-1.1-0.1-1.6-0.3s-0.8-0.4-1.1-0.8s-0.4-0.8-0.4-1.3c0-0.4,0.1-0.8,0.3-1.1
									c0.2-0.3,0.5-0.5,0.8-0.7C326.3,196.6,326.6,196.5,326.9,196.4z M329,196.7l-1,0.3c-0.6,0.1-1,0.3-1.3,0.5s-0.5,0.6-0.5,1
									c0,0.4,0.2,0.7,0.5,0.9c0.3,0.2,0.7,0.3,1.2,0.3c0.5,0,0.9-0.1,1.2-0.3s0.5-0.5,0.5-1c0-0.5-0.2-0.8-0.6-1.1
									c-0.4-0.3-0.9-0.4-1.6-0.5l-0.6-0.2c-0.5-0.1-0.9-0.4-1.2-0.7c-0.3-0.3-0.5-0.7-0.5-1.2c0-0.5,0.1-0.8,0.4-1.2
									c0.2-0.3,0.6-0.6,1-0.8c0.4-0.2,0.9-0.3,1.5-0.3c0.9,0,1.6,0.2,2.1,0.6s0.8,0.9,0.8,1.6c0,0.5-0.2,1-0.5,1.3
									C329.9,196.4,329.5,196.6,329,196.7z"/>
							</g>
						</g>
					</g>
					<text transform="matrix(1 0 0 1 1009.0567 174.4178)" class="st12 st13 st14">Fecha</text>
				</g>
				<g id="yAxis_00000031183005862454080930000006496954567767313806_">
					<path class="st9" d="M71,740.3h8.5V7H71"/>
					<g transform="translate(0,560.5)">
						<line class="st9" x1="78.9" y1="179.8" x2="71" y2="179.8"/>
						<text transform="matrix(1 0 0 1 59.8096 184.0009)" class="st11 st15 st16">0</text>
					</g>
					<g transform="translate(0,498.27777777777777)">
						<line class="st9" x1="78.9" y1="160.6" x2="71" y2="160.6"/>
						<text transform="matrix(1 0 0 1 59.8096 164.7416)" class="st11 st15 st16">5</text>
					</g>
					<g transform="translate(0,436.05555555555554)">
						<line class="st9" x1="78.9" y1="141.3" x2="71" y2="141.3"/>
						<text transform="matrix(1 0 0 1 52.5264 145.4824)" class="st11 st15 st16">10</text>
					</g>
					<g transform="translate(0,373.83333333333337)">
						<line class="st9" x1="78.9" y1="122" x2="71" y2="122"/>
						<text transform="matrix(1 0 0 1 52.5264 126.2222)" class="st11 st15 st16">15</text>
					</g>
					<g transform="translate(0,311.61111111111114)">
						<line class="st9" x1="78.9" y1="102.8" x2="71" y2="102.8"/>
						<text transform="matrix(1 0 0 1 52.5264 106.964)" class="st11 st15 st16">20</text>
					</g>
					<g transform="translate(0,249.38888888888889)">
						<line class="st9" x1="78.9" y1="83.5" x2="71" y2="83.5"/>
						<text transform="matrix(1 0 0 1 52.5264 87.7038)" class="st11 st15 st16">25</text>
					</g>
					<g transform="translate(0,187.16666666666669)">
						<line class="st9" x1="78.9" y1="64.3" x2="71" y2="64.3"/>
						<text transform="matrix(1 0 0 1 52.5264 68.4455)" class="st11 st15 st16">30</text>
					</g>
					<g transform="translate(0,124.94444444444444)">
						<line class="st9" x1="78.9" y1="45" x2="71" y2="45"/>
						<text transform="matrix(1 0 0 1 52.5264 49.1863)" class="st11 st15 st16">35</text>
					</g>
					<g transform="translate(0,62.72222222222225)">
						<line class="st9" x1="78.9" y1="25.7" x2="71" y2="25.7"/>
						<text transform="matrix(1 0 0 1 52.5264 29.9271)" class="st11 st15 st16">40</text>
					</g>
					<g transform="translate(0,0.5)">
						<line class="st9" x1="78.9" y1="6.5" x2="71" y2="6.5"/>
						<text transform="matrix(1 0 0 1 52.5264 10.6678)" class="st11 st15 st16">45</text>
					</g>
					<text transform="matrix(1 0 0 1 84.1163 19.8036)" class="st12 st13 st14">Nmero de Vctimas [sum]</text>
				</g>
				<g>
					<g>
					</g>
				</g>
			</g>
		</g>
	</g>
	<g>
		<g>
		</g>
	</g>
	<g>
		<g>
			<path class="st17" d="M173.5,218.2c-0.8-0.4-1.4-0.9-1.8-1.6s-0.7-1.5-0.8-2.5h2.9c0.1,0.4,0.2,0.8,0.4,1s0.4,0.5,0.8,0.6
				s0.7,0.2,1.1,0.2c0.7,0,1.2-0.2,1.6-0.6s0.6-0.9,0.6-1.6v-0.5c0-0.8-0.2-1.3-0.5-1.7s-0.8-0.6-1.5-0.6h-1.3v-2.7h1.3
				c0.5,0,1-0.2,1.2-0.5s0.4-0.9,0.4-1.5v-0.4c0-0.6-0.2-1.1-0.5-1.4s-0.8-0.5-1.3-0.5c-0.4,0-0.7,0.1-0.9,0.2s-0.5,0.4-0.7,0.7
				s-0.3,0.7-0.4,1.1h-2.9c0.1-1,0.4-1.8,0.9-2.5s1-1.2,1.7-1.6s1.5-0.6,2.4-0.6c1.5,0,2.6,0.4,3.5,1.2s1.2,1.9,1.2,3.3v0.4
				c0,0.8-0.2,1.5-0.6,2.1s-1,1.1-1.8,1.3c0.9,0.2,1.6,0.6,2,1.3s0.7,1.6,0.7,2.6v0.4c0,1-0.2,1.8-0.6,2.5s-1,1.2-1.7,1.6
				s-1.6,0.6-2.7,0.6C175.2,218.7,174.3,218.5,173.5,218.2z"/>
			<path class="st17" d="M186.8,218.1c-0.7-0.4-1.3-0.9-1.7-1.6s-0.7-1.5-0.8-2.5v0h2.8v0c0.1,0.6,0.3,1.1,0.7,1.5s0.8,0.5,1.4,0.5
				c0.7,0,1.2-0.2,1.5-0.7s0.5-1.1,0.5-1.9V212c0-0.8-0.2-1.4-0.5-1.9s-0.8-0.7-1.5-0.7c-0.4,0-0.8,0.1-1.2,0.4s-0.6,0.6-0.8,1h-2.6
				v-9.4h8.9v2.7h-6.1v3.4c0.3-0.2,0.6-0.4,1-0.6s0.8-0.2,1.2-0.2c0.9,0,1.7,0.2,2.4,0.6s1.2,1,1.5,1.8s0.5,1.7,0.5,2.8v1.4
				c0,1.1-0.2,2-0.6,2.8s-0.9,1.4-1.7,1.8s-1.6,0.6-2.6,0.6C188.3,218.7,187.5,218.5,186.8,218.1z"/>
		</g>
	</g>
	<g>
		<g>
			<path class="st17" d="M284,263.9c-0.8-0.4-1.4-0.9-1.8-1.6s-0.7-1.5-0.8-2.5h2.9c0.1,0.4,0.2,0.8,0.4,1s0.4,0.5,0.8,0.6
				s0.7,0.2,1.1,0.2c0.7,0,1.2-0.2,1.6-0.6s0.6-0.9,0.6-1.6v-0.5c0-0.8-0.2-1.3-0.5-1.7s-0.8-0.6-1.5-0.6h-1.3V254h1.3
				c0.5,0,1-0.2,1.2-0.5s0.4-0.9,0.4-1.5v-0.4c0-0.6-0.2-1.1-0.5-1.4s-0.8-0.5-1.3-0.5c-0.4,0-0.7,0.1-0.9,0.2s-0.5,0.4-0.7,0.7
				s-0.3,0.7-0.4,1.1h-2.9c0.1-1,0.4-1.8,0.9-2.5s1-1.2,1.7-1.6s1.5-0.6,2.4-0.6c1.5,0,2.6,0.4,3.5,1.2s1.2,1.9,1.2,3.3v0.4
				c0,0.8-0.2,1.5-0.6,2.1s-1,1.1-1.8,1.3c0.9,0.2,1.6,0.6,2,1.3s0.7,1.6,0.7,2.6v0.4c0,1-0.2,1.8-0.6,2.5s-1,1.2-1.7,1.6
				s-1.6,0.6-2.7,0.6C285.6,264.4,284.8,264.2,284,263.9z"/>
			<path class="st17" d="M294.5,261.8l5.9-7.8c0.3-0.4,0.5-0.8,0.7-1.2s0.3-0.8,0.3-1.2v0c0-0.6-0.2-1-0.5-1.3s-0.8-0.5-1.5-0.5
				c-0.6,0-1.1,0.2-1.5,0.6s-0.6,0.9-0.7,1.6v0h-2.9v0c0.1-1,0.4-1.9,0.8-2.6s1-1.3,1.7-1.7s1.5-0.6,2.5-0.6c1,0,1.9,0.2,2.7,0.5
				s1.3,0.9,1.7,1.5s0.6,1.5,0.6,2.4v0c0,0.7-0.1,1.4-0.4,2.1s-0.6,1.4-1.1,2l-4.6,6h6.1v2.7h-9.8V261.8z"/>
		</g>
	</g>
	<g>
		<g>
			<path class="st18" d="M392.9,557.5h-2.1v-13.9l-1.7,1.1v-2.9l1.9-1.4h1.9V557.5z"/>
			<path class="st18" d="M395.4,552.4l4.1-11.9h2.3l-4,11.8h6v2.6h-8.4V552.4z M400.7,547.5h2.1v10h-2.1V547.5z"/>
		</g>
	</g>
	<g>
		<g>
			<path class="st17" d="M496.6,166.3c-0.8-0.4-1.4-0.9-1.8-1.6s-0.7-1.5-0.8-2.5h2.9c0.1,0.4,0.2,0.8,0.4,1s0.4,0.5,0.8,0.6
				s0.7,0.2,1.1,0.2c0.7,0,1.2-0.2,1.6-0.6s0.6-0.9,0.6-1.6v-0.5c0-0.8-0.2-1.3-0.5-1.7s-0.8-0.6-1.5-0.6h-1.3v-2.7h1.3
				c0.5,0,1-0.2,1.2-0.5s0.4-0.9,0.4-1.5V154c0-0.6-0.2-1.1-0.5-1.4s-0.8-0.5-1.3-0.5c-0.4,0-0.7,0.1-0.9,0.2s-0.5,0.4-0.7,0.7
				s-0.3,0.7-0.4,1.1h-2.9c0.1-1,0.4-1.8,0.9-2.5s1-1.2,1.7-1.6s1.5-0.6,2.4-0.6c1.5,0,2.6,0.4,3.5,1.2s1.2,1.9,1.2,3.3v0.4
				c0,0.8-0.2,1.5-0.6,2.1s-1,1.1-1.8,1.3c0.9,0.2,1.6,0.6,2,1.3s0.7,1.6,0.7,2.6v0.4c0,1-0.2,1.8-0.6,2.5s-1,1.2-1.7,1.6
				s-1.6,0.6-2.7,0.6C498.2,166.8,497.3,166.7,496.6,166.3z"/>
			<path class="st17" d="M509.6,166.3c-0.8-0.4-1.4-0.9-1.9-1.7s-0.7-1.5-0.7-2.5v-0.3c0-0.9,0.2-1.7,0.7-2.4s1-1.3,1.8-1.7
				c-0.6-0.3-1.1-0.8-1.5-1.4s-0.6-1.3-0.6-2v-0.4c0-0.9,0.2-1.7,0.6-2.3s1-1.2,1.7-1.6s1.6-0.6,2.6-0.6s1.8,0.2,2.6,0.6
				s1.3,0.9,1.7,1.6s0.6,1.5,0.6,2.3v0.4c0,0.7-0.2,1.4-0.6,2s-0.9,1.1-1.6,1.4c0.8,0.4,1.4,1,1.8,1.7s0.7,1.5,0.7,2.4v0.3
				c0,0.9-0.2,1.8-0.7,2.5s-1.1,1.3-1.9,1.7s-1.7,0.6-2.8,0.6S510.4,166.7,509.6,166.3z M513.7,163.9c0.4-0.2,0.7-0.5,0.9-0.8
				s0.3-0.8,0.3-1.2v-0.2c0-0.5-0.1-0.9-0.3-1.2s-0.5-0.6-0.9-0.8s-0.8-0.3-1.3-0.3s-0.9,0.1-1.3,0.3s-0.7,0.5-0.9,0.8
				s-0.3,0.7-0.3,1.2v0.2c0,0.5,0.1,0.9,0.3,1.2s0.5,0.6,0.9,0.8s0.8,0.3,1.3,0.3S513.3,164.1,513.7,163.9z M513.5,156.4
				c0.3-0.2,0.6-0.4,0.8-0.8s0.3-0.7,0.3-1.2v-0.2c0-0.4-0.1-0.8-0.3-1.1s-0.4-0.6-0.8-0.7s-0.7-0.3-1.1-0.3s-0.8,0.1-1.1,0.3
				s-0.6,0.4-0.8,0.7s-0.3,0.7-0.3,1.1v0.2c0,0.4,0.1,0.8,0.3,1.2s0.4,0.6,0.8,0.8s0.7,0.3,1.1,0.3S513.2,156.6,513.5,156.4z"/>
		</g>
	</g>
	<g>
		<g>
			<path class="st17" d="M610,510.6h-2.8v-13.9l-2.2,1.1V495l2.5-1.4h2.6V510.6z"/>
			<path class="st17" d="M622.7,495.7l-4.1,14.9h-3l4.1-14.4H616v2.5h-2.8v-5.2h9.5V495.7z"/>
		</g>
	</g>
	<g>
		<g>
			<path class="st17" d="M713.5,310.8l5.9-7.8c0.3-0.4,0.5-0.8,0.7-1.2s0.3-0.8,0.3-1.2v0c0-0.6-0.2-1-0.5-1.3s-0.8-0.5-1.5-0.5
				c-0.6,0-1.1,0.2-1.5,0.6s-0.6,0.9-0.7,1.6v0h-2.9v0c0.1-1,0.4-1.9,0.8-2.6s1-1.3,1.7-1.7s1.5-0.6,2.5-0.6c1,0,1.9,0.2,2.7,0.5
				s1.3,0.9,1.7,1.5s0.6,1.5,0.6,2.4v0c0,0.7-0.1,1.4-0.4,2.1s-0.6,1.4-1.1,2l-4.6,6h6.1v2.7h-9.8V310.8z"/>
			<path class="st17" d="M732,304.8l0.3,0.4c-0.2,0.4-0.5,0.6-0.9,0.8s-0.9,0.3-1.4,0.3c-0.8,0-1.6-0.2-2.2-0.6s-1.1-1-1.5-1.8
				s-0.5-1.6-0.5-2.6v0c0-1.1,0.2-2,0.6-2.8s0.9-1.4,1.7-1.8s1.6-0.6,2.6-0.6s1.9,0.2,2.6,0.6s1.3,1,1.7,1.8s0.6,1.7,0.6,2.8v0
				c0,0.6-0.1,1.2-0.2,1.9s-0.4,1.4-0.7,2.1c0,0.1-0.1,0.2-0.1,0.3s-0.1,0.2-0.1,0.3l-3.3,7.3h-3L732,304.8z M732.2,303
				c0.4-0.4,0.5-1,0.5-1.8v0c0-0.8-0.2-1.4-0.5-1.8s-0.9-0.6-1.5-0.6c-0.7,0-1.2,0.2-1.5,0.6s-0.5,1-0.5,1.8v0
				c0,0.8,0.2,1.4,0.5,1.8s0.9,0.6,1.5,0.6C731.4,303.7,731.9,303.4,732.2,303z"/>
		</g>
	</g>
	<g>
		<g>
			<path class="st17" d="M822.7,166.3c-0.8-0.4-1.4-0.9-1.9-1.6s-0.8-1.5-0.9-2.5h3c0.1,0.4,0.2,0.8,0.4,1c0.2,0.3,0.5,0.5,0.8,0.6
				c0.3,0.1,0.7,0.2,1.1,0.2c0.7,0,1.3-0.2,1.7-0.6c0.4-0.4,0.6-0.9,0.6-1.6v-0.5c0-0.8-0.2-1.3-0.5-1.7c-0.4-0.4-0.9-0.6-1.5-0.6
				h-1.4v-2.7h1.4c0.6,0,1-0.2,1.3-0.5s0.5-0.9,0.5-1.5V154c0-0.6-0.2-1.1-0.5-1.4c-0.3-0.3-0.8-0.5-1.4-0.5c-0.4,0-0.7,0.1-1,0.2
				s-0.5,0.4-0.7,0.7c-0.2,0.3-0.4,0.7-0.4,1.1h-3c0.1-1,0.4-1.8,0.9-2.5c0.5-0.7,1.1-1.2,1.8-1.6c0.7-0.4,1.6-0.6,2.5-0.6
				c1.5,0,2.8,0.4,3.6,1.2c0.9,0.8,1.3,1.9,1.3,3.3v0.4c0,0.8-0.2,1.5-0.7,2.1c-0.4,0.6-1.1,1.1-1.9,1.3c0.9,0.2,1.6,0.6,2.1,1.3
				s0.8,1.6,0.8,2.6v0.4c0,1-0.2,1.8-0.6,2.5c-0.4,0.7-1,1.2-1.8,1.6s-1.7,0.6-2.8,0.6C824.4,166.8,823.5,166.7,822.7,166.3z"/>
			<path class="st17" d="M836.4,166.3c-0.8-0.4-1.5-0.9-1.9-1.7s-0.7-1.5-0.7-2.5v-0.3c0-0.9,0.2-1.7,0.7-2.4
				c0.5-0.8,1.1-1.3,1.9-1.7c-0.7-0.3-1.2-0.8-1.6-1.4c-0.4-0.6-0.6-1.3-0.6-2v-0.4c0-0.9,0.2-1.7,0.6-2.3s1-1.2,1.8-1.6
				s1.7-0.6,2.7-0.6s1.9,0.2,2.7,0.6s1.4,0.9,1.8,1.6c0.4,0.7,0.6,1.5,0.6,2.3v0.4c0,0.7-0.2,1.4-0.6,2s-1,1.1-1.6,1.4
				c0.8,0.4,1.4,1,1.9,1.7c0.5,0.7,0.7,1.5,0.7,2.4v0.3c0,0.9-0.2,1.8-0.7,2.5s-1.1,1.3-1.9,1.7c-0.8,0.4-1.8,0.6-2.9,0.6
				C838.2,166.8,837.2,166.7,836.4,166.3z M840.6,163.9c0.4-0.2,0.7-0.5,0.9-0.8c0.2-0.4,0.3-0.8,0.3-1.2v-0.2
				c0-0.5-0.1-0.9-0.3-1.2c-0.2-0.3-0.5-0.6-0.9-0.8s-0.8-0.3-1.4-0.3s-1,0.1-1.4,0.3c-0.4,0.2-0.7,0.5-0.9,0.8
				c-0.2,0.3-0.3,0.7-0.3,1.2v0.2c0,0.5,0.1,0.9,0.3,1.2c0.2,0.4,0.5,0.6,0.9,0.8c0.4,0.2,0.9,0.3,1.4,0.3
				C839.8,164.2,840.2,164.1,840.6,163.9z M840.4,156.4c0.3-0.2,0.6-0.4,0.8-0.8s0.3-0.7,0.3-1.2v-0.2c0-0.4-0.1-0.8-0.3-1.1
				s-0.4-0.6-0.8-0.7c-0.3-0.2-0.7-0.3-1.2-0.3c-0.4,0-0.8,0.1-1.2,0.3s-0.6,0.4-0.8,0.7s-0.3,0.7-0.3,1.1v0.2
				c0,0.4,0.1,0.8,0.3,1.2s0.4,0.6,0.8,0.8s0.7,0.3,1.2,0.3C839.7,156.7,840.1,156.6,840.4,156.4z"/>
		</g>
	</g>
	<g>
		<g>
			<path class="st17" d="M930,83l5.5-11.9h3l-5.3,11.8h8v2.6H930V83z M937.1,78.1h2.8v10h-2.8V78.1z"/>
			<path class="st17" d="M945.8,87.8c-0.8-0.4-1.4-0.9-1.8-1.6s-0.7-1.5-0.8-2.5h2.9c0.1,0.4,0.2,0.8,0.4,1s0.4,0.5,0.8,0.6
				s0.7,0.2,1.1,0.2c0.7,0,1.2-0.2,1.6-0.6s0.6-0.9,0.6-1.6V83c0-0.8-0.2-1.3-0.5-1.7s-0.8-0.6-1.5-0.6h-1.3v-2.7h1.3
				c0.5,0,1-0.2,1.2-0.5s0.4-0.9,0.4-1.5v-0.4c0-0.6-0.2-1.1-0.5-1.4s-0.8-0.5-1.3-0.5c-0.4,0-0.7,0.1-0.9,0.2s-0.5,0.4-0.7,0.7
				s-0.3,0.7-0.4,1.1h-2.9c0.1-1,0.4-1.8,0.9-2.5s1-1.2,1.7-1.6s1.5-0.6,2.4-0.6c1.5,0,2.6,0.4,3.5,1.2s1.2,1.9,1.2,3.3v0.4
				c0,0.8-0.2,1.5-0.6,2.1s-1,1.1-1.8,1.3c0.9,0.2,1.6,0.6,2,1.3s0.7,1.6,0.7,2.6v0.4c0,1-0.2,1.8-0.6,2.5s-1,1.2-1.7,1.6
				s-1.6,0.6-2.7,0.6C947.5,88.3,946.6,88.1,945.8,87.8z"/>
		</g>
	</g>
</g>
<g id="Capa_3">
	<rect x="134.4" y="23" class="st0" width="202.9" height="30"/>
	<rect x="1057.2" y="735.8" class="st0" width="72.9" height="18.6"/>
</g>
<g id="Capa_4">
	<rect x="1047.7" y="720.5" class="st8" width="55.4" height="37.4"/>
	<g>
		<g>
			<path class="st17" d="M1039.7,67.6l5.5-11.9h3l-5.3,11.8h8v2.6h-11.2V67.6z M1046.8,62.7h2.8v10h-2.8V62.7z"/>
			<path class="st17" d="M1053.3,67.6l5.5-11.9h3l-5.3,11.8h8v2.6h-11.2V67.6z M1060.5,62.7h2.8v10h-2.8V62.7z"/>
		</g>
	</g>
</g>
<g id="Capa_5">
	<g>
		<g>
			<path d="M151.3,34.7v2.9c-0.1,0.1-0.3,0.2-0.6,0.3c-0.2,0.1-0.5,0.1-0.8,0.1c-0.4,0-0.7-0.1-1-0.2c-0.3-0.1-0.5-0.4-0.7-0.8
				l-2.6-4.7c-0.1-0.3-0.3-0.6-0.5-0.9s-0.3-0.6-0.5-0.9s-0.3-0.6-0.4-0.8l-2.2,0.5v-2.8c0.1-0.2,0.3-0.3,0.6-0.4
				c0.3-0.1,0.5-0.1,0.8-0.1c0.4,0,0.7,0.1,1,0.2c0.3,0.1,0.6,0.4,0.8,0.8l2.6,4.7c0.2,0.3,0.3,0.6,0.5,0.9c0.2,0.3,0.3,0.6,0.5,0.9
				c0.1,0.3,0.3,0.6,0.4,0.8L151.3,34.7z M142.1,29.4l2-0.1c0,0.5,0.1,0.9,0.1,1.4c0,0.5,0,1,0.1,1.5c0,0.5,0,1,0,1.4v4.2
				c-0.1,0-0.2,0.1-0.4,0.1c-0.2,0-0.4,0-0.6,0c-0.4,0-0.7-0.1-0.9-0.2s-0.3-0.4-0.3-0.8V29.4z M151.3,35.4l-2.1,0.1
				c-0.1-0.9-0.2-1.8-0.2-2.7c0-0.9,0-1.7,0-2.6v-3.2c0.1,0,0.3-0.1,0.4-0.1c0.2,0,0.4-0.1,0.6-0.1c0.4,0,0.7,0.1,0.9,0.2
				c0.2,0.2,0.3,0.4,0.3,0.8V35.4z"/>
			<path d="M156.4,33.3h-2.3v-6.4c0.1,0,0.2-0.1,0.4-0.1c0.2,0,0.4-0.1,0.6-0.1c0.4,0,0.7,0.1,0.9,0.2c0.2,0.2,0.3,0.4,0.3,0.8V33.3
				z M158.6,38.1c-0.9,0-1.8-0.2-2.4-0.5c-0.7-0.3-1.2-0.8-1.6-1.4s-0.5-1.4-0.5-2.2v-1.3h2.3v1.2c0,0.8,0.2,1.4,0.6,1.8
				s1,0.6,1.6,0.6c0.6,0,1.2-0.2,1.6-0.6s0.6-1,0.6-1.8v-1.2h2.3V34c0,0.8-0.2,1.6-0.5,2.2s-0.9,1.1-1.6,1.4
				C160.4,38,159.6,38.1,158.6,38.1z M158.1,24.6l1.9-1.7c0.4,0,0.7,0.1,0.9,0.3s0.3,0.4,0.3,0.7c0,0.2,0,0.4-0.1,0.5
				c-0.1,0.1-0.3,0.3-0.5,0.5l-1.7,1.2c-0.3,0-0.6-0.1-0.8-0.3c-0.2-0.2-0.3-0.3-0.3-0.6c0-0.1,0-0.3,0.1-0.4S158,24.7,158.1,24.6z
				 M163.2,33.3h-2.3v-6.4c0.1,0,0.2-0.1,0.5-0.1c0.2,0,0.4-0.1,0.6-0.1c0.4,0,0.7,0.1,0.9,0.2c0.2,0.2,0.3,0.4,0.3,0.8V33.3z"/>
			<path d="M172.8,35.1c-0.1,0.1-0.3,0.2-0.5,0.2s-0.4,0.1-0.6,0.1c-0.3,0-0.6,0-0.8-0.1c-0.2-0.1-0.4-0.2-0.4-0.4
				c-0.5-1.2-0.9-2.2-1.3-3.1s-0.6-1.6-0.8-2.3h-0.1c0,0.8-0.1,1.5-0.1,2.2c0,0.7-0.1,1.3-0.1,2c0,0.6-0.1,1.3-0.1,2
				s-0.1,1.4-0.1,2.2c-0.1,0-0.3,0.1-0.5,0.1c-0.2,0-0.4,0.1-0.6,0.1c-0.4,0-0.7-0.1-0.9-0.2c-0.2-0.1-0.3-0.4-0.3-0.7
				c0-0.2,0-0.6,0-1.1s0.1-1.1,0.1-1.8c0-0.7,0.1-1.5,0.1-2.2c0-0.8,0.1-1.6,0.2-2.3c0.1-0.8,0.1-1.5,0.2-2.1
				c0.1-0.1,0.3-0.2,0.5-0.4c0.2-0.1,0.6-0.2,1-0.2c0.4,0,0.8,0.1,1.1,0.2c0.3,0.2,0.5,0.4,0.6,0.7c0.2,0.5,0.5,1.1,0.7,1.7
				c0.2,0.6,0.5,1.3,0.7,1.9c0.2,0.6,0.5,1.2,0.7,1.8h0.1c0.4-1.1,0.8-2.2,1.2-3.3s0.8-2,1.1-2.7c0.1-0.1,0.3-0.1,0.5-0.2
				c0.2,0,0.5-0.1,0.7-0.1c0.4,0,0.8,0.1,1,0.2c0.3,0.1,0.4,0.3,0.5,0.6c0,0.2,0.1,0.6,0.2,1.1c0.1,0.5,0.1,1.1,0.2,1.7
				c0.1,0.7,0.1,1.3,0.2,2.1c0.1,0.7,0.1,1.4,0.2,2.1c0,0.7,0.1,1.3,0.1,1.8c0,0.5,0.1,1,0.1,1.3c-0.2,0.1-0.3,0.2-0.5,0.2
				c-0.2,0-0.4,0.1-0.6,0.1c-0.3,0-0.6-0.1-0.8-0.2c-0.2-0.1-0.3-0.4-0.4-0.7c-0.1-1-0.1-2-0.2-3c0-1-0.1-1.8-0.1-2.6
				c0-0.8-0.1-1.5-0.1-2h-0.1c-0.2,0.6-0.5,1.3-0.8,2.2C173.7,32.6,173.3,33.7,172.8,35.1z"/>
			<path d="M182.3,34.2l-2.2,0v-6c0-0.4,0.1-0.7,0.3-0.9c0.2-0.2,0.5-0.3,0.9-0.3c0.2,0,0.4,0,0.6,0.1c0.2,0,0.3,0.1,0.4,0.1V34.2z
				 M180.1,30.6h2.2v7.1c-0.1,0-0.2,0.1-0.4,0.1c-0.2,0-0.4,0.1-0.6,0.1c-0.4,0-0.7-0.1-0.9-0.3c-0.2-0.2-0.3-0.5-0.3-0.9V30.6z
				 M181.3,28.8v-1.8h6c0.1,0.1,0.1,0.2,0.2,0.4c0,0.2,0.1,0.3,0.1,0.5c0,0.3-0.1,0.6-0.2,0.7c-0.1,0.2-0.3,0.3-0.6,0.3H181.3z
				 M181.3,33.2v-1.8h5.4c0.1,0.1,0.1,0.2,0.2,0.4c0.1,0.2,0.1,0.3,0.1,0.5c0,0.3-0.1,0.5-0.2,0.7c-0.1,0.2-0.3,0.2-0.6,0.2H181.3z
				 M181.3,37.9v-1.8h6c0,0.1,0.1,0.2,0.2,0.4c0.1,0.2,0.1,0.3,0.1,0.5c0,0.3-0.1,0.5-0.2,0.7c-0.1,0.2-0.3,0.2-0.6,0.2H181.3z"/>
			<path d="M193.7,34h-3.9v-6.2c0-0.2,0.1-0.4,0.2-0.5s0.3-0.2,0.5-0.3c0.4-0.1,0.8-0.2,1.4-0.3s1.1-0.1,1.6-0.1
				c1.6,0,2.8,0.3,3.6,1c0.8,0.7,1.2,1.6,1.2,2.7c0,0.7-0.2,1.4-0.5,1.9c-0.4,0.6-0.9,1-1.5,1.3C195.4,33.9,194.6,34,193.7,34z
				 M189.8,33.2h2.3v4.6c-0.1,0-0.2,0.1-0.4,0.1c-0.2,0-0.4,0-0.6,0c-0.4,0-0.7-0.1-0.9-0.2c-0.2-0.2-0.3-0.4-0.3-0.8V33.2z
				 M192.1,32.2h1.5c0.7,0,1.3-0.2,1.7-0.5s0.6-0.8,0.6-1.4c0-0.6-0.2-1.1-0.6-1.4s-1-0.5-1.9-0.5c-0.2,0-0.5,0-0.7,0
				c-0.2,0-0.4,0-0.6,0.1V32.2z M193.4,33.4l1.9-0.6c0.3,0.4,0.6,0.8,0.9,1.2c0.3,0.4,0.6,0.8,0.9,1.2s0.6,0.7,0.8,1
				s0.4,0.6,0.5,0.8c-0.1,0.3-0.2,0.5-0.5,0.7c-0.2,0.2-0.5,0.3-0.8,0.3c-0.4,0-0.6-0.1-0.8-0.2c-0.2-0.2-0.4-0.4-0.6-0.7
				L193.4,33.4z"/>
			<path d="M210.9,32.4c0,1.2-0.2,2.3-0.7,3.2s-1.1,1.5-1.9,1.9c-0.8,0.4-1.8,0.7-2.8,0.7c-1,0-2-0.2-2.8-0.7
				c-0.8-0.4-1.5-1.1-1.9-1.9s-0.7-1.9-0.7-3.2c0-1.2,0.2-2.3,0.7-3.1s1.1-1.5,2-1.9c0.8-0.4,1.7-0.7,2.7-0.7c1,0,2,0.2,2.8,0.7
				c0.8,0.4,1.5,1.1,2,1.9S210.9,31.2,210.9,32.4z M208.6,32.4c0-1.3-0.3-2.2-0.9-2.9c-0.6-0.7-1.3-1-2.3-1c-0.9,0-1.7,0.3-2.2,1
				c-0.6,0.7-0.9,1.6-0.9,2.9c0,1.3,0.3,2.2,0.8,2.9c0.6,0.7,1.3,1,2.3,1c0.9,0,1.7-0.3,2.3-1C208.3,34.6,208.6,33.7,208.6,32.4z"/>
			<path d="M225.6,35.6c-0.5,0.9-1.2,1.5-2.1,1.9c-0.9,0.4-1.9,0.6-3.1,0.6c-0.4,0-0.9,0-1.4-0.1c-0.5,0-1-0.1-1.5-0.3
				c-0.6-0.2-0.9-0.6-0.9-1.1v-8.8c0-0.2,0.1-0.4,0.2-0.5s0.3-0.2,0.5-0.3c0.4-0.1,0.9-0.2,1.4-0.3s1-0.1,1.5-0.1
				c1.2,0,2.3,0.2,3.2,0.6c0.9,0.4,1.6,1,2.1,1.9c0.5,0.8,0.8,1.9,0.8,3.1C226.4,33.6,226.1,34.7,225.6,35.6z M223.6,30.2
				c-0.3-0.6-0.8-1-1.3-1.2c-0.5-0.3-1.2-0.4-1.9-0.4c-0.3,0-0.5,0-0.7,0s-0.5,0-0.7,0.1v7.5c0.2,0,0.5,0.1,0.7,0.1
				c0.3,0,0.5,0,0.8,0c1.1,0,2-0.3,2.6-1c0.6-0.7,0.9-1.6,0.9-2.9C224,31.5,223.9,30.8,223.6,30.2z"/>
			<path d="M230.8,34.2l-2.2,0v-6c0-0.4,0.1-0.7,0.3-0.9c0.2-0.2,0.5-0.3,0.9-0.3c0.2,0,0.4,0,0.6,0.1c0.2,0,0.3,0.1,0.4,0.1V34.2z
				 M228.6,30.6h2.2v7.1c-0.1,0-0.2,0.1-0.4,0.1c-0.2,0-0.4,0.1-0.6,0.1c-0.4,0-0.7-0.1-0.9-0.3c-0.2-0.2-0.3-0.5-0.3-0.9V30.6z
				 M229.8,28.8v-1.8h6c0.1,0.1,0.1,0.2,0.2,0.4c0,0.2,0.1,0.3,0.1,0.5c0,0.3-0.1,0.6-0.2,0.7c-0.1,0.2-0.3,0.3-0.6,0.3H229.8z
				 M229.8,33.2v-1.8h5.4c0.1,0.1,0.1,0.2,0.2,0.4c0.1,0.2,0.1,0.3,0.1,0.5c0,0.3-0.1,0.5-0.2,0.7c-0.1,0.2-0.3,0.2-0.6,0.2H229.8z
				 M229.8,37.9v-1.8h6c0,0.1,0.1,0.2,0.2,0.4c0.1,0.2,0.1,0.3,0.1,0.5c0,0.3-0.1,0.5-0.2,0.7c-0.1,0.2-0.3,0.2-0.6,0.2H229.8z"/>
			<path d="M247.4,37.6c-0.1,0.1-0.3,0.2-0.5,0.3c-0.3,0.1-0.5,0.1-0.9,0.1c-0.4,0-0.7-0.1-0.9-0.2c-0.3-0.1-0.4-0.3-0.5-0.5
				c-0.2-0.3-0.4-0.8-0.6-1.4c-0.2-0.6-0.5-1.3-0.8-2c-0.3-0.7-0.6-1.5-0.8-2.3c-0.3-0.8-0.5-1.5-0.8-2.3c-0.2-0.7-0.4-1.4-0.6-2
				c0.1-0.1,0.3-0.3,0.5-0.4c0.2-0.1,0.5-0.2,0.7-0.2c0.3,0,0.6,0.1,0.8,0.2c0.2,0.2,0.3,0.4,0.4,0.7c0.4,1.4,0.9,2.7,1.3,4
				s0.9,2.6,1.3,3.9h0.1c0.3-0.8,0.6-1.7,0.9-2.7c0.3-1,0.6-1.9,0.9-3c0.3-1,0.6-2,0.8-3c0.1-0.1,0.3-0.1,0.5-0.2
				c0.2,0,0.4-0.1,0.6-0.1c0.3,0,0.6,0.1,0.8,0.2c0.2,0.2,0.3,0.4,0.3,0.7c0,0.2-0.1,0.6-0.2,1.1c-0.1,0.5-0.3,1.1-0.5,1.7
				c-0.2,0.7-0.5,1.3-0.7,2.1c-0.3,0.7-0.5,1.4-0.8,2.1c-0.3,0.7-0.5,1.3-0.7,1.8C247.8,37,247.6,37.4,247.4,37.6z"/>
			<path d="M255.1,33.3h-2.3v-6.3c0.1,0,0.2-0.1,0.5-0.1c0.2,0,0.4-0.1,0.6-0.1c0.4,0,0.7,0.1,0.9,0.2c0.2,0.2,0.3,0.4,0.3,0.8V33.3
				z M252.8,30.7h2.3v7.2c-0.1,0-0.2,0.1-0.4,0.1c-0.2,0-0.4,0-0.6,0c-0.4,0-0.7-0.1-0.9-0.2c-0.2-0.2-0.3-0.4-0.3-0.8V30.7z
				 M253.4,24.6l1.9-1.7c0.4,0,0.7,0.1,0.9,0.3s0.3,0.4,0.3,0.7c0,0.2,0,0.4-0.1,0.5s-0.3,0.3-0.5,0.5l-1.7,1.2
				c-0.3,0-0.6-0.1-0.8-0.3c-0.2-0.2-0.3-0.3-0.3-0.6c0-0.1,0-0.3,0.1-0.4S253.2,24.7,253.4,24.6z"/>
			<path d="M266.2,28.3c0,0.2-0.1,0.4-0.2,0.6c-0.1,0.2-0.3,0.3-0.4,0.4c-0.3-0.2-0.6-0.4-1-0.6s-0.9-0.3-1.5-0.3
				c-0.7,0-1.3,0.1-1.8,0.4c-0.5,0.3-0.9,0.7-1.2,1.3c-0.3,0.6-0.4,1.3-0.4,2.1c0,1.3,0.3,2.2,1,2.9c0.6,0.7,1.5,1,2.5,1
				c0.6,0,1-0.1,1.5-0.2c0.4-0.2,0.8-0.3,1.1-0.5c0.2,0.1,0.3,0.2,0.4,0.4c0.1,0.2,0.2,0.4,0.2,0.6c0,0.2-0.1,0.4-0.2,0.6
				s-0.3,0.3-0.5,0.4c-0.3,0.1-0.6,0.3-1,0.4c-0.4,0.1-1,0.2-1.6,0.2c-1,0-2-0.2-2.8-0.6c-0.8-0.4-1.5-1-2-1.9
				c-0.5-0.8-0.7-1.9-0.7-3.2c0-1.3,0.2-2.3,0.7-3.2s1.2-1.5,2-1.9c0.8-0.4,1.7-0.7,2.7-0.7c0.7,0,1.3,0.1,1.8,0.2
				c0.5,0.2,0.9,0.4,1.2,0.6C266,27.8,266.2,28,266.2,28.3z"/>
			<path d="M272.6,26.9l0,1.9h-5.1c-0.1-0.1-0.1-0.2-0.2-0.4c0-0.2-0.1-0.3-0.1-0.5c0-0.3,0.1-0.6,0.2-0.7s0.3-0.2,0.6-0.2H272.6z
				 M270.6,28.3h2.3v9.5c-0.1,0-0.2,0.1-0.4,0.1c-0.2,0-0.4,0-0.6,0c-0.4,0-0.8-0.1-0.9-0.2c-0.2-0.2-0.3-0.4-0.3-0.8V28.3z
				 M271,28.8l-0.1-1.9h5.1c0.1,0.1,0.1,0.2,0.2,0.4s0.1,0.3,0.1,0.5c0,0.3-0.1,0.6-0.2,0.7c-0.1,0.2-0.3,0.3-0.6,0.3H271z"/>
			<path d="M280.3,33.3h-2.3v-6.3c0.1,0,0.2-0.1,0.5-0.1c0.2,0,0.4-0.1,0.6-0.1c0.4,0,0.7,0.1,0.9,0.2c0.2,0.2,0.3,0.4,0.3,0.8V33.3
				z M278.1,30.7h2.3v7.2c-0.1,0-0.2,0.1-0.4,0.1c-0.2,0-0.4,0-0.6,0c-0.4,0-0.7-0.1-0.9-0.2c-0.2-0.2-0.3-0.4-0.3-0.8V30.7z"/>
			<path d="M290,35.1c-0.1,0.1-0.3,0.2-0.5,0.2s-0.4,0.1-0.6,0.1c-0.3,0-0.6,0-0.8-0.1c-0.2-0.1-0.4-0.2-0.4-0.4
				c-0.5-1.2-0.9-2.2-1.3-3.1s-0.6-1.6-0.8-2.3h-0.1c0,0.8-0.1,1.5-0.1,2.2c0,0.7-0.1,1.3-0.1,2c0,0.6-0.1,1.3-0.1,2
				s-0.1,1.4-0.1,2.2c-0.1,0-0.3,0.1-0.5,0.1c-0.2,0-0.4,0.1-0.6,0.1c-0.4,0-0.7-0.1-0.9-0.2c-0.2-0.1-0.3-0.4-0.3-0.7
				c0-0.2,0-0.6,0-1.1s0.1-1.1,0.1-1.8c0-0.7,0.1-1.5,0.1-2.2c0-0.8,0.1-1.6,0.2-2.3c0.1-0.8,0.1-1.5,0.2-2.1
				c0.1-0.1,0.3-0.2,0.5-0.4c0.2-0.1,0.6-0.2,1-0.2c0.4,0,0.8,0.1,1.1,0.2c0.3,0.2,0.5,0.4,0.6,0.7c0.2,0.5,0.5,1.1,0.7,1.7
				c0.2,0.6,0.5,1.3,0.7,1.9c0.2,0.6,0.5,1.2,0.7,1.8h0.1c0.4-1.1,0.8-2.2,1.2-3.3s0.8-2,1.1-2.7c0.1-0.1,0.3-0.1,0.5-0.2
				c0.2,0,0.5-0.1,0.7-0.1c0.4,0,0.8,0.1,1,0.2c0.3,0.1,0.4,0.3,0.5,0.6c0,0.2,0.1,0.6,0.2,1.1c0.1,0.5,0.1,1.1,0.2,1.7
				c0.1,0.7,0.1,1.3,0.2,2.1c0.1,0.7,0.1,1.4,0.2,2.1c0,0.7,0.1,1.3,0.1,1.8c0,0.5,0.1,1,0.1,1.3c-0.2,0.1-0.3,0.2-0.5,0.2
				c-0.2,0-0.4,0.1-0.6,0.1c-0.3,0-0.6-0.1-0.8-0.2c-0.2-0.1-0.3-0.4-0.4-0.7c-0.1-1-0.1-2-0.2-3c0-1-0.1-1.8-0.1-2.6
				c0-0.8-0.1-1.5-0.1-2h-0.1c-0.2,0.6-0.5,1.3-0.8,2.2C291,32.6,290.5,33.7,290,35.1z"/>
			<path d="M301.5,28.8L301.5,28.8c-0.2,0.4-0.4,0.9-0.6,1.5c-0.2,0.6-0.4,1.1-0.6,1.7c-0.2,0.6-0.4,1.2-0.6,1.7l-0.3,1.1
				c-0.1,0.2-0.1,0.5-0.2,0.8c-0.1,0.3-0.2,0.6-0.3,0.8c-0.1,0.3-0.2,0.5-0.3,0.8s-0.1,0.5-0.2,0.7c-0.1,0-0.2,0.1-0.4,0.1
				c-0.1,0-0.3,0-0.5,0c-0.4,0-0.7-0.1-0.9-0.2s-0.3-0.4-0.3-0.7c0-0.1,0-0.3,0.1-0.4s0.1-0.3,0.1-0.5c0.1-0.4,0.3-0.9,0.5-1.5
				c0.2-0.6,0.4-1.2,0.7-1.9c0.2-0.7,0.5-1.4,0.7-2.1c0.3-0.7,0.5-1.4,0.7-2s0.4-1.1,0.6-1.6c0.1-0.1,0.4-0.2,0.7-0.2
				c0.3-0.1,0.6-0.1,0.9-0.1c0.4,0,0.8,0.1,1.1,0.2c0.3,0.1,0.6,0.3,0.6,0.6c0.3,0.7,0.5,1.4,0.8,2.3s0.6,1.7,0.9,2.7
				c0.3,0.9,0.6,1.8,0.9,2.7c0.3,0.9,0.5,1.7,0.7,2.4c-0.1,0.1-0.3,0.2-0.5,0.3c-0.2,0.1-0.5,0.1-0.7,0.1c-0.4,0-0.7-0.1-0.9-0.2
				c-0.2-0.1-0.3-0.4-0.4-0.7l-0.7-2.4l-0.2-1.2c-0.2-0.6-0.4-1.2-0.6-1.8c-0.2-0.6-0.4-1.1-0.5-1.7
				C301.8,29.6,301.6,29.2,301.5,28.8z M298.5,35.3l0.8-1.8h4.5l0.3,1.8H298.5z"/>
			<path d="M311.5,36.3c0.7,0,1.2-0.1,1.5-0.4c0.3-0.3,0.5-0.6,0.5-1.1c0-0.4-0.1-0.7-0.4-0.9c-0.3-0.2-0.7-0.4-1.2-0.6l-1.2-0.4
				c-0.6-0.2-1.1-0.4-1.6-0.7s-0.8-0.6-1-1c-0.2-0.4-0.4-0.9-0.4-1.5c0-1,0.4-1.7,1.1-2.3c0.7-0.6,1.7-0.8,3-0.8
				c0.7,0,1.3,0.1,1.8,0.2c0.5,0.1,0.9,0.3,1.2,0.6c0.3,0.2,0.5,0.5,0.5,0.8c0,0.2-0.1,0.4-0.2,0.6c-0.1,0.2-0.3,0.3-0.4,0.4
				c-0.3-0.2-0.7-0.4-1.1-0.5c-0.5-0.1-1-0.2-1.6-0.2c-0.6,0-1.1,0.1-1.4,0.3s-0.5,0.5-0.5,0.9c0,0.3,0.1,0.6,0.4,0.8
				c0.2,0.2,0.6,0.4,1.1,0.5l1,0.3c1,0.3,1.8,0.7,2.4,1.3c0.6,0.5,0.9,1.3,0.9,2.2c0,1-0.4,1.8-1.1,2.4s-1.8,0.9-3.2,0.9
				c-0.7,0-1.4-0.1-1.9-0.2c-0.6-0.2-1-0.4-1.3-0.6s-0.5-0.6-0.5-0.9c0-0.3,0.1-0.5,0.3-0.7c0.2-0.2,0.3-0.3,0.5-0.4
				c0.3,0.3,0.7,0.5,1.2,0.7C310.2,36.2,310.8,36.3,311.5,36.3z"/>
		</g>
	</g>
</g>
<g id="Capa_6">
	<g>
		<g>
			<path d="M1119.8,756.9h-2.3v-5.3c0-0.4,0.1-0.7,0.3-0.9c0.2-0.2,0.5-0.3,0.9-0.3c0.2,0,0.4,0,0.6,0.1s0.3,0.1,0.4,0.1V756.9z
				 M1117.6,755.5h2.3v5.8c-0.1,0-0.2,0.1-0.4,0.1c-0.2,0-0.4,0-0.6,0c-0.4,0-0.7-0.1-0.9-0.2c-0.2-0.2-0.3-0.4-0.3-0.8V755.5z
				 M1118.8,757v-1.9h5.4c0.1,0.1,0.1,0.2,0.2,0.4c0.1,0.2,0.1,0.3,0.1,0.5c0,0.3-0.1,0.6-0.2,0.7c-0.1,0.2-0.3,0.3-0.6,0.3H1118.8z
				 M1118.8,752.3v-1.9h6c0.1,0.1,0.1,0.2,0.2,0.4s0.1,0.3,0.1,0.5c0,0.3-0.1,0.6-0.2,0.7c-0.1,0.2-0.3,0.3-0.6,0.3H1118.8z"/>
			<path d="M1129.2,757.6l-2.2,0v-6c0-0.4,0.1-0.7,0.3-0.9c0.2-0.2,0.5-0.3,0.9-0.3c0.2,0,0.4,0,0.6,0.1c0.2,0,0.3,0.1,0.4,0.1
				V757.6z M1127,754.1h2.2v7.1c-0.1,0-0.2,0.1-0.4,0.1c-0.2,0-0.4,0.1-0.6,0.1c-0.4,0-0.7-0.1-0.9-0.3c-0.2-0.2-0.3-0.5-0.3-0.9
				V754.1z M1128.2,752.2v-1.8h6c0.1,0.1,0.1,0.2,0.2,0.4c0,0.2,0.1,0.3,0.1,0.5c0,0.3-0.1,0.6-0.2,0.7s-0.3,0.3-0.6,0.3H1128.2z
				 M1128.2,756.6v-1.8h5.4c0.1,0.1,0.1,0.2,0.2,0.4c0.1,0.2,0.1,0.3,0.1,0.5c0,0.3-0.1,0.5-0.2,0.7c-0.1,0.2-0.3,0.2-0.6,0.2
				H1128.2z M1128.2,761.3v-1.8h6c0,0.1,0.1,0.2,0.2,0.4c0.1,0.2,0.1,0.3,0.1,0.5c0,0.3-0.1,0.5-0.2,0.7c-0.1,0.2-0.3,0.2-0.6,0.2
				H1128.2z"/>
			<path d="M1145,751.8c0,0.2-0.1,0.4-0.2,0.6c-0.1,0.2-0.3,0.3-0.4,0.4c-0.3-0.2-0.6-0.4-1-0.6c-0.4-0.2-0.9-0.3-1.5-0.3
				c-0.7,0-1.3,0.1-1.8,0.4c-0.5,0.3-0.9,0.7-1.2,1.3s-0.4,1.3-0.4,2.1c0,1.3,0.3,2.2,1,2.9c0.6,0.7,1.5,1,2.5,1
				c0.6,0,1-0.1,1.5-0.2c0.4-0.2,0.8-0.3,1.1-0.5c0.2,0.1,0.3,0.2,0.4,0.4c0.1,0.2,0.2,0.4,0.2,0.6c0,0.2-0.1,0.4-0.2,0.6
				c-0.1,0.2-0.3,0.3-0.5,0.4c-0.3,0.1-0.6,0.3-1,0.4c-0.4,0.1-1,0.2-1.6,0.2c-1,0-2-0.2-2.8-0.6c-0.8-0.4-1.5-1-2-1.9
				s-0.7-1.9-0.7-3.2c0-1.3,0.2-2.3,0.7-3.2c0.5-0.9,1.2-1.5,2-1.9c0.8-0.4,1.7-0.7,2.7-0.7c0.7,0,1.3,0.1,1.8,0.2
				c0.5,0.2,0.9,0.4,1.2,0.6S1145,751.5,1145,751.8z"/>
			<path d="M1149.4,756.7h-2.3v-6.3c0.1,0,0.3-0.1,0.5-0.1c0.2,0,0.4-0.1,0.6-0.1c0.4,0,0.7,0.1,0.9,0.2c0.2,0.2,0.3,0.4,0.3,0.8
				V756.7z M1147.1,754.1h2.3v7.2c-0.1,0-0.2,0.1-0.4,0.1c-0.2,0-0.4,0-0.6,0c-0.4,0-0.7-0.1-0.9-0.2c-0.2-0.2-0.3-0.4-0.3-0.8
				V754.1z M1155.3,756.7h-7v-1.8h7V756.7z M1156.3,756.7h-2.3v-6.3c0.1,0,0.2-0.1,0.4-0.1c0.2,0,0.4-0.1,0.6-0.1
				c0.4,0,0.7,0.1,0.9,0.2c0.2,0.2,0.3,0.4,0.3,0.8V756.7z M1154,754.1h2.3v7.2c-0.1,0-0.2,0.1-0.4,0.1s-0.4,0-0.6,0
				c-0.4,0-0.8-0.1-0.9-0.2c-0.2-0.2-0.3-0.4-0.3-0.8V754.1z"/>
			<path d="M1163.2,752.3L1163.2,752.3c-0.2,0.4-0.4,0.9-0.6,1.5c-0.2,0.6-0.4,1.1-0.6,1.7c-0.2,0.6-0.4,1.2-0.6,1.7l-0.3,1.1
				c-0.1,0.2-0.1,0.5-0.2,0.8s-0.2,0.6-0.3,0.8s-0.2,0.5-0.3,0.8s-0.1,0.5-0.2,0.7c-0.1,0-0.2,0.1-0.4,0.1c-0.1,0-0.3,0-0.5,0
				c-0.4,0-0.7-0.1-0.9-0.2c-0.2-0.1-0.3-0.4-0.3-0.7c0-0.1,0-0.3,0.1-0.4c0-0.1,0.1-0.3,0.1-0.5c0.1-0.4,0.3-0.9,0.5-1.5
				s0.4-1.2,0.7-1.9c0.2-0.7,0.5-1.4,0.7-2.1s0.5-1.4,0.7-2c0.2-0.6,0.4-1.1,0.6-1.6c0.1-0.1,0.4-0.2,0.7-0.2s0.6-0.1,0.9-0.1
				c0.4,0,0.8,0.1,1.1,0.2s0.6,0.3,0.6,0.6c0.3,0.7,0.5,1.4,0.8,2.3c0.3,0.9,0.6,1.7,0.9,2.7s0.6,1.8,0.9,2.7
				c0.3,0.9,0.5,1.7,0.7,2.4c-0.1,0.1-0.3,0.2-0.5,0.3c-0.2,0.1-0.5,0.1-0.7,0.1c-0.4,0-0.7-0.1-0.9-0.2c-0.2-0.1-0.3-0.4-0.4-0.7
				l-0.7-2.4l-0.2-1.2c-0.2-0.6-0.4-1.2-0.6-1.8c-0.2-0.6-0.4-1.1-0.5-1.7S1163.4,752.6,1163.2,752.3z M1160.2,758.7l0.8-1.8h4.5
				l0.3,1.8H1160.2z"/>
		</g>
	</g>
</g>
</svg>
